<svg width="51" height="51" viewBox="0 0 51 51" fill="none" xmlns="http://www.w3.org/2000/svg">
<g clip-path="url(#clip0_16_8531)">
<path d="M25.5 50.3477C39.3071 50.3477 50.5 39.1548 50.5 25.3477C50.5 11.5405 39.3071 0.347656 25.5 0.347656C11.6929 0.347656 0.5 11.5405 0.5 25.3477C0.5 39.1548 11.6929 50.3477 25.5 50.3477Z" fill="#F20000"/>
<path d="M37.4145 19.3343C36.9145 17.7816 35.2599 16.8639 33.7237 16.6501C28.2479 16.0678 22.7258 16.0678 17.25 16.6501C15.727 16.8639 14.0724 17.7948 13.5724 19.3343C12.7928 23.3062 12.7928 27.3919 13.5724 31.3639C14.0855 32.9132 15.7401 33.8343 17.2763 34.0481C22.7523 34.627 28.274 34.627 33.75 34.0481C35.273 33.8343 36.9276 32.9001 37.4276 31.3639C38.2029 27.391 38.1984 23.3054 37.4145 19.3343ZM22.5099 30.1369V20.558L30.3092 25.3474C27.6809 26.9626 25.1283 28.5349 22.5099 30.1369Z" fill="white"/>
</g>
<defs>
<clipPath id="clip0_16_8531">
<rect width="50" height="50" fill="white" transform="translate(0.5 0.347656)"/>
</clipPath>
</defs>
</svg>
