<svg width="51" height="51" viewBox="0 0 51 51" fill="none" xmlns="http://www.w3.org/2000/svg">
<g clip-path="url(#clip0_16_8517)">
<path d="M25.5 50.3477C39.3071 50.3477 50.5 39.1548 50.5 25.3477C50.5 11.5405 39.3071 0.347656 25.5 0.347656C11.6929 0.347656 0.5 11.5405 0.5 25.3477C0.5 39.1548 11.6929 50.3477 25.5 50.3477Z" fill="#2AA81A"/>
<path d="M34.3191 16.5285C32.2388 14.4246 29.4748 13.1338 26.5262 12.8892C23.5777 12.6445 20.6388 13.4621 18.2402 15.1943C15.8416 16.9266 14.1413 19.4593 13.4464 22.3352C12.7515 25.2112 13.1077 28.2408 14.4507 30.8772L13.1349 37.2653C13.1208 37.3291 13.1202 37.3952 13.1333 37.4592C13.1463 37.5232 13.1726 37.5838 13.2105 37.637C13.2648 37.7176 13.3424 37.7797 13.4329 37.815C13.5235 37.8502 13.6226 37.857 13.7171 37.8344L19.9671 36.3508C22.5962 37.6586 25.6041 37.9911 28.4554 37.289C31.3066 36.5869 33.8162 34.8959 35.5375 32.5169C37.2588 30.1378 38.0801 27.2252 37.8552 24.2974C37.6302 21.3696 36.3737 18.6166 34.3092 16.5285H34.3191ZM32.3651 32.1107C30.9264 33.5469 29.0737 34.4961 27.0676 34.8247C25.0614 35.1534 23.0027 34.845 21.1809 33.9429L20.3059 33.5087L16.4671 34.4166V34.3673L17.2763 30.4956L16.8487 29.6535C15.9172 27.8267 15.5883 25.7519 15.9092 23.7266C16.2301 21.7013 17.1843 19.8298 18.6349 18.3804C20.4563 16.5609 22.9255 15.5389 25.5 15.5389C28.0745 15.5389 30.5437 16.5609 32.3651 18.3804L32.4079 18.4397C34.2056 20.2649 35.2092 22.7267 35.1999 25.2886C35.1907 27.8506 34.1694 30.305 32.3586 32.1173L32.3651 32.1107Z" fill="white"/>
<path d="M32.0263 29.2948C31.5559 30.035 30.8092 30.9396 29.8783 31.1666C28.2336 31.5613 25.7303 31.1666 22.5954 28.2685L22.5559 28.2323C19.829 25.6863 19.1053 23.5646 19.2664 21.8837C19.3618 20.9264 20.1579 20.0646 20.8289 19.4988C20.9356 19.4088 21.0619 19.3451 21.1976 19.3126C21.3334 19.2802 21.4748 19.2799 21.6106 19.3119C21.7465 19.3438 21.873 19.4071 21.98 19.4967C22.087 19.5863 22.1716 19.6996 22.227 19.8277L23.2368 22.1106C23.3028 22.2576 23.3275 22.4197 23.3084 22.5796C23.2893 22.7395 23.227 22.8913 23.1283 23.0185L22.6151 23.6764C22.5085 23.813 22.4449 23.9782 22.4326 24.1511C22.4203 24.3239 22.4598 24.4965 22.5461 24.6468C23.0335 25.3653 23.6167 26.0138 24.2796 26.5745C24.9928 27.2608 25.8016 27.8403 26.6809 28.2948C26.8414 28.3595 27.0175 28.375 27.1868 28.3392C27.3561 28.3035 27.5109 28.2182 27.6316 28.0942L28.2204 27.4955C28.3324 27.375 28.4756 27.2879 28.6341 27.2438C28.7926 27.1996 28.9602 27.2002 29.1184 27.2455L31.5197 27.933C31.6558 27.9717 31.7809 28.0419 31.8848 28.1379C31.9887 28.234 32.0685 28.3531 32.1178 28.4857C32.1671 28.6183 32.1846 28.7606 32.1687 28.9012C32.1528 29.0418 32.104 29.1766 32.0263 29.2948Z" fill="white"/>
</g>
<defs>
<clipPath id="clip0_16_8517">
<rect width="50" height="50" fill="white" transform="translate(0.5 0.347656)"/>
</clipPath>
</defs>
</svg>
