<svg width="51" height="51" viewBox="0 0 51 51" fill="none" xmlns="http://www.w3.org/2000/svg">
<path d="M25.5 47.3203C37.6352 47.3203 47.4727 37.4828 47.4727 25.3477C47.4727 13.2125 37.6352 3.375 25.5 3.375C13.3648 3.375 3.52734 13.2125 3.52734 25.3477C3.52734 37.4828 13.3648 47.3203 25.5 47.3203Z" fill="url(#paint0_linear_16_8537)"/>
<path d="M30.168 13.1406H20.8418C16.6816 13.1406 13.3027 16.5195 13.3027 20.6797V30.0059C13.3027 34.166 16.6816 37.5449 20.8418 37.5449H30.168C34.3281 37.5449 37.707 34.166 37.707 30.0059V20.6797C37.707 16.5195 34.3281 13.1406 30.168 13.1406ZM34.9824 30.0156C34.9824 32.6719 32.8242 34.8398 30.1582 34.8398H20.832C18.1758 34.8398 16.0078 32.6816 16.0078 30.0156V20.6895C16.0078 18.0332 18.166 15.8652 20.832 15.8652H30.1582C32.8145 15.8652 34.9824 18.0234 34.9824 20.6895V30.0156Z" fill="white"/>
<path d="M25.5 19.1074C22.0625 19.1074 19.2598 21.9102 19.2598 25.3477C19.2598 28.7852 22.0625 31.5879 25.5 31.5879C28.9375 31.5879 31.7402 28.7852 31.7402 25.3477C31.7402 21.9102 28.9375 19.1074 25.5 19.1074ZM25.5 29.1367C23.4102 29.1367 21.7109 27.4375 21.7109 25.3477C21.7109 23.2578 23.4102 21.5586 25.5 21.5586C27.5898 21.5586 29.2891 23.2578 29.2891 25.3477C29.2891 27.4375 27.5898 29.1367 25.5 29.1367Z" fill="white"/>
<path d="M32.2163 19.7913C32.7912 19.6977 33.1813 19.1557 33.0877 18.5808C32.9941 18.0059 32.4521 17.6157 31.8772 17.7094C31.3023 17.803 30.9121 18.345 31.0057 18.9199C31.0994 19.4948 31.6413 19.8849 32.2163 19.7913Z" fill="white"/>
<defs>
<linearGradient id="paint0_linear_16_8537" x1="8.76943" y1="42.0782" x2="39.995" y2="10.8526" gradientUnits="userSpaceOnUse">
<stop stop-color="#FEE411"/>
<stop offset="0.052" stop-color="#FEDB16"/>
<stop offset="0.138" stop-color="#FEC125"/>
<stop offset="0.248" stop-color="#FE983D"/>
<stop offset="0.376" stop-color="#FE5F5E"/>
<stop offset="0.5" stop-color="#FE2181"/>
<stop offset="1" stop-color="#9000DC"/>
</linearGradient>
</defs>
</svg>
