<svg width="110" height="44" viewBox="0 0 110 44" fill="none" xmlns="http://www.w3.org/2000/svg">
<g clip-path="url(#clip0_62_62)">
<path d="M65.6073 16.0353H67.8277C67.9889 16.5235 68.2998 16.9486 68.7162 17.2502C69.1327 17.5517 69.6336 17.7144 70.1477 17.7152C71.4954 17.7152 72.5909 16.6187 72.5909 15.272C72.5909 13.9244 71.4954 12.8288 70.1477 12.8288C69.6336 12.8296 69.1327 12.9923 68.7162 13.2939C68.2998 13.5954 67.9889 14.0205 67.8277 14.5088H65.6073V11.8604C65.6075 11.6763 65.5411 11.4983 65.4204 11.3593C65.2997 11.2203 65.1329 11.1296 64.9506 11.104C64.1518 10.9905 63.3593 10.8372 62.5758 10.6446L63.731 8.51418H70.1477C70.5689 8.51418 70.911 8.17213 70.911 7.7519V5.52861C71.3992 5.36742 71.8243 5.05652 72.1259 4.64006C72.4274 4.2236 72.5901 3.72274 72.5909 3.20856C72.5909 1.8609 71.4954 0.765381 70.1477 0.765381C69.5 0.766157 68.879 1.02381 68.421 1.48183C67.963 1.93985 67.7053 2.56083 67.7045 3.20856C67.7045 4.28943 68.4101 5.20709 69.3845 5.52861V6.98768H63.2765C63.1389 6.98772 63.0038 7.02498 62.8856 7.09552C62.7674 7.16606 62.6705 7.26724 62.6051 7.38836L61.0679 10.2224C58.3378 9.36382 55.7798 8.03206 53.5106 6.28795C53.3772 6.18501 53.2135 6.12918 53.045 6.12918C52.8765 6.12918 52.7127 6.18501 52.5793 6.28795C50.3106 8.03236 47.7529 9.36445 45.023 10.2234L43.4858 7.38738C43.4203 7.26645 43.3233 7.16546 43.2051 7.0951C43.0869 7.02474 42.9519 6.98763 42.8144 6.98768H36.7064V5.52861C37.1947 5.36742 37.6198 5.05652 37.9213 4.64006C38.2229 4.2236 38.3856 3.72274 38.3864 3.20856C38.3864 1.86188 37.2908 0.765381 35.9432 0.765381C35.2954 0.766157 34.6745 1.02381 34.2164 1.48183C33.7584 1.93985 33.5008 2.56083 33.5 3.20856C33.5 4.28943 34.2056 5.20709 35.1799 5.52861V7.75093C35.1799 8.17311 35.522 8.51515 35.9432 8.51515H42.36L43.5141 10.6456C42.7323 10.8372 41.9407 10.9906 41.1403 11.1049C40.9582 11.1306 40.7915 11.2212 40.6708 11.36C40.5502 11.4987 40.4837 11.6764 40.4836 11.8604V14.5088H38.2632C38.1022 14.0203 37.7914 13.595 37.3749 13.2933C36.9584 12.9916 36.4575 12.8287 35.9432 12.8279C35.2954 12.8286 34.6745 13.0863 34.2164 13.5443C33.7584 14.0023 33.5008 14.6233 33.5 15.271C33.5 16.6197 34.5955 17.7142 35.9432 17.7142C36.4572 17.7135 36.958 17.5509 37.3745 17.2496C37.7909 16.9482 38.1019 16.5233 38.2632 16.0353H40.4836V20.218C40.4836 21.7035 40.6957 23.1742 41.1022 24.5864H38.2632C38.102 24.0982 37.7911 23.6731 37.3747 23.3715C36.9582 23.07 36.4574 22.9072 35.9432 22.9065C35.2954 22.9072 34.6745 23.1649 34.2164 23.6229C33.7584 24.0809 33.5008 24.7019 33.5 25.3497C33.5 26.6973 34.5955 27.7928 35.9432 27.7928C36.4572 27.7921 36.958 27.6296 37.3745 27.3282C37.7909 27.0268 38.1019 26.602 38.2632 26.1139H41.627C42.2833 27.7481 43.21 29.2603 44.3683 30.5869H35.9432C35.8429 30.5869 35.7435 30.6066 35.6509 30.6451C35.5582 30.6835 35.474 30.7398 35.4031 30.8108C35.3322 30.8817 35.276 30.966 35.2378 31.0587C35.1995 31.1514 35.1798 31.2508 35.1799 31.3511V35.0931C34.6917 35.2543 34.2666 35.5652 33.965 35.9816C33.6635 36.3981 33.5008 36.8989 33.5 37.4131C33.5 38.7608 34.5955 39.8563 35.9432 39.8563C37.2908 39.8563 38.3864 38.7608 38.3864 37.4131C38.3856 36.8989 38.2229 36.3981 37.9213 35.9816C37.6198 35.5652 37.1947 35.2543 36.7064 35.0931V32.1143H45.9035C47.9013 33.8447 50.301 35.0465 52.8832 35.61C52.9901 35.6331 53.1008 35.6331 53.2077 35.61C55.7899 35.0465 58.1896 33.8447 60.1874 32.1143H69.3835V35.0931C68.8954 35.2544 68.4706 35.5654 68.1692 35.9818C67.8678 36.3983 67.7053 36.8991 67.7045 37.4131C67.7045 38.7608 68.8001 39.8563 70.1477 39.8563C71.4954 39.8563 72.5909 38.7608 72.5909 37.4131C72.5901 36.8989 72.4274 36.3981 72.1259 35.9816C71.8243 35.5652 71.3992 35.2543 70.911 35.0931V31.3501C70.9107 31.1479 70.8302 30.954 70.6871 30.811C70.544 30.6681 70.35 30.5878 70.1477 30.5878H61.7227C62.8832 29.2626 63.8102 27.7497 64.4639 26.1139H67.8277C67.989 26.602 68.3 27.0268 68.7165 27.3282C69.1329 27.6296 69.6337 27.7921 70.1477 27.7928C71.4954 27.7928 72.5909 26.6973 72.5909 25.3497C72.5909 24.003 71.4954 22.9065 70.1477 22.9065C69.6336 22.9072 69.1327 23.07 68.7162 23.3715C68.2998 23.6731 67.9889 24.0982 67.8277 24.5864H64.9877C65.3943 23.1742 65.6063 21.7035 65.6063 20.218L65.6073 16.0353ZM70.1477 14.3553C70.3855 14.3631 70.611 14.463 70.7765 14.634C70.942 14.805 71.0345 15.0336 71.0345 15.2715C71.0345 15.5095 70.942 15.7381 70.7765 15.9091C70.611 16.08 70.3855 16.18 70.1477 16.1877C69.9137 16.1745 69.6936 16.0722 69.5326 15.9018C69.3716 15.7314 69.2819 15.5059 69.2819 15.2715C69.2819 15.0371 69.3716 14.8116 69.5326 14.6412C69.6936 14.4709 69.9137 14.3686 70.1477 14.3553ZM70.1477 2.29188C70.3818 2.30512 70.6018 2.40742 70.7628 2.57779C70.9238 2.74815 71.0135 2.97367 71.0135 3.20807C71.0135 3.44248 70.9238 3.66799 70.7628 3.83836C70.6018 4.00873 70.3818 4.11102 70.1477 4.12427C69.9152 4.10907 69.6972 4.00598 69.5379 3.83592C69.3786 3.66587 69.2899 3.44158 69.2899 3.20856C69.2899 2.97555 69.3786 2.75126 69.5379 2.5812C69.6972 2.41114 69.9152 2.30708 70.1477 2.29188ZM35.9432 2.29188C36.1772 2.30512 36.3973 2.40742 36.5583 2.57779C36.7193 2.74815 36.809 2.97367 36.809 3.20807C36.809 3.44248 36.7193 3.66799 36.5583 3.83836C36.3973 4.00873 36.1772 4.11102 35.9432 4.12427C35.7107 4.10907 35.4926 4.00598 35.3333 3.83592C35.174 3.66587 35.0854 3.44158 35.0854 3.20856C35.0854 2.97555 35.174 2.75126 35.3333 2.5812C35.4926 2.41114 35.7107 2.30708 35.9432 2.29188ZM35.9432 16.1887C35.7074 16.1778 35.4849 16.0765 35.3218 15.9058C35.1588 15.735 35.0679 15.5081 35.0679 15.272C35.0679 15.036 35.1588 14.809 35.3218 14.6383C35.4849 14.4676 35.7074 14.3662 35.9432 14.3553C36.1772 14.3686 36.3973 14.4709 36.5583 14.6412C36.7193 14.8116 36.809 15.0371 36.809 15.2715C36.809 15.5059 36.7193 15.7314 36.5583 15.9018C36.3973 16.0722 36.1772 16.1755 35.9432 16.1887ZM35.9432 26.2663C35.7092 26.2531 35.4891 26.1508 35.3281 25.9804C35.1671 25.8101 35.0774 25.5845 35.0774 25.3501C35.0774 25.1157 35.1671 24.8902 35.3281 24.7199C35.4891 24.5495 35.7092 24.4472 35.9432 24.434C36.1772 24.4472 36.3973 24.5495 36.5583 24.7199C36.7193 24.8902 36.809 25.1157 36.809 25.3501C36.809 25.5845 36.7193 25.8101 36.5583 25.9804C36.3973 26.1508 36.1772 26.2531 35.9432 26.2663ZM35.9432 38.3288C35.7107 38.3136 35.4926 38.2105 35.3333 38.0405C35.174 37.8704 35.0854 37.6461 35.0854 37.4131C35.0854 37.1801 35.174 36.9558 35.3333 36.7857C35.4926 36.6157 35.7107 36.5126 35.9432 36.4974C36.1757 36.5126 36.3937 36.6157 36.553 36.7857C36.7123 36.9558 36.801 37.1801 36.801 37.4131C36.801 37.6461 36.7123 37.8704 36.553 38.0405C36.3937 38.2105 36.1757 38.3136 35.9432 38.3288ZM70.1477 38.3288C69.9122 38.3179 69.6899 38.2167 69.5271 38.0462C69.3642 37.8756 69.2734 37.6489 69.2734 37.4131C69.2734 37.1773 69.3642 36.9506 69.5271 36.7801C69.6899 36.6095 69.9122 36.5083 70.1477 36.4974C70.3833 36.5083 70.6056 36.6095 70.7684 36.7801C70.9312 36.9506 71.0221 37.1773 71.0221 37.4131C71.0221 37.6489 70.9312 37.8756 70.7684 38.0462C70.6056 38.2167 70.3833 38.3179 70.1477 38.3288ZM70.1477 24.434C70.3855 24.4417 70.611 24.5416 70.7765 24.7126C70.942 24.8836 71.0345 25.1122 71.0345 25.3501C71.0345 25.5881 70.942 25.8167 70.7765 25.9877C70.611 26.1586 70.3855 26.2586 70.1477 26.2663C69.9137 26.2531 69.6936 26.1508 69.5326 25.9804C69.3716 25.8101 69.2819 25.5845 69.2819 25.3501C69.2819 25.1157 69.3716 24.8902 69.5326 24.7199C69.6936 24.5495 69.9137 24.4472 70.1477 24.434ZM53.0455 34.0806C46.5398 32.5912 42.0111 26.9143 42.0111 20.217V12.5132C46.0027 11.8399 49.7815 10.2421 53.0455 7.84768C56.3093 10.2425 60.0881 11.8405 64.0798 12.5142V20.218C64.0798 26.9152 59.5512 32.5912 53.0455 34.0806Z" fill="white"/>
<path d="M53.0454 11.5339C48.206 11.5339 44.2695 15.4714 44.2695 20.3108C44.2695 23.7274 46.2749 26.8586 49.3787 28.2873C49.4698 28.3298 49.5683 28.3538 49.6687 28.3579C49.769 28.3621 49.8692 28.3463 49.9635 28.3115C50.0577 28.2767 50.1441 28.2235 50.2177 28.1551C50.2913 28.0868 50.3506 28.0045 50.3921 27.913C50.4342 27.8219 50.4579 27.7234 50.4618 27.6232C50.4658 27.5229 50.4499 27.4228 50.4151 27.3287C50.3804 27.2346 50.3274 27.1482 50.2592 27.0746C50.1911 27.001 50.109 26.9415 50.0178 26.8996C48.7595 26.3178 47.6935 25.3885 46.9456 24.2212C46.1976 23.0539 45.7988 21.6972 45.796 20.3108C45.796 16.3138 49.0484 13.0614 53.0464 13.0614C57.0435 13.0614 60.2958 16.3128 60.2958 20.3108C60.2958 23.1254 58.6442 25.7093 56.0896 26.8928C55.9059 26.9779 55.7635 27.1326 55.6937 27.3227C55.624 27.5128 55.6327 27.7229 55.7178 27.9067C55.8029 28.0904 55.9576 28.2329 56.1477 28.3026C56.3379 28.3723 56.5479 28.3637 56.7317 28.2785C58.2499 27.5717 59.5352 26.4468 60.437 25.0356C61.3388 23.6245 61.8197 21.9855 61.8233 20.3108C61.8233 15.4714 57.8849 11.5339 53.0454 11.5339Z" fill="white"/>
<path d="M53.0454 14.5879C52.2559 14.5887 51.499 14.9026 50.9407 15.4609C50.3825 16.0192 50.0685 16.7761 50.0677 17.5656V17.9829C49.6624 17.9858 49.2746 18.1486 48.9887 18.4359C48.7028 18.7233 48.542 19.1119 48.5412 19.5173V21.5295C48.5428 22.7236 49.0178 23.8684 49.8622 24.7127C50.7066 25.5571 51.8513 26.0322 53.0454 26.0337C54.2399 26.0324 55.3851 25.5573 56.2297 24.7127C57.0743 23.8681 57.5494 22.7229 57.5507 21.5285V19.5173C57.5507 18.6739 56.8666 17.9878 56.0232 17.9829V17.5656C56.0224 16.7761 55.7084 16.0192 55.1502 15.4609C54.5919 14.9026 53.835 14.5887 53.0454 14.5879ZM53.0454 16.1154C53.8458 16.1154 54.4957 16.7653 54.4957 17.5656V17.9829H51.5952V17.5656C51.5952 16.7653 52.2451 16.1154 53.0454 16.1154ZM56.0232 21.5295C56.0222 22.3188 55.7081 23.0755 55.1498 23.6336C54.5916 24.1916 53.8348 24.5055 53.0454 24.5062C52.2561 24.5055 51.4993 24.1916 50.9411 23.6336C50.3828 23.0755 50.0687 22.3188 50.0677 21.5295V19.5173C50.0677 19.5133 50.0716 19.5094 50.0765 19.5094H56.0144C56.0193 19.5094 56.0232 19.5133 56.0232 19.5173V21.5295Z" fill="white"/>
<path d="M53.0454 20.7349C52.9451 20.7349 52.8458 20.7546 52.7531 20.7931C52.6605 20.8315 52.5763 20.8878 52.5054 20.9588C52.4345 21.0297 52.3783 21.114 52.34 21.2067C52.3017 21.2994 52.2821 21.3988 52.2822 21.4991V22.2076C52.2822 22.41 52.3626 22.6042 52.5057 22.7473C52.6489 22.8904 52.843 22.9709 53.0454 22.9709C53.2479 22.9709 53.442 22.8904 53.5851 22.7473C53.7283 22.6042 53.8087 22.41 53.8087 22.2076V21.4991C53.8088 21.3988 53.7892 21.2994 53.7509 21.2067C53.7126 21.114 53.6564 21.0297 53.5855 20.9588C53.5146 20.8878 53.4304 20.8315 53.3378 20.7931C53.2451 20.7546 53.1458 20.7349 53.0454 20.7349ZM53.0454 27.5582C52.8432 27.5582 52.6492 27.6385 52.5061 27.7814C52.363 27.9243 52.2825 28.1182 52.2822 28.3205V28.3244C52.2822 28.7456 52.6242 29.0866 53.0454 29.0866C53.2481 29.0866 53.4425 29.0061 53.5858 28.8628C53.7292 28.7195 53.8097 28.5251 53.8097 28.3224C53.8097 28.1197 53.7292 27.9253 53.5858 27.782C53.4425 27.6387 53.2481 27.5582 53.0454 27.5582Z" fill="white"/>
</g>
<defs>
<clipPath id="clip0_62_62">
<rect width="110" height="43" fill="white" transform="translate(0 0.765381)"/>
</clipPath>
</defs>
</svg>
