<svg width="214" height="58" viewBox="0 0 214 58" fill="none" xmlns="http://www.w3.org/2000/svg">
<path d="M21.3224 35.083C19.6786 34.2597 18.3481 33.0622 17.4088 31.4905C16.4696 29.9935 16 28.2721 16 26.3262C16 24.3801 16.4696 22.6587 17.4088 21.1619C18.3481 19.6649 19.6786 18.4674 21.3224 17.5692C22.9661 16.7459 24.8447 16.2969 26.958 16.2969C28.68 16.2969 30.3237 16.5962 31.7327 17.195C33.1415 17.7938 34.3156 18.6171 35.3331 19.7397L32.3588 22.3594C31.0282 20.8625 29.3062 20.1139 27.2712 20.1139C26.0187 20.1139 24.9229 20.4133 23.9054 20.9372C22.8879 21.4611 22.1834 22.2097 21.6356 23.1078C21.0876 24.0808 20.7746 25.1286 20.7746 26.3262C20.7746 27.5237 21.0876 28.5715 21.6356 29.5445C22.1834 30.5174 22.9661 31.191 23.9054 31.7149C24.9229 32.2388 26.0187 32.5383 27.2712 32.5383C29.3062 32.5383 31.0282 31.7899 32.3588 30.218L35.3331 32.8377C34.3938 33.9603 33.1415 34.7836 31.7327 35.3824C30.3237 35.9811 28.68 36.2805 26.958 36.2805C24.9229 36.3553 23.0444 35.9064 21.3224 35.083Z" fill="white"/>
<path d="M43.942 21.4536C44.8813 21.0794 45.8988 20.9297 47.0729 20.9297V24.8965C46.6033 24.8965 46.212 24.8217 46.0553 24.8217C44.7248 24.8217 43.7855 25.1959 43.0028 25.8695C42.2983 26.5431 41.907 27.5909 41.907 29.0129V36.0484H37.3672V21.1542H41.6722V23.1001C42.2983 22.3517 43.0028 21.8278 43.942 21.4536Z" fill="white"/>
<path d="M65.0024 21.1562L57.9579 36.9486C57.2535 38.6701 56.3925 39.8675 55.2966 40.5411C54.279 41.2147 52.9485 41.589 51.4613 41.589C50.6785 41.589 49.8175 41.4392 49.0349 41.2147C48.2522 40.9902 47.6259 40.6159 47.0781 40.2417L48.7217 37.173C49.0349 37.4725 49.5045 37.6969 49.8959 37.8467C50.3655 37.9964 50.8352 38.0714 51.2265 38.0714C51.8527 38.0714 52.3223 37.9216 52.7137 37.6222C53.105 37.3227 53.418 36.8738 53.7312 36.2002L54.0443 36.1252L47.3129 21.1562H51.931L56.3141 31.2603L60.6974 21.1562H65.0024Z" fill="white"/>
<path d="M79.3216 21.8278C80.4956 22.5014 81.4349 23.3247 82.1394 24.5223C82.8439 25.6449 83.1569 26.9921 83.1569 28.5638C83.1569 30.1357 82.8439 31.408 82.1394 32.6055C81.4349 33.7283 80.5739 34.6264 79.3216 35.3C78.1476 35.8987 76.8168 36.2729 75.408 36.2729C73.4512 36.2729 71.8857 35.6742 70.7117 34.4766V41.3624H66.1719V21.1542H70.4769V22.8756C71.5727 21.6033 73.2164 20.9297 75.3297 20.9297C76.8168 20.9297 78.0693 21.2291 79.3216 21.8278ZM77.4431 31.5577C78.1475 30.8091 78.5388 29.8363 78.5388 28.5638C78.5388 27.2915 78.1475 26.3185 77.4431 25.5701C76.7386 24.8217 75.721 24.4473 74.6253 24.4473C73.4512 24.4473 72.512 24.8217 71.8075 25.5701C71.103 26.3185 70.7117 27.2915 70.7117 28.5638C70.7117 29.8363 71.103 30.8091 71.8075 31.5577C72.512 32.3061 73.5295 32.6803 74.6253 32.6803C75.721 32.6803 76.6603 32.3061 77.4431 31.5577Z" fill="white"/>
<path d="M95.4441 35.3061C94.9746 35.6055 94.4266 35.83 93.8005 35.9797C93.1743 36.1294 92.4698 36.2043 91.7655 36.2043C89.8869 36.2043 88.478 35.7552 87.4605 34.8571C86.4429 33.9588 85.9734 32.6117 85.9734 30.8902V24.753H83.5469V21.4597H85.9734V17.8672H90.513V21.4597H94.3483V24.753H90.513V30.8154C90.513 31.4142 90.6695 31.9381 90.9827 32.2374C91.2958 32.6117 91.7655 32.7613 92.3915 32.7613C93.096 32.7613 93.7223 32.6117 94.1918 32.2374L95.4441 35.3061Z" fill="white"/>
<path d="M99.7501 35.225C98.4194 34.5514 97.4018 33.6533 96.6973 32.5307C95.993 31.3332 95.6016 30.0607 95.6016 28.5638C95.6016 27.067 95.993 25.7946 96.6973 24.597C97.4018 23.3995 98.4194 22.5014 99.7501 21.9027C101.081 21.2291 102.49 20.9297 104.133 20.9297C105.777 20.9297 107.264 21.2291 108.516 21.9027C109.847 22.5762 110.786 23.4744 111.569 24.597C112.273 25.7946 112.664 27.067 112.664 28.5638C112.664 30.0607 112.273 31.3332 111.569 32.5307C110.865 33.7283 109.847 34.6264 108.516 35.225C107.264 35.8987 105.777 36.1981 104.133 36.1981C102.49 36.1981 101.002 35.8987 99.7501 35.225ZM106.951 31.5577C107.655 30.8093 108.047 29.8363 108.047 28.5638C108.047 27.2915 107.655 26.3185 106.951 25.5701C106.247 24.8217 105.229 24.4473 104.133 24.4473C102.959 24.4473 102.02 24.8217 101.237 25.5701C100.454 26.3185 100.141 27.2915 100.141 28.5638C100.141 29.8363 100.533 30.8093 101.237 31.5577C102.02 32.3061 102.959 32.6803 104.133 32.6803C105.307 32.6803 106.247 32.3061 106.951 31.5577Z" fill="white"/>
<path d="M139.284 16.6641V36.0489H135.45L125.351 24.2983V36.0489H120.734V16.6641H124.569L134.667 28.4148V16.6641H139.284Z" fill="white"/>
<path d="M158.227 29.7784H146.485C146.721 30.6765 147.19 31.4249 147.973 31.9488C148.756 32.4727 149.772 32.7721 150.948 32.7721C151.73 32.7721 152.513 32.6224 153.138 32.3979C153.765 32.1734 154.312 31.7991 154.861 31.2752L157.287 33.7451C155.8 35.3169 153.687 36.1402 150.869 36.1402C149.147 36.1402 147.582 35.8408 146.251 35.1672C144.92 34.4935 143.824 33.5954 143.12 32.4727C142.415 31.2752 142.023 30.0029 142.023 28.5059C142.023 27.0839 142.415 25.7367 143.12 24.5392C143.824 23.3416 144.841 22.4435 146.094 21.7699C147.346 21.0963 148.756 20.7969 150.321 20.7969C151.807 20.7969 153.217 21.0963 154.469 21.7699C155.722 22.3686 156.662 23.2669 157.366 24.4644C158.07 25.6619 158.382 27.009 158.382 28.5059C158.305 28.7304 158.305 29.1048 158.227 29.7784ZM147.66 24.9883C146.955 25.5122 146.563 26.2606 146.408 27.2336H154.078C153.921 26.2606 153.53 25.5122 152.826 24.9883C152.122 24.4644 151.261 24.165 150.242 24.165C149.225 24.165 148.364 24.4644 147.66 24.9883Z" fill="white"/>
<path d="M185.301 21.1562L179.665 36.0504H175.36L171.837 26.8444L168.237 36.0504H163.933L158.219 21.1562H162.444L166.123 31.1854L169.959 21.1562H173.795L177.474 31.1854L181.23 21.1562H185.301Z" fill="white"/>
<path d="M187.887 35.7489C186.635 35.4497 185.697 35.0753 184.914 34.6264L186.401 31.5577C187.105 32.0067 187.966 32.3061 188.906 32.6055C189.922 32.9049 190.862 32.9797 191.802 32.9797C193.68 32.9797 194.698 32.5307 194.698 31.6325C194.698 31.1835 194.462 30.8841 193.915 30.7344C193.367 30.5847 192.584 30.3602 191.488 30.2852C190.237 30.1357 189.14 29.911 188.357 29.6118C187.496 29.3871 186.792 28.9382 186.165 28.3393C185.539 27.7406 185.227 26.8424 185.227 25.7198C185.227 24.7467 185.539 23.9234 186.088 23.2498C186.635 22.5762 187.496 21.9775 188.593 21.5284C189.688 21.1542 190.941 20.9297 192.427 20.9297C193.523 20.9297 194.619 21.0794 195.715 21.3039C196.81 21.5284 197.671 21.8278 198.454 22.2769L196.967 25.3456C195.636 24.597 194.071 24.2228 192.506 24.2228C191.566 24.2228 190.783 24.3725 190.314 24.597C189.844 24.8217 189.61 25.1959 189.61 25.5701C189.61 26.0192 189.844 26.3185 190.392 26.5431C190.941 26.6927 191.723 26.9173 192.897 27.067C194.15 27.2915 195.245 27.516 196.027 27.7406C196.81 27.9651 197.516 28.4142 198.141 29.0129C198.768 29.6118 199.002 30.4349 199.002 31.5577C199.002 32.4558 198.69 33.2791 198.141 34.0275C197.593 34.7761 196.733 35.3 195.636 35.6742C194.541 36.0484 193.21 36.2729 191.723 36.2729C190.392 36.1981 189.14 36.0484 187.887 35.7489Z" fill="white"/>
</svg>
