<svg width="279" height="201" viewBox="0 0 279 201" fill="none" xmlns="http://www.w3.org/2000/svg">
<mask id="mask0_62_290" style="mask-type:alpha" maskUnits="userSpaceOnUse" x="0" y="0" width="279" height="201">
<rect x="0.792419" width="278.069" height="200.632" rx="17.5993" fill="white"/>
</mask>
<g mask="url(#mask0_62_290)">
<g filter="url(#filter0_f_62_290)">
<circle cx="122.227" cy="75.6769" r="56.9043" fill="#07DBB4" fill-opacity="0.3"/>
</g>
</g>
<g clip-path="url(#clip0_62_290)">
<g opacity="0.3">
<path opacity="0.7" d="M143.546 75.5596L82.5938 110.758V73.0722L143.546 37.8854V75.5596Z" fill="#CFE9FF"/>
<path d="M82.5938 70.3854V76.6742L143.546 41.4874V35.1986L82.5938 70.3854Z" fill="#07DBB4"/>
</g>
<g opacity="0.5">
<path opacity="0.7" d="M150.539 79.5958L89.5866 114.794V77.1085L150.539 41.9216V79.5958Z" fill="#CFE9FF"/>
<path d="M89.5866 74.4216V80.7104L150.539 45.5236V39.2347L89.5866 74.4216Z" fill="#07DBB4"/>
</g>
<path opacity="0.9" d="M157.532 83.6436L96.5794 118.83V81.1445L157.532 45.9576V83.6436Z" fill="#95ACF4"/>
<path d="M96.5794 78.4694V84.7465L157.532 49.5597V43.2709L96.5794 78.4694Z" fill="#07DBB4"/>
<path d="M149.483 51.7302L147.207 53.0443C147.054 53.1264 146.937 53.0443 146.937 52.9269V50.6508C146.945 50.564 146.974 50.4805 147.021 50.4071C147.068 50.3337 147.132 50.2724 147.207 50.2284L149.483 48.9143C149.635 48.8204 149.753 48.9143 149.753 49.0316V51.3078C149.744 51.3945 149.715 51.478 149.669 51.5514C149.622 51.6248 149.558 51.6861 149.483 51.7302V51.7302Z" fill="#455CBA"/>
<path d="M152.979 49.7122L150.703 51.0263C150.55 51.1201 150.433 51.0263 150.433 50.9089V48.6328C150.442 48.546 150.47 48.4626 150.517 48.3891C150.564 48.3157 150.628 48.2545 150.703 48.2104L152.979 46.9315C153.12 46.8376 153.249 46.9315 153.249 47.0488V49.2781C153.24 49.3661 153.211 49.4509 153.164 49.5261C153.117 49.6012 153.054 49.6649 152.979 49.7122V49.7122Z" fill="#455CBA"/>
<path d="M150.879 48.8204V50.2049C150.879 50.3574 150.996 50.4161 151.149 50.3222L152.533 49.5244C152.607 49.4783 152.669 49.4165 152.716 49.3434C152.762 49.2704 152.792 49.1879 152.803 49.102V47.7175C152.803 47.565 152.674 47.518 152.533 47.6002L151.149 48.398C151.074 48.4421 151.01 48.5033 150.963 48.5768C150.916 48.6502 150.887 48.7337 150.879 48.8204V48.8204ZM152.193 49.3836L151.477 49.8059C151.325 49.8881 151.208 49.8059 151.208 49.6886V48.9612C151.216 48.8745 151.245 48.791 151.292 48.7176C151.339 48.6441 151.402 48.5829 151.477 48.5388L152.146 48.1047C152.299 48.0226 152.428 48.1047 152.428 48.222V48.9494C152.419 49.039 152.389 49.1252 152.34 49.2008C152.291 49.2763 152.224 49.339 152.146 49.3836H152.193Z" fill="#FFFFF7"/>
<path d="M156.464 47.694L154.188 49.0081C154.047 49.102 153.918 49.0081 153.918 48.8908V46.6146C153.929 46.5287 153.959 46.4462 154.005 46.3732C154.052 46.3001 154.114 46.2383 154.188 46.1922L156.464 44.8782C156.616 44.796 156.745 44.8782 156.745 44.9955V47.2717C156.736 47.3595 156.705 47.4437 156.656 47.5172C156.607 47.5907 156.541 47.6513 156.464 47.694V47.694Z" fill="#455CBA"/>
<path d="M154.493 46.8259L155.115 47.084C155.115 47.084 155.115 47.084 155.115 47.1896L154.493 48.1752C154.493 48.1752 154.493 48.1752 154.493 48.2456L154.657 48.316H154.727L155.349 47.3187C155.349 47.3187 155.42 47.2483 155.455 47.26L156.077 47.5299C156.099 47.5379 156.124 47.5379 156.147 47.5299L156.311 47.26V47.2013L155.666 46.9315C155.666 46.9315 155.666 46.8611 155.666 46.8259L156.253 45.7582L156.088 45.6878C156.066 45.6797 156.041 45.6797 156.018 45.6878L155.396 46.6734C155.396 46.6734 155.314 46.7555 155.291 46.7438L154.669 46.4739C154.669 46.4739 154.669 46.4739 154.598 46.4739L154.493 46.7555C154.493 46.7555 154.422 46.8142 154.493 46.8259Z" fill="#FFFFF7"/>
<path d="M147.453 52.1761V52.4108C147.453 52.4108 147.453 52.4812 147.535 52.4108L149.295 51.4017C149.32 51.386 149.341 51.3654 149.357 51.3411C149.373 51.3169 149.384 51.2896 149.389 51.2609V51.0263C149.389 51.0263 149.389 50.9559 149.295 51.0263L147.535 52.0353C147.512 52.0517 147.493 52.0727 147.479 52.0969C147.465 52.1212 147.456 52.1482 147.453 52.1761V52.1761Z" fill="#FFFFF7"/>
<path d="M104.159 85.0867L105.895 84.0894V84.4766L104.159 85.4739V85.0867ZM101.941 89.6508L99.2427 91.2112V91.6219L102.434 89.7798L103.549 89.1345V88.7239L101.941 89.6508V89.6508ZM104.288 87.0461V86.6354L102.927 87.4098L102.047 87.926V88.3367L102.927 87.8204L104.288 87.0461ZM101.46 88.2898L99.2427 89.5686V89.9793L101.46 88.7004V88.2898ZM102.634 86.4008L103.56 85.8728V85.4504L101.965 86.3773L99.2897 87.926V88.3367L102.634 86.4008ZM100.005 86.2834L102.188 85.028V84.6056L100.005 85.8728L99.3014 86.2717V86.6941L100.005 86.2834ZM104.37 83.7726L105.062 83.362V82.9513L104.135 83.4793L102.821 84.2419V84.6526L104.37 83.7726V83.7726ZM105.942 87.3629L104.217 88.3602V88.7708L105.942 87.7735V87.3629ZM102.563 95.2356L99.2779 97.1246V97.547L102.563 95.6463V95.2356ZM99.3131 98.7555V99.1661L99.9702 98.7789L102.727 97.195V96.7726L100.381 98.1336L99.3131 98.7555ZM105.942 90.0028L103.596 91.3755L102.012 92.2907V92.6896L103.596 91.7627L105.942 90.3899V90.0028ZM105.602 95.1183L105.004 95.4585L103.361 96.4089V96.8195L104.675 96.0686L105.602 95.5289V95.1183ZM101.249 94.3556L99.2897 95.5289V95.9396L101.249 94.7663L103.431 93.5109V93.1002L101.249 94.3556ZM104.041 92.6896V93.112L105.215 92.4432V92.0325L104.041 92.6896ZM103.173 95.2473L105.25 94.0741V93.6517L103.173 94.825V95.2473ZM99.2545 94.2266L101.319 93.0533V92.6896L99.2545 93.8629V94.2266ZM105.215 99.389L103.15 100.562V100.985L105.215 99.8114V99.389ZM104.828 103.308L106.001 102.651V102.228L104.828 102.897V103.308ZM101.777 105.079L104.124 103.73V103.32L101.777 104.657V105.079ZM105.52 100.903L103.467 102.076V102.487L105.52 101.313V100.903ZM99.2779 101.642L100.134 101.149L102.692 99.6706V99.26L100.346 100.609L99.2779 101.231V101.642ZM102.798 102.451L100.17 103.977L99.231 104.516V104.927L100.522 104.176L102.868 102.838L102.798 102.451ZM99.2779 103.284L100.815 102.393L102.551 101.395V100.985L100.052 102.428L99.2779 102.874V103.284ZM99.2779 106.57L101.214 105.396V104.986L99.2779 106.159V106.57ZM105.59 97.5939L104.828 98.0398L104.663 98.1336L103.349 98.8963V99.3069L104.64 98.556L104.804 98.4621L105.567 98.0163L105.59 97.5939ZM104.124 105.537L102.81 106.3V106.71L104.358 105.819L105.051 105.42V104.997L104.124 105.537V105.537ZM102.176 106.71L99.9702 107.942L99.2662 108.353V108.764L99.9702 108.353L102.152 107.098L102.176 106.71ZM101.319 108.846L99.2779 110.019V110.441L101.319 109.268V108.846ZM104.159 107.121L101.93 108.412V108.822L104.276 107.438L105.837 106.534V106.124L104.1 107.121H104.159ZM101.941 112.096L104.018 110.922V110.5L101.941 111.673V112.096ZM99.2427 113.644L101.308 112.471V112.049L99.2427 113.222V113.644ZM103.408 109.198L102.094 109.96V110.371L103.408 109.608L104.335 109.069V108.658L103.408 109.198V109.198ZM99.2427 112.014L101.46 110.735V110.289L99.2427 111.568V112.014ZM111.081 84.3944L109.474 85.3331V85.7437L111.081 84.8168V84.3944ZM111.081 79.4901L110.119 80.0533V80.4639L111.081 79.9125V79.4901ZM109.486 80.417L108.641 80.8981V81.3204L109.486 80.8394V80.417ZM111.105 81.121L109.509 82.0479V82.4585L111.081 81.5434L111.105 81.121ZM108.758 84.1481L108.078 84.5352V84.9459L108.758 84.5587V84.1481ZM109.392 84.1481L111.081 83.1742V82.7518L109.31 83.7726L109.392 84.1481ZM111.128 91.9269L109.626 92.7952V93.2058L111.128 92.3376V91.9269ZM111.081 90.343L108.242 91.9856V92.3963L111.081 90.7302V90.343ZM108.922 93.2293L108.089 93.7103V94.1327L108.922 93.6517V93.2293ZM108.805 90.343L111.081 89.0993V88.6887L108.852 89.9676L108.805 90.343ZM109.427 88.3484L111.081 87.4567V87.0461L109.427 87.9964V88.3484ZM108.042 96.5614L108.875 96.0804V95.6697L108.042 96.1508V96.5614ZM109.509 95.7167L111.011 94.8484V94.4378L109.509 95.2943V95.7167ZM109.333 99.084L111.081 98.1219V97.6995L109.392 98.6733L109.333 99.084ZM109.051 97.6174L111.011 96.4441V96.0334L109.051 97.2067V97.6174ZM108.418 97.6174L107.62 98.075V98.4856L108.418 98.028V97.6174ZM111.081 99.3421L108.735 100.691V101.102L111.081 99.7293V99.3421ZM108.735 99.037L107.937 99.5064V99.917L108.735 99.4594V99.037ZM109.31 106.218L111.081 105.197V104.786L109.31 105.807V106.218ZM107.995 106.98L108.676 106.581V106.171L107.995 106.57V106.98ZM108.606 103.343L109.45 102.862V102.451L108.606 102.932V103.343ZM111.069 103.155L109.474 104.07V104.481L111.081 103.566L111.069 103.155ZM111.069 101.982V101.571L110.107 102.135V102.545L111.069 101.982ZM109.486 107.848L111.081 106.839V106.429L109.474 107.356L109.486 107.848ZM118.872 77.1435L120.467 76.0641V75.6535L118.731 76.6508L118.872 77.1435ZM116.654 81.297L113.956 82.8457V83.2564L117.147 81.4143L118.25 80.7807V80.3701L116.654 81.297ZM119.001 78.6923V78.2699L117.652 79.056L116.76 79.5722V79.9829L117.652 79.4667L119.001 78.6923ZM116.126 79.936L113.921 81.2148V81.6255L116.126 80.3466V79.936ZM117.3 78.047L118.121 77.4369V77.0262L116.525 77.9531L113.85 79.5018V79.9125L117.194 77.9766L117.3 78.047ZM114.601 77.8475L116.783 76.5804V76.1697L114.601 77.4369L113.897 77.8475V78.2582L114.601 77.8593V77.8475ZM118.942 75.325L119.646 74.926V74.5154L118.719 75.0434L117.405 75.806V76.2636L118.942 75.3719V75.325ZM120.526 78.9152L118.801 79.9242V80.3349L120.526 79.3376V78.9152ZM117.147 86.8231L113.862 88.7239V89.1345L117.147 87.2455V86.8231ZM113.897 90.343V90.7654L114.601 90.343L117.358 88.7473V88.3367L115.012 89.6977L113.897 90.343ZM120.526 81.602L118.18 82.9748L116.596 83.8899V84.3006L118.121 83.3033L120.467 81.9306L120.526 81.602ZM119.165 87.3042L118.578 87.6445L117.945 88.0082V88.4188L118.238 88.2428L119.165 87.7148V87.3042ZM115.833 85.9549L113.862 87.1282V87.5389L115.833 86.3656L118.015 85.0984V84.6878L115.833 85.9549ZM118.649 84.3241V84.7347L119.822 84.0777V83.6553L118.649 84.3241ZM117.781 86.8231L119.857 85.6499V85.2392L117.781 86.4125V86.8231ZM113.862 85.8141L115.927 84.6408V84.2302L113.862 85.4035V85.8141ZM119.47 91.176L117.792 92.1381V92.5488L119.47 91.5867V91.176ZM116.431 96.6201L118.778 95.2825V94.8719L116.431 96.2094V96.6201ZM113.897 93.1824L114.754 92.6778L117.311 91.2112V90.7889L114.965 92.1499L113.897 92.7717V93.1824ZM117.417 93.9919L114.812 95.5055L113.885 96.0452V96.4676L115.141 95.7401L117.487 94.4026L117.417 93.9919ZM113.897 94.825L115.434 93.9333L117.171 92.936V92.5136L114.671 93.9685L113.897 94.4143V94.825ZM113.897 98.1102L115.774 96.9955V96.5732L113.838 97.6878L113.897 98.1102ZM119.764 89.3692L119.412 89.5686L119.247 89.6625L117.933 90.4251V90.8358L118.837 90.3195L119.013 90.2139L119.764 89.7798V89.3692ZM118.708 97.0777L117.393 97.8286V98.2509L118.942 97.3827L119.646 96.9721V96.5614L118.719 97.1011L118.708 97.0777ZM116.76 98.2509L114.601 99.4594L113.897 99.8701V100.281L114.601 99.8701L116.783 98.6147L116.76 98.2509ZM115.903 100.386L113.862 101.56V101.97L115.903 100.797V100.386ZM118.766 98.7203L116.537 100.011V100.433L118.884 99.037L120.467 98.0867V97.676L118.731 98.6733L118.766 98.7203ZM116.549 103.695L118.625 102.522V102.076L116.549 103.249V103.695ZM113.85 105.255L115.915 104.082V103.601L113.85 104.774V105.255ZM118.015 100.797L116.689 101.56V101.97L118.015 101.219L118.93 100.68V100.269L118.015 100.797ZM113.85 103.625L116.056 102.346V101.923L113.85 103.202V103.625ZM125.653 75.9585L124.046 76.8854V77.3078L125.653 76.3692V75.9585ZM125.653 71.0542L124.691 71.6174V72.028L125.653 71.4648V71.0542ZM123.987 71.9811L123.154 72.4621V72.8728L123.987 72.3917V71.9811ZM125.618 72.6851L124.023 73.6002V74.0226L125.618 73.0957V72.6851ZM123.272 75.7004L122.591 76.0993V76.51L123.272 76.1111V75.7004ZM123.905 75.7004L125.677 74.6796V74.269L123.905 75.2898V75.7004ZM133.784 68.0506L135.521 67.0416V67.4639L133.784 68.4612V68.0506ZM131.567 72.6029L128.868 74.1634V74.5741L132.06 72.732L133.162 72.0984V71.5704L131.567 72.4973V72.6029ZM133.913 69.9982V69.5876L132.564 70.3737L131.672 70.8782V71.3006L132.564 70.7843L133.913 69.9982ZM131.027 71.195L128.81 72.4739V72.8845L131.027 71.5704V71.195ZM132.2 69.306L133.127 68.7663V68.3556L131.532 69.2825L128.856 70.8195V71.2302L132.2 69.306ZM129.596 69.2239L131.778 67.9685V67.5578L129.596 68.8132L128.892 69.2239V69.6345L129.596 69.2239ZM133.949 66.713L134.652 66.3024V65.8917L133.726 66.4315L132.412 67.1824V67.6047L133.949 66.713V66.713ZM135.532 70.3033L133.796 71.3006V71.7112L135.532 70.7139V70.3033ZM140.66 67.3466L139.041 68.2735V68.6842L140.66 67.7573V67.3466ZM140.66 62.4423L139.686 62.9937V63.3574L140.66 62.7943V62.4423ZM139.029 63.3574L138.196 63.8385V64.2491L139.029 63.7681V63.3574ZM140.648 64.0614L139.064 64.9766V65.3872L140.648 64.4721V64.0614ZM138.301 67.0768L137.621 67.4639V67.8863L138.301 67.4874V67.0768ZM138.935 67.0768L140.707 66.056V65.704L138.935 66.7248V67.0768ZM140.671 74.8674L139.17 75.7239V76.1463L140.671 75.278V74.8674ZM140.671 73.213L137.82 74.8556V75.2663L140.66 73.6354L140.671 73.213ZM138.442 73.2717L140.671 71.9811V71.5704L138.442 72.8611V73.2717ZM139.052 71.2771L140.671 70.3385V69.9278L139.052 70.8665V71.2771ZM148.439 59.9432L150.175 58.9459V58.547L148.439 59.5443V59.9432ZM146.221 64.0966L143.487 65.704V66.1147L146.679 64.2726L147.782 63.6273V63.2166L146.186 64.1435L146.221 64.0966ZM148.568 61.4919V61.0813L147.218 61.8556L146.327 62.3719V62.7825L147.218 62.2663L148.568 61.4919ZM145.693 62.7473L143.476 64.0262V64.4369L145.693 63.158V62.7473ZM146.866 60.8583L147.793 60.3304V59.908L146.186 60.8349L143.511 62.3836V62.7943L146.866 60.8583V60.8583ZM144.238 60.741L146.397 59.4856V59.0632L144.215 60.3304L143.511 60.7293V61.1517L144.215 60.741H144.238ZM148.626 58.2302L149.33 57.8195V57.4089L148.403 57.9369L147.031 58.6643V59.075L148.626 58.2302ZM150.21 61.8204L148.474 62.8177V63.2284L150.152 62.1842L150.21 61.8204ZM146.773 69.6932L143.487 71.5704V71.9928L146.773 70.0921V69.6932ZM143.511 73.213V73.6237L144.18 73.2365L146.937 71.6526V71.2302L144.59 72.5912L143.511 73.213ZM150.152 64.4603L147.805 65.8331L146.221 66.7482V67.1706L147.805 66.2437L150.152 64.871V64.4603ZM149.8 69.5759L149.201 69.9161L147.559 70.8665V71.2771L148.873 70.5262L149.8 69.9865V69.5759ZM145.447 68.8132L143.476 69.9865V70.3972L145.447 69.2239L147.617 67.9685V67.5578L145.458 68.8132H145.447ZM148.251 67.1824V67.6047L149.424 66.936V66.5253L148.251 67.1824ZM147.453 69.7401L149.53 68.5668V68.1444L147.453 69.3177V69.7401ZM143.534 68.7194L145.599 67.5461V67.1354L143.534 68.3087V68.7194ZM149.541 73.8466L147.453 75.0903V75.5127L149.53 74.3394L149.541 73.8466ZM149.143 77.7654L150.316 77.1083V76.6977L149.143 77.3547V77.7654ZM146.092 79.537L148.439 78.1878V77.7771L146.092 79.1147V79.537ZM149.8 75.3367L147.758 76.51V76.9206L149.8 75.7473V75.3367ZM143.558 76.0759L144.426 75.5831L146.984 74.1047V73.6941L144.637 75.0434L143.558 75.6652V76.0759ZM147.078 76.8854L144.438 78.4107L143.499 78.9504V79.3611L144.766 78.6102L147.113 77.2726L147.078 76.8854ZM143.558 77.7185L145.106 76.8268L146.843 75.8295V75.4188L144.332 76.862L143.569 77.3078L143.558 77.7185ZM143.558 81.0037L145.482 79.889V79.4784L143.558 80.593V81.0037ZM149.8 72.028L149.037 72.4739L148.873 72.5677L147.559 73.3304V73.741L148.873 72.9784L149.037 72.8845L149.8 72.4387V72.028ZM148.333 79.9712L147.019 80.7338V81.1444L148.626 80.2528L149.33 79.8538V79.4315L148.403 79.9712H148.333ZM146.385 81.1444L144.203 82.3999L143.499 82.8105V83.2212L144.203 82.8105L146.385 81.5551V81.1444ZM145.517 83.2798L143.476 84.4531V84.8755L145.517 83.7022V83.2798ZM148.392 81.6255L146.151 82.9161V83.3033L148.497 81.9188L150.14 80.9567V80.5461L148.403 81.5434L148.392 81.6255ZM146.174 86.6002L148.239 85.4269V85.0046L146.174 86.1778V86.6002ZM143.476 88.149L145.541 86.9757V86.565L143.476 87.7383V88.149ZM147.629 83.7022L146.28 84.4766V84.8872L147.594 84.1246L148.521 83.5849V83.1742L147.594 83.7139L147.629 83.7022ZM155.267 58.899L153.648 59.8376V60.2482L155.267 59.3213V58.899ZM155.267 53.9946L154.293 54.5578V54.9685L155.267 54.417V53.9946ZM153.66 54.9215L152.827 55.4026V55.825L153.66 55.3439V54.9215ZM155.279 55.6255L153.695 56.5524V56.963L155.279 56.0479V55.6255ZM152.932 58.6526L152.252 59.0398V59.4504L152.932 59.0632V58.6526ZM153.566 58.6526L155.338 57.6318V57.2094L153.566 58.2302V58.6526ZM155.291 66.4315L153.801 67.2997V67.7103L155.244 66.8773L155.291 66.4315ZM155.291 64.7771L152.451 66.4197V66.8773L155.291 65.2347V64.7771ZM153.12 67.6634L152.287 68.1444V68.5668L153.12 68.0858V67.6634ZM153.12 64.8358L155.349 63.5569V63.1463L153.12 64.4251V64.8358ZM153.73 62.8412L155.349 61.9143V61.5037L153.73 62.4305V62.8412ZM152.346 71.0542L153.179 70.5731V70.1625L152.346 70.6435V71.0542ZM153.824 70.2094L155.314 69.3412V68.9305L153.824 69.787V70.2094ZM153.648 73.5768L155.326 72.6147V72.1571L153.648 73.1309V73.5768ZM153.319 72.075L155.279 70.9017V70.491L153.319 71.6643V72.075ZM152.686 72.075L151.888 72.5325V72.9432L152.686 72.4856V72.075ZM155.291 73.8466L152.944 75.1959V75.6065L155.291 74.2573V73.8466ZM152.944 73.5416L152.146 73.917V74.3277L152.956 73.8701L152.944 73.5416ZM153.519 80.7221L155.291 79.7013V79.2907L153.519 80.3114V80.7221ZM152.205 81.4847L152.885 81.0858V80.6751L152.205 81.0741V81.4847ZM152.815 77.8475L153.648 77.3665V76.9558L152.815 77.4369V77.8475ZM155.267 77.6598L153.683 78.575V78.9856L155.267 78.0704V77.6598ZM155.267 76.4865V76.0759L154.293 76.639V77.0497L155.267 76.4865ZM153.671 82.3529L155.291 81.426V81.0154L153.671 81.9423V82.3529Z" fill="#FFFFF7"/>
<path d="M135.368 76.5686H135.462L134.547 76.0993C133.291 75.3954 131.555 75.5127 129.654 76.6156C127.61 77.9361 125.906 79.7213 124.683 81.8256C123.459 83.9299 122.751 86.2936 122.615 88.7239C122.615 90.9766 123.424 92.5605 124.715 93.2762L125.571 93.769C126.862 94.5082 128.598 94.3908 130.523 93.2879C132.568 91.9649 134.271 90.1775 135.494 88.0713C136.718 85.9651 137.426 83.5998 137.562 81.1679C137.562 78.8565 136.717 77.2609 135.368 76.5686Z" fill="#788EFF"/>
<path d="M138.067 79.1616C138.098 79.1679 138.13 79.1679 138.161 79.1616L136.342 78.1173C135.626 77.8017 134.84 77.6789 134.062 77.7612C133.284 77.8436 132.541 78.1281 131.907 78.5867C130.061 79.7887 128.524 81.41 127.423 83.3184C126.322 85.2269 125.688 87.3684 125.571 89.5686C125.486 90.3616 125.616 91.163 125.948 91.8879C126.281 92.6129 126.803 93.2345 127.46 93.6868L129.232 94.7076C129.95 95.0395 130.744 95.1742 131.532 95.0979C132.319 95.0216 133.073 94.7371 133.714 94.2735C135.552 93.068 137.08 91.4467 138.174 89.5408C139.269 87.6349 139.899 85.4981 140.014 83.3033C140.014 81.2383 139.24 79.7834 138.067 79.1616Z" fill="url(#paint0_linear_62_290)"/>
<path d="M127.648 90.6011C127.648 94.5317 130.405 96.1156 133.808 94.121C135.601 92.9527 137.093 91.3781 138.163 89.525C139.233 87.672 139.851 85.5926 139.967 83.4558C139.967 79.5253 137.21 77.9297 133.808 79.936C132.016 81.1057 130.525 82.6806 129.455 84.5334C128.385 86.3862 127.766 88.4648 127.648 90.6011V90.6011Z" fill="#D3D3D1"/>
<path d="M176.609 110.559C176.301 109.787 175.814 109.1 175.189 108.552C175.344 108.397 175.475 108.219 175.577 108.024C175.791 107.617 175.881 107.156 175.835 106.699C175.797 106.248 175.661 105.812 175.436 105.42C175.212 105.028 174.932 104.672 174.603 104.364C174.28 104.058 173.926 103.787 173.547 103.554C173.171 103.32 172.784 103.132 172.374 102.921L171.998 102.698C172.154 102.428 172.25 102.128 172.28 101.818C172.332 101.472 172.332 101.12 172.28 100.774C172.248 100.607 172.205 100.442 172.151 100.281C172.099 100.109 172.028 99.9436 171.94 99.788C171.853 99.6334 171.75 99.488 171.634 99.3539C171.522 99.2239 171.401 99.1023 171.271 98.9901C171.142 98.8708 171.005 98.761 170.86 98.6616L170.438 98.38C169.867 98.0509 169.276 97.7608 168.666 97.5118C168.219 96.9433 167.732 96.4062 167.211 95.9044C166.677 95.3952 166.117 94.9135 165.533 94.4613C165.24 94.2383 164.947 94.0154 164.642 93.8042C164.337 93.593 164.032 93.3936 163.715 93.2058L163.234 92.9243L162.706 92.6896C162.389 92.5253 162.06 92.3728 161.732 92.232C161.004 91.575 160.242 90.9649 159.491 90.3665L158.318 89.4396C157.942 89.1228 157.567 88.806 157.215 88.4775L156.523 87.9261L155.819 87.3863C155.349 87.0226 154.868 86.6941 154.364 86.3656C153.374 85.7133 152.33 85.148 151.243 84.6761L150.421 84.3475C150.14 84.2537 149.858 84.1481 149.565 84.066C149.272 83.9838 148.99 83.9252 148.697 83.8548C148.403 83.7844 148.11 83.7492 147.805 83.714C147.509 83.673 147.212 83.6495 146.913 83.6436C146.612 83.6259 146.311 83.6259 146.01 83.6436C145.705 83.6436 145.4 83.6436 145.106 83.7609C144.845 83.8028 144.586 83.8616 144.332 83.9369L139.768 81.1445L135.075 78.3403C135.004 78.3403 134.958 78.4224 134.899 78.3403C131.672 76.2401 121.383 88.4071 123.624 89.9206C123.611 89.9129 123.598 89.9077 123.583 89.9053C123.569 89.9029 123.554 89.9034 123.54 89.9066C123.526 89.9099 123.513 89.9159 123.501 89.9244C123.489 89.9328 123.479 89.9435 123.471 89.9558C123.463 89.9682 123.458 89.9819 123.456 89.9962C123.453 90.0106 123.454 90.0252 123.457 90.0394C123.46 90.0536 123.466 90.0669 123.475 90.0788C123.483 90.0906 123.494 90.1007 123.506 90.1084L128.094 93.112L132.611 96.0217L133.784 100.938L134.383 103.449L134.688 104.704L134.84 105.326C134.89 105.568 134.999 105.794 135.157 105.983C135.321 106.171 135.486 106.288 135.638 106.44L136.119 106.863L137.081 107.731L139.005 109.444C139.181 109.604 139.389 109.724 139.615 109.796C139.862 109.855 140.061 109.855 140.284 109.89L141.563 110.042L144.121 110.348C144.966 110.453 145.822 110.547 146.667 110.7C147.512 110.852 148.356 110.993 149.213 111.098C149.645 111.157 150.08 111.193 150.515 111.204C150.738 111.227 150.962 111.227 151.184 111.204C151.301 111.188 151.416 111.156 151.524 111.11L151.818 110.922C151.997 110.769 152.143 110.58 152.248 110.369C152.353 110.157 152.414 109.926 152.428 109.69C152.436 109.426 152.408 109.162 152.346 108.904C152.791 109.174 153.237 109.432 153.707 109.667C154.563 110.089 155.431 110.5 156.311 110.84C158.063 111.623 159.839 112.334 161.638 112.976C162.541 113.292 163.457 113.586 164.384 113.844C165.306 114.125 166.252 114.318 167.211 114.419C167.457 114.436 167.704 114.436 167.95 114.419H168.314C168.434 114.385 168.552 114.342 168.666 114.29C168.899 114.196 169.12 114.074 169.323 113.926C169.539 113.777 169.712 113.575 169.828 113.339C169.919 113.173 169.971 112.989 169.98 112.8C170.796 113.152 171.645 113.423 172.514 113.609C173.027 113.721 173.551 113.768 174.075 113.75C174.611 113.729 175.134 113.58 175.6 113.316C176.086 113.059 176.47 112.645 176.691 112.143C176.849 111.621 176.82 111.061 176.609 110.559V110.559Z" fill="#FFD2B1"/>
<path d="M172.092 100.773C171.97 100.291 171.743 99.8423 171.426 99.4587C171.11 99.0752 170.712 98.7669 170.262 98.556C169.863 98.3565 169.358 98.0866 168.525 97.7229C167.79 96.8961 166.981 96.1381 166.108 95.4585C164.846 94.1904 163.373 93.1504 161.755 92.3845C160.086 91.306 158.546 90.0383 157.168 88.6065C156.523 88.1255 150.222 82.5054 144.344 84.2301L135.075 78.5045L123.987 90.0379L142.22 100.903L149.8 98.1688L153.918 96.3267C154.485 96.505 155.038 96.7246 155.572 96.9838C156.288 97.3475 156.968 97.7816 157.661 98.157C159.479 99.213 169.616 103.824 171.071 103.296C171.522 103.075 171.875 102.695 172.063 102.23C172.252 101.764 172.262 101.246 172.092 100.773V100.773Z" fill="#FFD2B1"/>
<path d="M156.839 101.947C157.684 102.369 162.506 105.021 163.316 105.467C165.439 106.64 173.207 109.831 174.708 108.811C175.192 108.503 175.546 108.028 175.704 107.477C175.862 106.926 175.812 106.336 175.565 105.819C175.107 104.727 172.679 103.179 171.623 102.639C170.567 102.099 169.429 101.736 168.361 101.208C165.334 99.7175 159.115 94.8249 156.405 92.8186C155.654 92.2555 154.845 91.7509 154.059 91.223C153.153 90.5415 152.183 89.9519 151.161 89.463C150.121 88.9719 148.931 88.9005 147.84 89.2636C147.308 89.4624 146.855 89.8282 146.548 90.3062C146.242 90.7842 146.098 91.3487 146.139 91.9152C146.236 92.3607 146.402 92.7882 146.632 93.1823C147.594 95.0244 148.462 97.676 150.152 99.0488C151.923 100.562 154.704 100.903 156.839 101.947Z" fill="#FFD2B1"/>
<g style="mix-blend-mode:multiply" opacity="0.4">
<path d="M164.736 102.627C163.951 102.143 163.23 101.564 162.588 100.903C160.956 99.5607 159.133 98.4693 157.18 97.6644C156.211 96.9956 155.283 96.2708 154.399 95.4938L153.319 96.2095C153.329 96.3073 153.301 96.4051 153.239 96.4819C153.178 96.5587 153.089 96.6083 152.991 96.6201L152.51 96.7492H152.416C152.37 96.7924 152.313 96.8227 152.251 96.8371C152.189 96.8515 152.125 96.8495 152.064 96.8313C151.559 97.0162 151.093 97.2948 150.691 97.6526C150.344 97.9904 149.949 98.275 149.518 98.4974C149.691 98.6958 149.879 98.8802 150.081 99.0488C151.923 100.539 156.112 101.607 158.212 102.674C159.045 103.097 163.867 105.76 164.677 106.194C166.801 107.438 173.148 109.796 174.65 108.787C175.004 108.558 175.291 108.238 175.479 107.86C175.666 107.482 175.749 107.061 175.717 106.64C174.544 109.069 171.2 108.2 169.253 106.194C167.906 104.816 166.388 103.617 164.736 102.627V102.627Z" fill="#FFCCB5"/>
</g>
<path d="M158.259 107.25C159.162 107.708 164.501 109.726 165.369 110.23C167.634 111.544 173.019 114.818 175.612 113.187C175.86 113.079 176.082 112.918 176.261 112.716C176.441 112.513 176.574 112.274 176.651 112.015C176.728 111.755 176.748 111.482 176.708 111.214C176.668 110.947 176.571 110.691 176.421 110.465C175.847 109.341 174.902 108.45 173.746 107.942C172.573 107.356 171.4 106.98 170.226 106.417C168.455 105.549 165.838 102.991 162.283 101.431C159.937 99.5416 157.754 98.2158 156.417 97.2537C155.607 96.6436 154.645 95.7401 153.812 95.1652C152.843 94.4441 151.806 93.8193 150.715 93.2997C149.614 92.7744 148.351 92.6987 147.195 93.0885C146.626 93.2971 146.141 93.6866 145.814 94.1974C145.488 94.7082 145.338 95.312 145.388 95.9161C145.483 96.3934 145.662 96.8502 145.916 97.2654C146.937 99.2248 147.864 102.041 149.635 103.484C151.665 105.033 156.03 106.124 158.259 107.25Z" fill="#FFD2B1"/>
<g style="mix-blend-mode:multiply" opacity="0.4">
<path d="M172.022 112.307C169.886 111.603 168.83 110.16 166.765 108.33C164.084 107.514 161.602 106.147 159.479 104.317C156.828 101.97 153.108 101.302 150.515 99.2835C150.515 99.2835 147.5 97.77 146.479 98.2275C147.324 100.058 148.216 102.228 149.706 103.437C151.665 105.033 156.03 106.124 158.259 107.25C159.162 107.708 164.501 109.726 165.369 110.23C167.634 111.544 173.019 114.818 175.612 113.187C176.104 112.949 176.483 112.528 176.668 112.014C175.972 112.427 175.188 112.67 174.38 112.721C173.572 112.772 172.764 112.63 172.022 112.307Z" fill="#FFCCB5"/>
</g>
<path d="M150.433 107.59C151.301 108.024 152.123 108.564 152.956 109.057C155.162 110.336 165.862 115.193 168.478 114.255C170.133 113.644 170.097 112.659 169.652 111.521C169.1 110.408 168.179 109.521 167.047 109.01C165.956 108.447 165.299 108.717 164.196 108.177C163.492 107.825 162.729 106.898 161.638 106.182C160.336 105.302 158.611 104.704 157.133 103.836C154.61 101.959 152.991 101.219 151.266 99.3187C150.12 98.3034 148.9 97.374 147.617 96.538C146.68 95.8326 145.673 95.2234 144.614 94.7194C143.536 94.2159 142.307 94.1404 141.176 94.5082C140.621 94.7117 140.149 95.0917 139.831 95.5898C139.513 96.0879 139.367 96.6765 139.416 97.2654C139.493 97.7155 139.64 98.1509 139.85 98.556C140.847 100.468 141.751 103.249 143.476 104.622C145.388 106.159 148.263 106.487 150.433 107.59Z" fill="#FFD2B1"/>
<g style="mix-blend-mode:multiply" opacity="0.4">
<path d="M147.148 106.358C148.272 106.687 149.37 107.099 150.433 107.59C151.301 108.024 152.123 108.564 152.956 109.057C155.162 110.336 165.862 115.193 168.478 114.255C169.652 113.82 169.968 113.222 169.898 112.506C169.672 112.616 169.441 112.714 169.206 112.8C168.579 113.117 167.87 113.231 167.176 113.128C166.942 113.146 166.706 113.146 166.472 113.128C166.03 113.098 165.592 113.016 165.17 112.882C164.119 112.451 163.203 111.746 162.518 110.84C162.44 110.759 162.344 110.696 162.239 110.655C162.134 110.615 162.021 110.598 161.908 110.606C160.533 110.674 159.161 110.414 157.906 109.847C156.651 109.279 155.55 108.421 154.692 107.344C151.536 106.898 149.788 105.478 148.486 105.197C146.89 104.845 146.198 104.246 144.567 104.199C144.482 104.181 144.394 104.181 144.309 104.199C143.523 104.563 144.578 105.244 144.86 105.373C145.582 105.788 146.35 106.119 147.148 106.358V106.358Z" fill="#FFCCB5"/>
</g>
<path d="M123.635 90.0497L132.869 95.9162C132.869 95.9162 134.324 102.099 135.087 105.361C135.151 105.618 135.29 105.851 135.486 106.03L139.24 109.444C139.437 109.62 139.682 109.735 139.944 109.773C141.223 109.937 143.792 110.277 145.083 110.418C146.949 110.617 150.539 111.486 151.56 111.005C152.58 110.524 152.967 108.4 150.257 106.241C148.271 104.757 145.882 103.911 143.405 103.812C143.172 101.756 142.72 99.7302 142.056 97.77C142.458 96.1084 142.589 94.3929 142.443 92.6896L127.413 86.3422L123.635 90.0497Z" fill="#FFD2B1"/>
<path d="M152.217 110.582C152.269 110.469 152.282 110.34 152.252 110.219C152.222 110.097 152.152 109.99 152.052 109.913C151.004 109.247 149.772 108.931 148.532 109.01C146.89 109.162 147.125 110.57 147.359 110.84C148.599 111.144 149.873 111.279 151.149 111.239C151.365 111.217 151.573 111.146 151.758 111.033C151.943 110.919 152.099 110.765 152.217 110.582V110.582Z" fill="#FFE5D0"/>
<g style="mix-blend-mode:screen" opacity="0.3">
<path d="M148.122 109.115C147.939 109.154 147.769 109.236 147.625 109.354C147.48 109.472 147.366 109.623 147.292 109.794C147.217 109.965 147.184 110.151 147.196 110.337C147.208 110.523 147.264 110.704 147.359 110.864H147.699C147.828 110.383 148.251 109.198 148.122 109.115Z" fill="#FFE5D0"/>
</g>
<g style="mix-blend-mode:multiply" opacity="0.6">
<path d="M151.653 110.934C150.004 110.994 148.353 110.884 146.726 110.606C146.754 110.681 146.794 110.752 146.843 110.817C148.162 111.105 149.506 111.258 150.856 111.274C151.106 111.301 151.359 111.258 151.586 111.15C151.814 111.043 152.008 110.875 152.146 110.664C152.086 110.74 152.011 110.802 151.927 110.849C151.842 110.895 151.749 110.924 151.653 110.934V110.934Z" fill="#FFE5D0"/>
</g>
<path opacity="0.6" d="M133.104 93.4874C132.2 92.6427 128.974 89.5335 128.974 89.5335C129.185 85.2627 133.315 80.5696 136.94 79.4315L135.251 78.399C129.701 77.4604 123.635 90.0497 123.635 90.0497L132.787 95.9161C132.869 95.1535 133.092 93.5109 133.104 93.4874Z" fill="#FFB18F"/>
<path d="M135.38 95.353L162.401 110.958L175.518 103.378V98.9432L135.38 90.918V95.353Z" fill="#C2B3C6"/>
<path d="M148.978 93.722L142.924 92.5135V99.7058L148.978 103.202V93.722Z" fill="#A091BC"/>
<path opacity="0.9" d="M161.145 99.9639C160.958 98.6616 160.934 97.2888 160.723 95.9865L156.135 95.0361C155.349 95.4937 154.493 95.8457 153.718 96.3385C152.615 97.019 151.571 97.8051 150.48 98.5091V104.07L161.532 110.477V106.065C161.532 105.912 161.532 105.455 161.626 105.443C161.578 103.609 161.417 101.779 161.145 99.9639Z" fill="#BF90B2"/>
<path d="M163.515 95.9983L163.457 96.538L175.518 98.9432V103.378L170.719 106.147L175.518 103.378V98.9432L163.515 95.9983Z" fill="#E2D4DD"/>
<path d="M163.457 96.5381L162.401 106.523V110.958L170.719 106.147L175.518 103.378V98.9433L163.457 96.5381Z" fill="#EBDAED"/>
<g style="mix-blend-mode:multiply" opacity="0.7">
<path d="M150.105 103.848L156.71 107.672V103.261L151.137 99.4595L150.105 103.848Z" fill="#E0AACC"/>
</g>
<path d="M137.058 91.8918L162.401 106.523L175.518 98.9432L150.175 84.3124L137.058 91.8918Z" fill="#F9F8F2"/>
<path d="M162.401 106.534L135.38 90.9296L148.497 83.3502L175.518 98.9549L162.401 106.534Z" fill="#F9F8F2"/>
<path d="M156.757 103.261L142.924 95.3061L156.053 87.7267L171.728 96.761L165.921 100.117L164.067 99.0489L156.757 103.261Z" fill="#D9CAED"/>
<path opacity="0.2" d="M162.096 92.4784L148.439 90.0028H148.509L162.166 92.4901L162.096 92.4784ZM162.905 92.0208L149.248 89.5335H149.166L162.823 92.0091L162.905 92.0208ZM161.427 92.8656L147.77 90.343H147.699L161.356 92.8304L161.427 92.8656ZM160.699 93.288L147.042 90.8123H146.96L160.617 93.2997L160.699 93.288ZM162.365 91.3638L149.976 89.1697H149.905L162.506 91.5163L162.365 91.3638ZM160.019 93.7104L146.28 91.2347H146.209L159.866 93.7221L160.019 93.7104ZM159.597 89.7329L151.513 88.2546H151.43L159.737 89.7681L159.597 89.7329ZM155.349 87.2807L153.718 86.9874H153.636L155.49 87.3159L155.349 87.2807ZM156.757 88.102L152.979 87.4098H152.909L156.91 88.1372L156.757 88.102ZM158.177 88.9116L152.146 87.8322H152.076L158.224 89.0055L158.177 88.9116ZM161.004 90.5425L150.773 88.6887H150.703L161.157 90.5894L161.004 90.5425ZM159.186 94.1445L145.564 91.6571H145.494L159.186 94.1797V94.1445ZM151.102 98.8376L148.004 98.2744L148.145 98.3566L151.032 98.8728L151.102 98.8376ZM152.569 97.9811L145.177 96.6436L145.318 96.714L152.498 98.028L152.569 97.9811ZM153.308 97.5587L143.757 95.8223L143.898 95.9044L153.284 97.6057L153.308 97.5587ZM150.363 99.26L149.424 99.084L149.565 99.1661L150.292 99.2952L150.363 99.26ZM151.841 98.4035L146.632 97.3827L146.773 97.4649L151.794 98.38L151.841 98.4035ZM154.047 97.1363L142.384 95.0362L142.525 95.1183L154 97.2067L154.047 97.1363ZM156.98 95.4351L143.358 92.9243H143.288L156.945 95.4116L156.98 95.4351ZM157.719 95.0127L144.097 92.5019H144.027L157.684 95.0362L157.719 95.0127ZM158.458 94.5903L144.837 92.0795H144.754L158.412 94.5551L158.458 94.5903ZM155.549 96.2094L141.892 93.7807H141.821L155.478 96.2681L155.549 96.2094ZM156.288 95.7871L142.631 93.3584H142.549L156.206 95.8457L156.288 95.7871ZM154.81 96.6436L141.152 94.2031L154.798 96.6905L154.81 96.6436Z" fill="#7F7799"/>
<path opacity="0.6" d="M168.513 101.618L158.529 95.8574L164.348 92.5018L174.333 98.2627L168.513 101.618Z" fill="#E0AACC"/>
<path opacity="0.6" d="M161.568 106.065L150.949 99.9288L152.815 98.8494L162.483 104.434L161.568 106.065Z" fill="#E0AACC"/>
<path d="M158.998 92.1264C157.62 91.3911 156.087 90.9918 154.526 90.9613C152.964 90.9307 151.417 91.2696 150.011 91.9504C147.606 93.3348 147.735 95.6579 150.292 97.1363C150.316 97.148 158.998 92.1264 158.998 92.1264Z" fill="#D4A8C6"/>
<path d="M149.365 99.0136L149.002 98.8024L162.131 91.223L162.495 91.4342L149.365 99.0136Z" fill="#7F7799"/>
<path d="M150.562 87.3981L146.702 85.1689L148.556 84.1012L152.404 86.3304L150.562 87.3981Z" fill="#3263A8"/>
<path d="M165.146 95.1417C164.857 94.9845 164.536 94.8924 164.208 94.8718L165.158 94.4377C165.198 94.4115 165.245 94.3975 165.293 94.3975C165.341 94.3975 165.388 94.4115 165.428 94.4377L166.601 95.1299L167.023 95.0244L165.428 94.0623H165.334L163.727 94.8836V94.9774C164.067 94.9536 164.408 95.0226 164.712 95.1769C165.017 95.3529 165.146 95.6697 164.548 96.0216C164.337 96.1636 164.093 96.2481 163.84 96.2666C163.587 96.2851 163.334 96.2371 163.105 96.1272C162.764 95.9395 162.823 95.7049 162.987 95.4937C163.152 95.2825 162.987 95.3998 162.987 95.3646C162.911 95.3264 162.826 95.3065 162.741 95.3065C162.655 95.3065 162.571 95.3264 162.495 95.3646C162.283 95.4819 162.307 95.8574 162.94 96.2094C163.264 96.417 163.636 96.5342 164.02 96.5486C164.404 96.5631 164.785 96.4743 165.123 96.2915C165.827 95.9043 165.721 95.4702 165.146 95.1417Z" fill="#6B6597"/>
<path d="M168.807 95.9278C168.389 95.7472 167.931 95.6782 167.479 95.7275C167.027 95.7769 166.595 95.9429 166.226 96.2094C165.322 96.7256 164.947 97.277 165.745 97.7346C166.169 97.9287 166.639 98.005 167.103 97.9554C167.568 97.9059 168.01 97.7324 168.384 97.453C169.229 96.9368 169.605 96.3853 168.807 95.9278ZM165.838 97.6408C165.381 97.3826 165.921 96.9133 166.66 96.4675C167.399 96.0216 168.185 95.74 168.643 95.9982C169.1 96.2563 168.572 96.7256 167.833 97.1715C167.094 97.6173 166.296 97.9106 165.838 97.6408Z" fill="#6B6597"/>
<path d="M171.365 97.3827C170.938 97.1876 170.467 97.1108 170 97.1604C169.534 97.2099 169.089 97.384 168.713 97.6643C167.821 98.1806 167.446 98.732 168.232 99.1896C168.657 99.3812 169.126 99.4561 169.59 99.4066C170.054 99.3572 170.496 99.185 170.872 98.908C171.775 98.4035 172.151 97.8638 171.365 97.3827ZM168.396 99.0957C167.939 98.8259 168.478 98.3683 169.206 97.9224C169.933 97.4766 170.743 97.1833 171.2 97.4531C171.658 97.723 171.118 98.1688 170.379 98.6264C169.64 99.084 168.854 99.3773 168.396 99.1192V99.0957Z" fill="#6B6597"/>
<path d="M138.97 90.6598C138.784 90.5623 138.581 90.5025 138.372 90.4838L138.982 90.2139C139.064 90.2139 139.088 90.2139 139.146 90.2139L139.909 90.6598L140.179 90.5894L139.17 89.9675L138.09 90.4838V90.5542C138.305 90.531 138.521 90.5718 138.712 90.6715C138.912 90.7888 138.994 90.9883 138.606 91.2112C138.472 91.2993 138.318 91.3519 138.158 91.3642C137.998 91.3765 137.837 91.3481 137.691 91.2816C137.48 91.1525 137.515 91.0118 137.621 90.8827C137.628 90.8772 137.634 90.8701 137.638 90.862C137.642 90.8538 137.644 90.8449 137.644 90.8358C137.644 90.8267 137.642 90.8177 137.638 90.8095C137.634 90.8014 137.628 90.7943 137.621 90.7888C137.571 90.7657 137.517 90.7538 137.463 90.7538C137.408 90.7538 137.354 90.7657 137.304 90.7888C137.163 90.8592 137.187 91.0939 137.586 91.3285C137.795 91.4524 138.034 91.5177 138.278 91.5177C138.521 91.5177 138.761 91.4524 138.97 91.3285C139.393 91.1408 139.334 90.871 138.97 90.6598Z" fill="#F4C245"/>
<path d="M141.293 91.1643C141.023 91.0416 140.725 90.9933 140.43 91.0242C140.136 91.0552 139.854 91.1643 139.615 91.3403C139.041 91.6688 138.806 92.0208 139.31 92.3024C139.58 92.4288 139.878 92.4792 140.174 92.4482C140.47 92.4172 140.751 92.3059 140.988 92.1264C141.587 91.7979 141.798 91.5163 141.293 91.1643ZM139.404 92.2554C139.123 92.0794 139.404 91.7861 139.932 91.5163C140.46 91.2464 140.906 91.047 141.188 91.223C141.469 91.3989 141.188 91.6805 140.671 91.9504C140.155 92.2202 139.698 92.4197 139.404 92.2554Z" fill="#F4C245"/>
<path d="M142.912 92.1029C142.642 91.9802 142.345 91.9319 142.05 91.9628C141.755 91.9938 141.473 92.1029 141.235 92.2789C140.66 92.6074 140.425 92.9477 140.93 93.241C141.2 93.3636 141.497 93.412 141.792 93.381C142.087 93.3501 142.369 93.241 142.607 93.065C143.182 92.6895 143.417 92.3845 142.912 92.1029ZM141.035 93.1823C140.742 93.018 141.035 92.7247 141.551 92.4549C142.068 92.185 142.525 91.9856 142.819 92.1615C143.112 92.3375 142.819 92.6191 142.302 92.889C141.786 93.1588 141.317 93.3583 141.035 93.1823Z" fill="#F4C245"/>
<path d="M171.517 100.48L170.039 100.199V100.116L171.517 100.398V100.48ZM171.118 100.644L169.64 100.375V100.457L171.13 100.727L171.118 100.644ZM170.672 100.903L169.194 100.633V100.715L170.672 100.985V100.903ZM170.227 101.161L168.748 100.903V100.996L170.227 101.266V101.161ZM169.792 101.407L168.314 101.137V101.219L169.804 101.501L169.792 101.407ZM169.347 101.665L167.868 101.395V101.477L169.347 101.747V101.665ZM168.912 101.923L167.399 101.653V101.736L168.877 102.005L168.912 101.923ZM168.467 102.181L166.988 101.9V101.994L168.478 102.264L168.467 102.181ZM168.021 102.428L166.542 102.158V102.24L168.021 102.522V102.428Z" fill="#6B6597"/>
<path d="M150.234 85.2393C149.983 85.1125 149.705 85.0464 149.424 85.0464C149.143 85.0464 148.866 85.1125 148.615 85.2393C148.18 85.4857 148.204 85.9081 148.615 86.1779C148.866 86.3048 149.143 86.3708 149.424 86.3708C149.705 86.3708 149.983 86.3048 150.234 86.1779C150.715 85.9198 150.691 85.4974 150.234 85.2393ZM148.767 86.0841C148.368 85.8494 148.345 85.4857 148.767 85.2628C148.986 85.1533 149.227 85.0964 149.471 85.0964C149.715 85.0964 149.957 85.1533 150.175 85.2628C150.574 85.4857 150.597 85.8494 150.175 86.0723C149.957 86.181 149.716 86.2385 149.472 86.2406C149.228 86.2426 148.987 86.1891 148.767 86.0841V86.0841Z" fill="#F4C245"/>
<path d="M160.359 90.9531L160.171 91.2934L160.559 91.5867H159.937L159.597 91.88L159.397 91.528L158.799 91.4107L159.291 91.223V90.8593L159.796 91.0822L160.359 90.9531ZM156.159 89.7799L155.666 89.5921V89.9441L155.173 90.1436L155.772 90.2609L155.971 90.6129L156.311 90.3196H156.933L156.546 90.0262L156.722 89.686L156.159 89.7799ZM152.146 89.7447L151.642 89.5217V89.8737L151.149 90.0732L151.747 90.1905L151.947 90.5308L152.287 90.2492H152.909L152.522 89.9558L152.698 89.6273L152.146 89.7447ZM148.626 90.8593L148.11 90.6364V90.9883L147.617 91.1878L148.204 91.3051L148.415 91.6454L148.755 91.3638H149.377L148.99 91.0705L149.166 90.7419L148.626 90.8593ZM146.749 92.8656L146.28 92.6896V93.0533L145.787 93.241L146.385 93.3584L146.597 93.7104L146.937 93.417H147.547L147.16 93.1237L147.347 92.7835L146.749 92.8656ZM146.878 95.2122L146.374 94.9892V95.3412L145.881 95.5407L146.479 95.658L146.679 95.9983L147.019 95.7167H147.641L147.254 95.4234L147.453 95.0362L146.878 95.2122ZM149.037 97.3006L148.532 97.0777V97.4297L148.04 97.6291L148.638 97.7465L148.838 98.0984L149.178 97.8051H149.8L149.412 97.5118L149.588 97.1715L149.037 97.3006Z" fill="#E8AB31"/>
<path d="M158.071 88.8765L164.865 92.7952L151.724 100.386L144.93 96.4676L158.071 88.8765Z" fill="#F9F8F2"/>
<path d="M144.93 100.867L151.724 104.786V100.386L144.93 96.4675V100.867Z" fill="#D1C1D3"/>
<path d="M145.599 96.8548L158.752 89.2636L157.977 88.8177L144.837 96.4089V100.82L145.599 101.255V96.8548Z" fill="#788EFF"/>
<path d="M151.841 100.457L164.994 92.8656L164.219 92.4198L151.078 100.011V104.423L151.841 104.868V100.457Z" fill="#788EFF"/>
<path d="M145.599 96.8547L144.837 96.4088V100.82L145.599 101.254V96.8547Z" fill="#7D239B"/>
<path d="M151.841 100.457L151.078 100.011V104.422L151.841 104.868V100.457Z" fill="#7D239B"/>
<g style="mix-blend-mode:multiply">
<path d="M147.254 84.066L136.506 90.2845L157.027 102.135L160.922 102.123L147.254 84.066Z" fill="#C2B3C6"/>
</g>
<path d="M160.946 102.123L136.448 87.9848V84.5001L160.946 90.7068V102.123Z" fill="#C4BEA3"/>
<path d="M172.28 95.5641L160.946 102.123V90.7067L172.28 92.0911V95.5641Z" fill="#D8D2B8"/>
<path d="M160.946 98.6499L136.448 84.5118L147.793 77.9531L172.291 92.1029L160.946 98.6499Z" fill="#FFF9E1"/>
<path d="M147.582 78.4576L137.375 84.3241L161.204 98.0867L171.412 92.2203L147.582 78.4576ZM162.835 96.843C162.553 96.9845 162.241 97.0581 161.926 97.0581C161.61 97.0581 161.298 96.9845 161.016 96.843L139.651 84.4766C139.123 84.1715 139.088 83.7022 139.569 83.4206L145.951 79.7835C146.233 79.6393 146.544 79.5641 146.861 79.5641C147.177 79.5641 147.488 79.6393 147.77 79.7835L169.088 92.0912C169.616 92.3845 169.652 92.8539 169.171 93.1354L162.835 96.843Z" fill="#687A51"/>
<path d="M159.467 85.3566C157.121 83.9956 152.897 84.1833 150.081 85.8024C147.265 87.4216 146.937 89.8503 149.307 91.223C151.677 92.5957 155.877 92.3963 158.693 90.7772C161.509 89.158 161.838 86.7293 159.467 85.3566ZM149.377 91.223C147.031 89.8737 147.383 87.4802 150.152 85.8728C152.921 84.2654 157.074 84.0777 159.409 85.427C161.744 86.7763 161.403 89.1698 158.634 90.7772C155.865 92.3846 151.712 92.5371 149.377 91.1878V91.223Z" fill="#A5AA9F"/>
<path d="M158.505 90.6598C155.795 92.232 151.759 92.4314 149.483 91.1173C147.207 89.8033 147.57 87.4802 150.281 85.9197C152.991 84.3592 157.027 84.148 159.303 85.4621C161.579 86.7762 161.216 89.0993 158.505 90.6598Z" fill="#A5AA9F"/>
<path d="M157.907 90.343C156.742 91.0054 155.437 91.3855 154.099 91.4527C152.76 91.5199 151.424 91.2725 150.199 90.7302C148.263 89.5569 148.568 87.621 150.879 86.2835C152.044 85.6211 153.349 85.241 154.687 85.1738C156.026 85.1065 157.362 85.354 158.588 85.8963C160.523 86.9874 160.218 88.982 157.907 90.343Z" fill="#FFF9E1"/>
<path d="M159.186 92.6779L158.376 92.2086L158.071 92.3729L158.893 92.8539L159.186 92.6779Z" fill="#687A51"/>
<path d="M159.62 92.9242L159.327 93.1002L162.835 95.13L163.14 94.954L159.62 92.9242Z" fill="#687A51"/>
<path d="M143.417 83.5732L142.596 83.1039L142.302 83.2799L143.124 83.7492L143.417 83.5732Z" fill="#687A51"/>
<path d="M143.851 83.8196L143.546 83.9956L147.066 86.0254L147.371 85.8494L143.851 83.8196Z" fill="#687A51"/>
<path d="M146.937 80.1472L146.526 80.3819L150.773 82.834L151.196 82.5994L146.937 80.1472Z" fill="#687A51"/>
<path d="M164.137 90.0732L163.727 90.3079L167.974 92.7601L168.384 92.5254L164.137 90.0732Z" fill="#A5AA9F"/>
<path d="M159.749 95.353L160.641 94.8368L160.183 94.6256V94.7312C160.183 94.7312 160.183 94.7312 160.183 94.8016L159.479 95.2123C159.462 95.2239 159.441 95.23 159.421 95.23C159.4 95.23 159.379 95.2239 159.362 95.2123H159.245L159.831 95.5525L159.726 95.4821C159.726 95.4821 159.69 95.3882 159.749 95.353Z" fill="#687A51"/>
<path d="M161.45 95.2943C161.302 95.2211 161.136 95.1891 160.971 95.2014C160.806 95.2138 160.648 95.2702 160.512 95.3647C160.23 95.5289 160.089 95.7284 160.394 95.9044C160.545 95.9773 160.712 96.0093 160.879 95.9969C161.046 95.9845 161.207 95.9283 161.345 95.834C161.615 95.6814 161.767 95.4703 161.45 95.2943ZM160.465 95.8692C160.336 95.787 160.606 95.611 160.782 95.5172C160.958 95.4233 161.251 95.2591 161.38 95.3412C161.509 95.4233 161.251 95.5876 161.075 95.6932C160.899 95.7988 160.606 95.9396 160.465 95.8692Z" fill="#687A51"/>
<path d="M162.389 95.834C162.238 95.761 162.071 95.7291 161.904 95.7415C161.737 95.7538 161.577 95.8101 161.439 95.9044C161.169 96.0569 161.016 96.2681 161.333 96.4441C161.481 96.5173 161.647 96.5493 161.812 96.5369C161.977 96.5246 162.136 96.4682 162.272 96.3737C162.553 96.2095 162.706 96.01 162.389 95.834ZM161.392 96.3972C161.263 96.3268 161.532 96.1508 161.708 96.0452C161.884 95.9396 162.178 95.7988 162.319 95.8692C162.459 95.9396 162.178 96.1273 162.002 96.2212C161.826 96.3151 161.532 96.4793 161.392 96.3972V96.3972Z" fill="#687A51"/>
<path d="M167.61 90.9648L168.208 90.6128L167.903 90.472V90.5424L167.434 90.824H167.399H167.317L167.68 91.0822V91.0118C167.68 91.0118 167.575 90.9883 167.61 90.9648Z" fill="#FFF9E1"/>
<path d="M168.76 90.9179C168.663 90.8635 168.554 90.8348 168.443 90.8348C168.332 90.8348 168.223 90.8635 168.126 90.9179C167.939 91.0235 167.845 91.1643 168.056 91.2817C168.15 91.3386 168.257 91.3688 168.367 91.3688C168.477 91.3688 168.584 91.3386 168.678 91.2817C168.865 91.1761 168.971 91.047 168.76 90.9179ZM168.103 91.3051C168.009 91.3051 168.185 91.1409 168.302 91.0705C168.42 91.0001 168.619 90.8945 168.713 90.9531C168.807 91.0118 168.619 91.1174 168.502 91.1878C168.384 91.2582 168.185 91.3521 168.103 91.3051Z" fill="#FFF9E1"/>
<path d="M169.382 91.2817C169.285 91.2272 169.176 91.1986 169.065 91.1986C168.954 91.1986 168.845 91.2272 168.748 91.2817C168.56 91.3873 168.467 91.5281 168.678 91.6454C168.772 91.7 168.88 91.7287 168.989 91.7287C169.098 91.7287 169.205 91.7 169.3 91.6454C169.487 91.5164 169.593 91.399 169.382 91.2817ZM168.725 91.6689C168.631 91.6102 168.807 91.4929 168.924 91.4225C169.041 91.3521 169.241 91.2583 169.335 91.3052C169.429 91.3521 169.241 91.4812 169.124 91.5398C169.006 91.5985 168.807 91.7158 168.725 91.6689V91.6689Z" fill="#FFF9E1"/>
<path d="M148.99 80.2058L149.588 79.8656L149.283 79.7834L148.802 80.0533C148.802 80.0533 148.802 80.0533 148.72 80.0533H148.638L149.002 80.2997V80.2293C149.002 80.2293 148.955 80.2293 148.99 80.2058Z" fill="#FFF9E1"/>
<path d="M150.128 80.1706C150.034 80.1136 149.927 80.0835 149.817 80.0835C149.708 80.0835 149.6 80.1136 149.506 80.1706C149.319 80.2762 149.213 80.4053 149.424 80.5343C149.521 80.5888 149.63 80.6174 149.741 80.6174C149.852 80.6174 149.961 80.5888 150.058 80.5343C150.245 80.4287 150.339 80.2879 150.128 80.1706ZM149.471 80.5461C149.377 80.5461 149.565 80.3818 149.682 80.3114C149.8 80.241 149.987 80.1472 150.081 80.1941C150.175 80.241 149.999 80.3583 149.882 80.4287C149.764 80.4991 149.565 80.6047 149.471 80.5461Z" fill="#FFF9E1"/>
<path d="M150.75 80.5226C150.655 80.4681 150.548 80.4393 150.439 80.4393C150.33 80.4393 150.223 80.4681 150.128 80.5226C149.94 80.6282 149.835 80.769 150.046 80.8864C150.141 80.9444 150.251 80.975 150.363 80.975C150.474 80.975 150.584 80.9444 150.68 80.8864C150.867 80.7808 150.973 80.6517 150.75 80.5226ZM150.093 80.9098C149.999 80.8512 150.187 80.7456 150.304 80.6752C150.421 80.6048 150.609 80.4992 150.703 80.5578C150.797 80.6165 150.621 80.7221 150.504 80.7925C150.386 80.8629 150.187 80.9568 150.093 80.9568V80.9098Z" fill="#FFF9E1"/>
<path d="M139.956 85.0163H139.885C139.848 85.0368 139.805 85.0476 139.762 85.0476C139.719 85.0476 139.677 85.0368 139.639 85.0163L138.853 84.5587C138.782 84.5587 138.782 84.4648 138.853 84.4179H138.935C138.97 84.4004 139.008 84.3912 139.046 84.3912C139.085 84.3912 139.123 84.4004 139.158 84.4179L139.24 84.4766L140.155 83.9486L140.061 83.8664C140.046 83.8664 140.031 83.8603 140.02 83.8493C140.009 83.8383 140.003 83.8233 140.003 83.8078C140.003 83.7922 140.009 83.7773 140.02 83.7663C140.031 83.7553 140.046 83.7491 140.061 83.7491H140.12C140.188 83.7259 140.263 83.7259 140.331 83.7491L140.953 84.0072C140.953 84.0072 141.023 84.0072 141.023 84.0894C141.032 84.1036 141.036 84.1198 141.036 84.1363C141.036 84.1528 141.032 84.169 141.023 84.1832L139.85 84.8637L139.956 84.9341C139.964 84.9461 139.969 84.9605 139.969 84.9752C139.969 84.9899 139.964 85.0043 139.956 85.0163V85.0163ZM143.217 86.1896C142.998 86.3382 142.744 86.4253 142.479 86.4419C142.215 86.4584 141.951 86.4037 141.716 86.2834C141.399 86.0957 141.352 85.8845 141.54 85.6616C141.364 85.7179 141.179 85.7376 140.995 85.7195C140.811 85.7013 140.633 85.6457 140.472 85.556C140.038 85.3096 140.097 84.9928 140.613 84.6877C140.834 84.5444 141.089 84.4613 141.353 84.4469C141.616 84.4325 141.879 84.4872 142.115 84.6056C142.431 84.7933 142.478 85.0045 142.291 85.2275C142.466 85.1682 142.652 85.147 142.836 85.1652C143.02 85.1834 143.198 85.2406 143.358 85.3331C143.792 85.5794 143.734 85.8962 143.217 86.1896Z" fill="#FFF9E1"/>
<path d="M139.698 84.7581L140.871 84.0659L140.261 83.7843H140.19L140.308 83.8782C140.308 83.8782 140.308 83.8782 140.308 83.9838L139.357 84.5235C139.332 84.5379 139.304 84.5455 139.275 84.5455C139.246 84.5455 139.218 84.5379 139.193 84.5235L139.041 84.4765H138.958L139.756 84.9341H139.838L139.698 84.8403C139.698 84.8403 139.639 84.7933 139.698 84.7581Z" fill="#A5AA9F"/>
<path d="M141.997 84.6761C141.8 84.5758 141.579 84.5304 141.358 84.5449C141.137 84.5593 140.924 84.633 140.742 84.7583C140.366 84.9812 140.167 85.251 140.578 85.4974C140.779 85.5924 141.001 85.6337 141.224 85.6172C141.446 85.6008 141.66 85.5272 141.845 85.4036C142.22 85.1924 142.42 84.9108 141.997 84.6761ZM140.671 85.4388C140.495 85.3332 140.859 85.0985 141.094 84.9695C141.328 84.8404 141.727 84.6175 141.903 84.7231C142.079 84.8287 141.727 85.0633 141.493 85.2041C141.258 85.3449 140.859 85.5444 140.671 85.4388Z" fill="#A5AA9F"/>
<path d="M143.253 85.3917C143.052 85.2932 142.829 85.25 142.606 85.2665C142.384 85.283 142.169 85.3586 141.986 85.4856C141.61 85.6968 141.411 85.9666 141.833 86.213C142.031 86.3117 142.253 86.3551 142.474 86.3385C142.695 86.322 142.907 86.2462 143.088 86.1191C143.464 85.908 143.663 85.6498 143.253 85.3917ZM141.927 86.1543C141.739 86.0487 142.103 85.8258 142.338 85.685C142.572 85.5442 142.971 85.3448 143.159 85.4504C143.347 85.556 142.971 85.7906 142.736 85.9197C142.502 86.0487 142.103 86.2599 141.927 86.1543Z" fill="#A5AA9F"/>
<path d="M163.879 91.8331C163.482 91.619 163.04 91.502 162.59 91.4918C162.139 91.4816 161.692 91.5785 161.286 91.7744C160.606 92.1733 160.652 92.8421 161.392 93.2645C161.788 93.4777 162.23 93.5951 162.68 93.6074C163.13 93.6196 163.577 93.5263 163.985 93.3349C164.724 92.936 164.677 92.2672 163.879 91.8331ZM161.532 93.1941C160.864 92.8069 160.828 92.2085 161.439 91.8565C161.806 91.6783 162.211 91.5906 162.619 91.6008C163.027 91.611 163.427 91.7188 163.785 91.9152C164.442 92.2907 164.489 92.889 163.879 93.241C163.512 93.4183 163.108 93.5064 162.7 93.4982C162.292 93.4901 161.892 93.3859 161.532 93.1941Z" fill="#A5AA9F"/>
<path d="M148.157 82.7283C147.756 82.5234 147.311 82.4165 146.861 82.4165C146.41 82.4165 145.965 82.5234 145.564 82.7283C144.872 83.1155 144.919 83.7843 145.67 84.2184C146.066 84.4325 146.508 84.5495 146.959 84.5597C147.41 84.5699 147.857 84.473 148.263 84.2771C148.943 83.8312 148.896 83.1507 148.157 82.7283ZM145.81 84.0776C145.153 83.7022 145.106 83.1038 145.717 82.7518C146.08 82.5673 146.482 82.4712 146.89 82.4712C147.298 82.4712 147.7 82.5673 148.063 82.7518C148.732 83.139 148.767 83.7374 148.157 84.0893C147.792 84.2768 147.387 84.3735 146.976 84.3715C146.566 84.3695 146.162 84.2687 145.799 84.0776H145.81Z" fill="#A5AA9F"/>
<path d="M163.715 92.4902C163.658 92.4876 163.603 92.4712 163.554 92.4426C163.505 92.414 163.463 92.374 163.433 92.3259C163.405 92.2711 163.363 92.2242 163.312 92.1894C163.26 92.1546 163.201 92.133 163.14 92.1265H163.069C163.015 92.1263 162.962 92.1122 162.915 92.0855C162.867 92.0588 162.828 92.0204 162.8 91.974C162.77 91.9362 162.728 91.9098 162.681 91.8992C162.634 91.8885 162.585 91.8942 162.541 91.9153L161.896 92.2907C161.869 92.3035 161.846 92.3233 161.83 92.3481C161.813 92.3729 161.804 92.4018 161.802 92.4315V93.0182H162.87C162.946 93.0441 163.029 93.0441 163.105 93.0182L163.75 92.6427C163.879 92.5841 163.879 92.5019 163.715 92.4902Z" fill="#687A51"/>
<path d="M147.934 83.3737C147.879 83.3706 147.825 83.3553 147.776 83.3289C147.728 83.3026 147.685 83.2658 147.652 83.2211C147.626 83.1649 147.584 83.1168 147.533 83.0818C147.481 83.0467 147.421 83.026 147.359 83.0217H147.289C147.236 83.0169 147.184 83.0009 147.137 82.9746C147.091 82.9483 147.05 82.9123 147.019 82.8692C146.983 82.8386 146.937 82.8218 146.89 82.8218C146.843 82.8218 146.797 82.8386 146.761 82.8692L146.115 83.2446C146.09 83.2564 146.068 83.2744 146.052 83.297C146.035 83.3196 146.025 83.346 146.022 83.3737V83.972H147.089C147.166 83.9924 147.247 83.9924 147.324 83.972L147.969 83.6083C148.098 83.4793 148.051 83.3971 147.934 83.3737Z" fill="#687A51"/>
<path d="M155.666 88.2545L155.361 87.9964L156.968 87.0578C157.156 87.2103 157.215 87.4449 156.886 87.8908C156.804 88.0081 156.804 88.0902 156.992 88.2076C157.158 88.3029 157.343 88.3598 157.534 88.374C157.725 88.3882 157.916 88.3594 158.095 88.2897C158.423 88.102 158.423 87.5153 157.332 86.8583L157.954 86.4946L157.485 86.2247L156.851 86.5767C156.366 86.281 155.814 86.1112 155.247 86.0825C154.679 86.0538 154.114 86.1672 153.601 86.4125C152.874 86.8348 153.038 87.3863 153.601 87.9847L153.894 88.3249L152.052 89.3809C151.912 89.2753 151.747 89.0054 152.158 88.407C152.263 88.2545 152.24 88.1606 152.041 88.0433C151.856 87.9612 151.656 87.9187 151.454 87.9187C151.252 87.9187 151.052 87.9612 150.867 88.0433C150.597 88.1958 150.316 88.7708 151.7 89.6155L150.879 90.0848L151.36 90.3547L152.17 89.8854C152.678 90.193 153.253 90.372 153.846 90.4068C154.439 90.4415 155.032 90.331 155.572 90.0848C156.37 89.5217 156.206 88.9585 155.666 88.2545ZM155.103 87.5857C154.786 87.2807 154.716 86.9522 155.103 86.741C155.329 86.6284 155.578 86.5697 155.83 86.5697C156.083 86.5697 156.332 86.6284 156.558 86.741L155.103 87.5857ZM152.522 89.6273L154.211 88.6534C154.289 88.7214 154.347 88.8086 154.38 88.9063C154.413 89.0039 154.42 89.1086 154.4 89.2098C154.38 89.3109 154.333 89.4049 154.265 89.4823C154.197 89.5597 154.109 89.6178 154.012 89.6507C153.777 89.7856 153.511 89.8547 153.24 89.8505C152.969 89.8464 152.705 89.7693 152.475 89.6273H152.522Z" fill="#687A51"/>
<path d="M157.097 93.9803L155.021 92.7835L155.138 92.7131L157.215 93.9216L157.097 93.9803Z" fill="#A5AA9F"/>
<path d="M146.538 87.8908L144.461 86.6823L144.578 86.6119L146.655 87.8204L146.538 87.8908Z" fill="#A5AA9F"/>
<path d="M157.555 83.585L162.436 86.4126L151.09 92.9595L146.209 90.1436L157.555 83.585Z" fill="#F9F8F2"/>
<path d="M146.209 93.6399L151.09 96.4558V92.9594L146.209 90.1436V93.6399Z" fill="#D1C1D3"/>
<path d="M146.737 90.4486L158.095 83.9017L157.485 83.5497L146.127 90.0966V93.593L146.737 93.9567V90.4486Z" fill="#788EFF"/>
<path d="M151.184 93.0182L162.541 86.4713L161.92 86.1075L150.574 92.6662V96.1626L151.184 96.5146V93.0182Z" fill="#788EFF"/>
<path d="M146.737 90.4485L146.127 90.0966V93.5929L146.737 93.9567V90.4485Z" fill="#7D239B"/>
<path d="M151.184 93.0181L150.574 92.6661V96.1625L151.184 96.5145V93.0181Z" fill="#7D239B"/>
</g>
<defs>
<filter id="filter0_f_62_290" x="-22.6733" y="-69.2238" width="289.801" height="289.801" filterUnits="userSpaceOnUse" color-interpolation-filters="sRGB">
<feFlood flood-opacity="0" result="BackgroundImageFix"/>
<feBlend mode="normal" in="SourceGraphic" in2="BackgroundImageFix" result="shape"/>
<feGaussianBlur stdDeviation="43.9982" result="effect1_foregroundBlur_62_290"/>
</filter>
<linearGradient id="paint0_linear_62_290" x1="137.257" y1="78.7157" x2="128.293" y2="94.2383" gradientUnits="userSpaceOnUse">
<stop stop-color="#FFFEFA"/>
<stop offset="1" stop-color="#F1F0EC"/>
</linearGradient>
<clipPath id="clip0_62_290">
<rect width="95.0361" height="90.343" fill="white" transform="translate(82.9224 35.1986)"/>
</clipPath>
</defs>
</svg>
