<svg width="407" height="201" viewBox="0 0 407 201" fill="none" xmlns="http://www.w3.org/2000/svg">
<mask id="mask0_62_482" style="mask-type:alpha" maskUnits="userSpaceOnUse" x="0" y="0" width="407" height="201">
<rect x="0.696777" width="405.957" height="200.632" rx="17.5993" fill="white"/>
</mask>
<g mask="url(#mask0_62_482)">
<g filter="url(#filter0_f_62_482)">
<circle cx="196.635" cy="75.0903" r="64.5307" fill="#FBE200" fill-opacity="0.3"/>
</g>
</g>
<g clip-path="url(#clip0_62_482)">
<path d="M166.4 103.953L223.949 70.7374V62.0316L166.4 75.3484V103.953Z" fill="#D8D2B8"/>
<path d="M137.971 87.5388L166.4 103.953V75.3484L137.971 78.833V87.5388Z" fill="#C4BEA3"/>
<path d="M223.949 62.0316L166.412 95.2473L137.995 78.833L195.521 45.6173L223.949 62.0316Z" fill="#FFF9E1"/>
<path d="M140.13 79.1616L165.719 93.945L221.685 61.6327L196.096 46.8611L140.13 79.1616ZM216.218 59.3096C217.391 60.0019 217.391 61.14 216.218 61.8557L166.13 90.7654C165.448 91.1099 164.694 91.2893 163.93 91.2893C163.166 91.2893 162.412 91.1099 161.73 90.7654L145.715 81.5551C144.542 80.8629 144.542 79.7131 145.715 79.0091L195.826 50.0994C196.508 49.7549 197.262 49.5755 198.026 49.5755C198.79 49.5755 199.543 49.7549 200.226 50.0994L216.218 59.3096Z" fill="#687A51"/>
<path d="M168.195 63.0524C162.61 66.2672 163.783 72.1806 170.823 76.2636C177.863 80.3467 188.07 80.9568 193.632 77.7772C199.193 74.5976 198.02 68.6138 191.004 64.5308C183.987 60.4478 173.768 59.8376 168.195 63.0524ZM193.479 77.6598C188 80.8277 177.886 80.1472 170.952 76.1463C164.018 72.1454 162.845 66.3024 168.336 63.1346C173.827 59.9667 183.929 60.6472 190.863 64.6481C197.797 68.649 198.982 74.492 193.479 77.6598Z" fill="#A5AA9F"/>
<path d="M190.569 64.8241C197.363 68.7429 198.536 74.4098 193.198 77.4956C187.859 80.5813 178.039 79.9008 171.245 75.982C164.452 72.0633 163.279 66.3845 168.617 63.3575C173.956 60.3304 183.788 60.9053 190.569 64.8241Z" fill="#A5AA9F"/>
<path d="M189.162 65.6336C194.958 68.9775 195.967 73.8466 191.402 76.4631C186.838 79.0795 178.496 78.5163 172.63 75.1607C166.764 71.8051 165.825 66.9477 170.389 64.3313C174.953 61.7149 183.365 62.2898 189.162 65.6336Z" fill="#FFF9E1"/>
<path d="M198.982 64.0262L197.058 65.1291L197.809 65.5632L199.721 64.4486L198.982 64.0262Z" fill="#687A51"/>
<path d="M199.991 63.4396L200.742 63.862L209.002 59.0984L208.251 58.6643L199.991 63.4396Z" fill="#687A51"/>
<path d="M161.941 85.4034L160.017 86.5181L160.768 86.9404L162.692 85.8376L161.941 85.4034Z" fill="#687A51"/>
<path d="M162.95 84.8169L163.701 85.251L171.961 80.4875L171.222 80.0533L162.95 84.8169Z" fill="#687A51"/>
<path d="M147.252 80.2059L148.284 80.7925L158.257 75.0317L157.225 74.4451L147.252 80.2059Z" fill="#687A51"/>
<path d="M187.636 56.8927L188.657 57.4793L198.63 51.7302L197.609 51.1318L187.636 56.8927Z" fill="#A5AA9F"/>
<path d="M210.199 63.4514L207.946 62.1842L207.16 62.806L207.277 62.8764L207.57 62.7591C207.62 62.7291 207.677 62.7132 207.735 62.7132C207.793 62.7132 207.849 62.7291 207.899 62.7591L209.671 63.7799C209.788 63.8503 209.776 63.8855 209.671 63.9441L209.436 64.1201L209.577 64.2023L210.926 63.3575H210.773L210.492 63.4983C210.444 63.52 210.39 63.5272 210.338 63.5188C210.286 63.5105 210.237 63.487 210.199 63.4514Z" fill="#687A51"/>
<path d="M209.811 61.0109C209.072 61.4333 209.459 61.9378 210.163 62.3367C210.495 62.5651 210.879 62.7045 211.28 62.7415C211.68 62.7785 212.084 62.7118 212.451 62.5479C213.179 62.1255 212.803 61.621 212.099 61.2221C211.768 60.9937 211.384 60.8543 210.983 60.8173C210.582 60.7803 210.179 60.847 209.811 61.0109ZM212.275 62.4423C211.958 62.63 211.208 62.2311 210.773 61.9847C210.339 61.7383 209.659 61.3042 209.987 61.1165C210.316 60.9288 211.043 61.3277 211.477 61.5741C211.912 61.8205 212.592 62.2898 212.275 62.4775V62.4423Z" fill="#687A51"/>
<path d="M211.982 59.8376C211.255 60.26 211.642 60.7527 212.346 61.1634C212.685 61.4005 213.08 61.5438 213.492 61.5788C213.904 61.6138 214.318 61.5393 214.692 61.3628C215.42 60.9405 215.032 60.4477 214.34 60.037C214 59.7978 213.602 59.6533 213.188 59.6182C212.774 59.5832 212.357 59.6589 211.982 59.8376ZM214.458 61.269C214.141 61.445 213.39 61.0578 212.956 60.8114C212.522 60.565 211.841 60.1192 212.158 59.9432C212.475 59.7672 213.226 60.1426 213.66 60.4008C214.094 60.6589 214.774 61.0109 214.458 61.2221V61.269Z" fill="#687A51"/>
<path d="M191.121 52.0822L189.596 51.214C189.396 51.3434 189.204 51.4845 189.021 51.6364H189.103L189.302 51.566C189.325 51.5488 189.351 51.5367 189.378 51.5303C189.406 51.524 189.435 51.5236 189.462 51.5291C189.49 51.5347 189.516 51.5461 189.539 51.5625C189.562 51.579 189.581 51.6002 189.596 51.6246L190.769 52.3169C190.851 52.3169 190.839 52.3873 190.769 52.4225L190.616 52.5398L190.71 52.5985L191.637 52.0588H191.543L191.344 52.1526C191.325 52.1628 191.304 52.169 191.282 52.171C191.26 52.1729 191.238 52.1706 191.218 52.164C191.197 52.1575 191.178 52.1469 191.161 52.1328C191.144 52.1188 191.131 52.1016 191.121 52.0822Z" fill="#FFF9E1"/>
<path d="M190.851 50.4513C190.37 50.7329 190.628 51.0732 191.097 51.343C191.318 51.4971 191.575 51.5901 191.843 51.6128C192.111 51.6354 192.38 51.5869 192.623 51.4721C193.116 51.1905 192.857 50.862 192.388 50.5921C192.167 50.4363 191.908 50.3413 191.638 50.3166C191.369 50.2919 191.097 50.3384 190.851 50.4513ZM192.505 51.4134C192.294 51.5308 191.801 51.2726 191.508 51.0967C191.215 50.9207 190.757 50.6391 190.98 50.5217C191.203 50.4044 191.684 50.6625 191.977 50.8268C192.271 50.9911 192.728 51.3078 192.505 51.4369V51.4134Z" fill="#FFF9E1"/>
<path d="M192.318 49.6299C191.825 49.9115 192.083 50.2518 192.552 50.5216C192.774 50.6767 193.034 50.7703 193.303 50.7929C193.573 50.8156 193.844 50.7665 194.089 50.6507C194.57 50.3691 194.324 50.0406 193.855 49.7707C193.633 49.6149 193.375 49.5199 193.105 49.4952C192.835 49.4705 192.564 49.517 192.318 49.6299ZM193.972 50.592C193.761 50.7094 193.256 50.4512 192.963 50.287C192.67 50.1227 192.224 49.8294 192.435 49.7003C192.646 49.5713 193.151 49.8411 193.444 50.0054C193.737 50.1696 194.183 50.4512 193.972 50.592Z" fill="#FFF9E1"/>
<path d="M147.357 77.3431L145.856 76.4749C145.656 76.6043 145.464 76.7453 145.281 76.8972H145.363L145.562 76.8151C145.595 76.7976 145.631 76.7885 145.668 76.7885C145.705 76.7885 145.741 76.7976 145.773 76.8151L146.947 77.4956C147.029 77.4956 147.017 77.5777 146.947 77.6129L146.794 77.7303H146.888L147.815 77.2023H147.721L147.533 77.2962C147.511 77.3193 147.483 77.3359 147.452 77.3442C147.421 77.3524 147.388 77.3521 147.357 77.3431Z" fill="#FFF9E1"/>
<path d="M147.111 75.7357C146.618 76.0172 146.876 76.3575 147.346 76.6273C147.568 76.7824 147.827 76.876 148.097 76.8986C148.367 76.9213 148.638 76.8722 148.883 76.7564C149.364 76.4748 149.106 76.1463 148.636 75.8764C148.417 75.7206 148.16 75.6254 147.893 75.6007C147.625 75.576 147.355 75.6225 147.111 75.7357ZM148.765 76.686C148.542 76.8151 148.05 76.557 147.756 76.381C147.463 76.205 147.005 75.9234 147.228 75.806C147.451 75.6887 147.932 75.9468 148.226 76.1111C148.519 76.2754 148.977 76.5687 148.765 76.686Z" fill="#FFF9E1"/>
<path d="M148.531 74.8908C148.05 75.1724 148.296 75.5126 148.765 75.7825C148.988 75.9364 149.247 76.0293 149.517 76.052C149.786 76.0746 150.057 76.0262 150.302 75.9116C150.795 75.63 150.537 75.3015 150.068 75.0316C149.846 74.8758 149.588 74.7808 149.318 74.7561C149.048 74.7314 148.777 74.7778 148.531 74.8908ZM150.185 75.8529C149.974 75.9702 149.469 75.7121 149.176 75.5361C148.883 75.3601 148.531 75.0903 148.683 74.9612C148.836 74.8321 149.399 75.102 149.692 75.2663C149.986 75.4305 150.431 75.7238 150.22 75.8529H150.185Z" fill="#FFF9E1"/>
<path d="M168.265 90.343L168.465 90.4486C168.629 90.5425 168.617 90.695 168.465 90.7889L166.599 91.8683C166.51 91.9119 166.411 91.9345 166.312 91.9345C166.212 91.9345 166.114 91.9119 166.024 91.8683L165.825 91.751C165.795 91.7366 165.77 91.7141 165.752 91.6861C165.735 91.6581 165.726 91.6257 165.726 91.5926C165.726 91.5595 165.735 91.5271 165.752 91.4991C165.77 91.4711 165.795 91.4486 165.825 91.4342L166.083 91.2699L163.736 89.9441L163.408 90.0732C163.326 90.108 163.239 90.126 163.15 90.126C163.061 90.126 162.973 90.108 162.892 90.0732L162.739 89.9793C162.598 89.8972 162.587 89.7799 162.739 89.686L163.783 88.8412C163.874 88.7812 163.98 88.7486 164.088 88.7474H164.182C164.288 88.7454 164.393 88.7696 164.487 88.8178L167.432 90.519L167.737 90.3782C167.817 90.3339 167.906 90.3078 167.997 90.3017C168.089 90.2956 168.18 90.3097 168.265 90.343ZM172.958 85.8728C174.273 86.6237 174.449 87.3981 173.428 87.9847C173.032 88.1942 172.597 88.319 172.151 88.3513C171.705 88.3836 171.256 88.3227 170.835 88.1725C171.339 88.7239 171.245 89.2402 170.506 89.6743C169.926 89.9532 169.282 90.0751 168.64 90.0277C167.998 89.9804 167.379 89.7655 166.846 89.4044C165.543 88.6418 165.367 87.8792 166.376 87.2925C166.773 87.0809 167.209 86.9539 167.658 86.9196C168.106 86.8852 168.557 86.9443 168.981 87.093C168.477 86.5533 168.57 86.0254 169.31 85.603C169.89 85.3191 170.536 85.1965 171.18 85.2481C171.824 85.2997 172.442 85.5236 172.97 85.8963L172.958 85.8728Z" fill="#FFF9E1"/>
<path d="M167.198 90.7067L164.182 88.9585H164.1L163.044 89.7915L163.208 89.8854L163.596 89.7329C163.663 89.6937 163.74 89.6731 163.819 89.6731C163.897 89.6731 163.974 89.6937 164.041 89.7329L166.388 91.1056C166.552 91.1995 166.529 91.2464 166.388 91.3285L166.071 91.5515L166.259 91.6688L168.125 90.5894L167.937 90.472L167.55 90.6598C167.5 90.6981 167.442 90.7226 167.38 90.7309C167.318 90.7391 167.255 90.7308 167.198 90.7067Z" fill="#A5AA9F"/>
<path d="M166.681 87.4802C165.696 88.0433 166.212 88.6534 167.151 89.2518C167.595 89.5667 168.114 89.7586 168.656 89.808C169.198 89.8575 169.743 89.7627 170.236 89.5334C171.21 88.9702 170.694 88.2897 169.755 87.75C169.312 87.4392 168.794 87.2506 168.255 87.2032C167.715 87.1559 167.172 87.2514 166.681 87.4802ZM169.99 89.3926C169.568 89.639 168.559 89.111 167.984 88.7825C167.409 88.454 166.482 87.8673 166.916 87.6092C167.35 87.3511 168.347 87.8908 168.934 88.2311C169.521 88.5713 170.424 89.1697 169.99 89.3926Z" fill="#A5AA9F"/>
<path d="M169.65 85.7907C168.676 86.3539 169.192 87.0227 170.131 87.5624C170.573 87.8751 171.09 88.0657 171.63 88.1152C172.17 88.1646 172.713 88.0711 173.205 87.844C174.179 87.269 173.674 86.6003 172.736 86.0606C172.29 85.7498 171.77 85.5614 171.229 85.514C170.687 85.4667 170.143 85.5621 169.65 85.7907ZM172.97 87.7032C172.536 87.9496 171.539 87.4216 170.952 87.0931C170.365 86.7645 169.462 86.1662 169.884 85.9198C170.307 85.6734 171.316 86.2014 171.902 86.5416C172.489 86.8819 173.357 87.4568 172.923 87.7032H172.97Z" fill="#A5AA9F"/>
<path d="M195.063 57.315C193.303 58.324 193.28 59.9549 195.063 60.9405C196.035 61.4378 197.11 61.6972 198.202 61.6972C199.293 61.6972 200.369 61.4378 201.34 60.9405C203.1 59.9314 203.124 58.3123 201.34 57.315C200.367 56.8232 199.292 56.5669 198.202 56.5669C197.111 56.5669 196.036 56.8232 195.063 57.315ZM200.93 60.7175C200.061 61.1595 199.1 61.39 198.125 61.39C197.151 61.39 196.19 61.1595 195.321 60.7175C193.796 59.8376 193.82 58.371 195.38 57.491C196.247 57.0518 197.206 56.823 198.178 56.823C199.151 56.823 200.109 57.0518 200.977 57.491C202.502 58.371 202.502 59.8376 200.953 60.7175H200.93Z" fill="#A5AA9F"/>
<path d="M158.011 78.704C156.263 79.713 156.239 81.3439 158.011 82.3295C158.984 82.8269 160.062 83.0863 161.155 83.0863C162.248 83.0863 163.326 82.8269 164.3 82.3295C166.048 81.3204 166.071 79.7013 164.358 78.704C163.374 78.207 162.287 77.948 161.185 77.948C160.082 77.948 158.995 78.207 158.011 78.704ZM163.877 82.1065C163.011 82.5494 162.052 82.7803 161.079 82.7803C160.106 82.7803 159.147 82.5494 158.281 82.1065C156.744 81.2266 156.767 79.76 158.281 78.88C159.148 78.4408 160.107 78.212 161.079 78.212C162.051 78.212 163.01 78.4408 163.877 78.88C165.485 79.7834 165.461 81.2031 163.901 82.13L163.877 82.1065Z" fill="#A5AA9F"/>
<path d="M197.809 57.667C197.742 57.7804 197.648 57.8752 197.535 57.9429C197.423 58.0105 197.295 58.0488 197.163 58.0542H196.999C196.87 58.0561 196.743 58.0904 196.63 58.1539C196.517 58.2174 196.422 58.3082 196.354 58.4179V58.5118C196.289 58.6221 196.196 58.7136 196.085 58.7774C195.974 58.8412 195.848 58.875 195.72 58.8755C195.403 58.8755 195.298 59.1219 195.509 59.2392L197.116 60.1779C197.297 60.2711 197.5 60.3155 197.703 60.3069H200.155H200.249V58.8286C200.249 58.6995 200.167 58.5822 200.014 58.4883L198.407 57.5614C198.231 57.491 197.879 57.491 197.809 57.667Z" fill="#687A51"/>
<path d="M160.756 79.0677C160.69 79.181 160.596 79.2759 160.483 79.3435C160.37 79.4112 160.242 79.4494 160.111 79.4549H159.947C159.817 79.4611 159.691 79.4984 159.578 79.5638C159.466 79.6291 159.371 79.7205 159.301 79.8303V79.9242C159.235 80.033 159.142 80.1233 159.031 80.1868C158.92 80.2504 158.796 80.2851 158.668 80.2879C158.351 80.2879 158.246 80.5343 158.457 80.6516L160.064 81.5902C160.247 81.6792 160.448 81.7235 160.651 81.7193H163.15H163.244V80.2292C163.244 80.1002 163.162 79.9828 163.009 79.889L161.437 78.9621C161.167 78.8448 160.815 78.9034 160.756 79.0677Z" fill="#687A51"/>
<path d="M180.679 68.6724L179.435 69.0127L175.399 66.6661C176.563 66.3562 177.795 66.4219 178.919 66.8538C179.131 66.9239 179.355 66.9486 179.578 66.9263C179.8 66.9041 180.015 66.8354 180.209 66.7248C180.585 66.5018 181.383 65.7157 180.491 65.176C179.599 64.6363 177.206 64.6598 174.507 66.1499L172.947 65.2464L171.832 65.88L173.393 66.7834C171.187 68.1562 170.483 69.9161 172.947 71.3358C174.765 72.3917 177.1 72.1923 179.564 71.547L180.972 71.1598L185.571 73.8114C185.09 73.9991 183.987 74.2103 181.43 73.5885C181.184 73.5039 180.922 73.4727 180.664 73.497C180.405 73.5213 180.154 73.6004 179.928 73.7293C179.774 73.8047 179.645 73.9216 179.555 74.0668C179.464 74.212 179.416 74.3796 179.416 74.5506C179.416 74.7216 179.464 74.8892 179.555 75.0343C179.645 75.1795 179.774 75.2964 179.928 75.3719C180.597 75.7591 183.037 76.2049 186.498 74.3394L188.54 75.5127L189.654 74.8674L187.613 73.6941C189.455 72.6381 190.945 70.5731 188.141 68.9305C185.923 67.7221 183.577 67.9098 180.679 68.6724ZM177.863 69.4116C177.306 69.6465 176.707 69.7675 176.103 69.7675C175.498 69.7675 174.9 69.6465 174.343 69.4116C173.357 68.8367 173.31 67.9919 174.273 67.3701L177.863 69.4116ZM186.651 73.2013L182.439 70.7609C183.837 70.3213 185.352 70.4434 186.662 71.1011C187.824 71.7699 187.73 72.5912 186.674 73.2013H186.651Z" fill="#687A51"/>
<path d="M204.625 67.0533L199.733 69.8692L199.44 69.7049L204.332 66.8773L204.625 67.0533Z" fill="#A5AA9F"/>
<path d="M179.822 81.3674L174.93 84.195L174.648 84.0307L179.541 81.2031L179.822 81.3674Z" fill="#A5AA9F"/>
<path d="M173.052 58.5822L160.803 65.6453L189.255 82.0713L201.493 75.0081L173.052 58.5822Z" fill="#F9F8F2"/>
<path d="M201.493 83.7726L189.244 90.8358V82.0714L201.493 75.0082V83.7726Z" fill="#E5E2D8"/>
<path d="M200.143 75.7825L171.703 59.3565L173.228 58.4766L201.681 74.8908V83.667L200.143 84.547V75.7825Z" fill="#788EFF"/>
<path d="M188.997 82.2122L160.557 65.7862L162.094 64.9062L190.534 81.3322V90.1084L188.997 90.9884V82.2122Z" fill="#788EFF"/>
<path d="M200.144 75.7826L201.681 74.8909V83.667L200.144 84.547V75.7826Z" fill="#576FD3"/>
<path d="M188.997 82.2121L190.534 81.3322V90.1083L188.997 90.9883V82.2121Z" fill="#576FD3"/>
<g style="mix-blend-mode:multiply" opacity="0.8">
<g style="mix-blend-mode:multiply">
<path d="M168.981 79.6075C166.93 78.5759 164.604 78.2264 162.34 78.6102C160.044 78.2315 157.687 78.6017 155.617 79.6662C152.895 81.2501 152.907 83.8078 155.617 85.3683C157.116 86.1736 158.797 86.5778 160.498 86.5416H164.018C165.738 86.5826 167.44 86.1785 168.958 85.3683C171.727 83.714 171.715 81.168 168.981 79.6075Z" fill="#C4BEA3"/>
</g>
<g style="mix-blend-mode:multiply">
<path d="M160.674 73.1192C158.623 72.0771 156.29 71.7233 154.022 72.1102C151.746 71.7365 149.41 72.1025 147.357 73.1544C144.647 74.7383 144.659 77.2961 147.357 78.8566C148.861 79.6604 150.546 80.0644 152.25 80.0298H155.77C157.494 80.0718 159.199 79.6677 160.721 78.8566C163.42 77.2257 163.408 74.6797 160.674 73.1192Z" fill="#C4BEA3"/>
</g>
</g>
<g style="mix-blend-mode:multiply" opacity="0.4">
<path d="M237.56 77.5073C236.588 77.4291 235.614 77.6328 234.755 78.0939L189.15 104.481C187.836 105.244 187.695 106.382 188.833 107.039L216.159 122.773C216.88 123.149 217.696 123.304 218.505 123.218L239.953 77.9062C239.213 77.538 238.379 77.3991 237.56 77.5073Z" fill="#50197C"/>
</g>
<path d="M268.018 94.8133C267.975 95.124 267.853 95.4186 267.664 95.6691C267.475 95.9196 267.226 96.1177 266.939 96.2447L221.333 122.632C220.659 123.003 219.907 123.214 219.138 123.246C218.368 123.279 217.602 123.133 216.898 122.82L189.596 107.086C189.36 106.98 189.161 106.807 189.025 106.587C188.889 106.367 188.822 106.112 188.833 105.854C188.833 105.607 188.833 105.385 188.903 105.079C188.967 104.792 189.096 104.524 189.282 104.296C189.467 104.068 189.703 103.886 189.971 103.765L235.565 77.4369C236.239 77.043 236.997 76.8152 237.776 76.7723C238.556 76.7295 239.334 76.8728 240.047 77.1905L267.314 92.9243C267.519 93.0168 267.697 93.1603 267.83 93.3411C267.964 93.5218 268.049 93.7338 268.077 93.9568C268.1 94.2735 268.018 94.5551 268.018 94.8133Z" fill="#E0DBE1"/>
<path d="M235.565 77.4369L189.959 103.765C188.645 104.516 188.504 105.666 189.643 106.323L216.957 122.022C217.659 122.34 218.426 122.49 219.197 122.457C219.967 122.424 220.719 122.211 221.392 121.834L267.032 95.482C268.335 94.7194 268.476 93.5813 267.338 92.9243L240.047 77.1905C239.334 76.8728 238.556 76.7295 237.776 76.7723C236.997 76.8152 236.239 77.043 235.565 77.4369Z" fill="url(#paint0_linear_62_482)"/>
<path d="M229.194 84.4766C229.027 84.5503 228.88 84.6619 228.764 84.8024C228.648 84.9429 228.566 85.1086 228.525 85.2862C228.516 85.4476 228.556 85.6081 228.639 85.7464C228.723 85.8847 228.847 85.9942 228.995 86.0605L230.801 87.093C231.235 87.2923 231.71 87.3866 232.187 87.3682C232.664 87.3499 233.13 87.2194 233.547 86.9874L240.047 83.1508C240.213 83.0745 240.359 82.9605 240.473 82.8179C240.587 82.6753 240.666 82.5081 240.704 82.3295C240.713 82.1697 240.672 82.0111 240.589 81.8748C240.505 81.7386 240.381 81.6311 240.235 81.5669L238.428 80.5226C237.992 80.3279 237.518 80.2371 237.041 80.2574C236.565 80.2778 236.099 80.4088 235.682 80.64L229.194 84.4766Z" fill="#F0F2FF"/>
<path opacity="0.4" d="M214.422 115.486C214.254 115.561 214.106 115.675 213.99 115.817C213.874 115.96 213.793 116.128 213.754 116.308C213.743 116.468 213.783 116.627 213.867 116.764C213.951 116.9 214.075 117.008 214.223 117.07L217.743 119.077C218.176 119.271 218.649 119.362 219.124 119.342C219.598 119.321 220.061 119.19 220.477 118.959L227.622 114.829C227.786 114.754 227.931 114.642 228.045 114.502C228.159 114.361 228.239 114.196 228.279 114.02C228.288 113.858 228.249 113.698 228.165 113.56C228.081 113.421 227.957 113.312 227.81 113.246L224.29 111.251C223.855 111.053 223.38 110.961 222.903 110.982C222.426 111.002 221.96 111.134 221.544 111.368L214.422 115.486Z" fill="#3452A5"/>
<path d="M227.305 114.9L220.171 119.03C219.827 119.22 219.443 119.328 219.05 119.344C218.657 119.36 218.266 119.285 217.907 119.124L214.387 117.129C213.812 116.789 213.883 116.202 214.551 115.815L221.685 111.685C222.029 111.495 222.413 111.387 222.806 111.371C223.199 111.355 223.591 111.43 223.949 111.591L227.469 113.586C228.044 113.926 227.974 114.513 227.305 114.9Z" fill="#FFC440"/>
<g opacity="0.6">
<path d="M223.468 112.424L221.274 113.727C220.861 113.582 220.422 113.526 219.986 113.56C219.55 113.594 219.126 113.719 218.74 113.926C218.001 114.36 217.872 114.982 218.388 115.393L216.041 116.754L214.54 115.897L214.364 116.038L219.843 119.194C219.929 119.168 220.011 119.133 220.089 119.089L218.728 118.314L221.075 116.941C221.483 117.074 221.915 117.122 222.343 117.082C222.771 117.041 223.186 116.914 223.562 116.707C224.278 116.296 224.419 115.698 223.949 115.275L226.202 113.973L227.551 114.759L227.704 114.607L222.248 111.462L221.978 111.556L223.468 112.424ZM220.84 116.848L218.494 118.197L216.147 116.859L218.494 115.51L220.77 116.824L220.84 116.848ZM221.263 116.848L223.691 115.44C224.067 115.792 223.938 116.296 223.339 116.613C223.025 116.781 222.681 116.886 222.327 116.92C221.972 116.954 221.615 116.918 221.274 116.812L221.263 116.848ZM221.004 113.809L218.564 115.217C218.142 114.865 218.259 114.348 218.881 114.043C219.199 113.859 219.552 113.743 219.918 113.703C220.284 113.662 220.654 113.698 221.004 113.809ZM223.504 115.217L221.051 116.672L218.705 115.334L221.274 113.95L223.504 115.217ZM223.621 112.53L225.967 113.867L223.738 115.158L221.392 113.82L223.621 112.53Z" fill="#D88C1D"/>
</g>
<path d="M258.949 95.9513C260.536 95.9513 261.823 95.2054 261.823 94.2852C261.823 93.3651 260.536 92.6191 258.949 92.6191C257.361 92.6191 256.074 93.3651 256.074 94.2852C256.074 95.2054 257.361 95.9513 258.949 95.9513Z" fill="#F4AC1C"/>
<path d="M254.267 98.6616C255.855 98.6616 257.142 97.9157 257.142 96.9955C257.142 96.0754 255.855 95.3295 254.267 95.3295C252.68 95.3295 251.393 96.0754 251.393 96.9955C251.393 97.9157 252.68 98.6616 254.267 98.6616Z" fill="#B53333"/>
<path d="M205.177 110.477L204.743 110.735C204.543 110.852 204.438 110.969 204.438 111.11C204.438 111.251 204.543 111.368 204.743 111.486L206.268 112.354C206.464 112.469 206.686 112.53 206.913 112.53C207.139 112.53 207.361 112.473 207.559 112.366L207.993 112.107C208.192 111.99 208.298 111.873 208.298 111.732C208.298 111.591 208.192 111.474 207.993 111.357L206.468 110.488C206.273 110.372 206.049 110.311 205.822 110.312C205.597 110.312 205.375 110.369 205.177 110.477ZM207.664 111.532C207.911 111.685 207.922 111.826 207.664 111.967L207.301 112.178C207.189 112.246 207.062 112.283 206.931 112.283C206.8 112.283 206.672 112.246 206.561 112.178L205.071 111.31C204.813 111.169 204.801 111.028 205.071 110.887L205.435 110.676C205.547 110.604 205.677 110.565 205.81 110.565C205.944 110.565 206.074 110.604 206.186 110.676L207.664 111.532Z" fill="#F4A9FF"/>
<path d="M207.418 109.198L206.972 109.444C206.773 109.561 206.679 109.679 206.679 109.82C206.679 109.96 206.773 110.078 206.984 110.195L208.497 111.063C208.697 111.179 208.924 111.239 209.154 111.239C209.376 111.238 209.594 111.181 209.788 111.075L210.234 110.817C210.421 110.7 210.527 110.582 210.527 110.453C210.527 110.324 210.433 110.195 210.222 110.066L208.708 109.198C208.509 109.082 208.282 109.022 208.051 109.022C207.828 109.019 207.608 109.08 207.418 109.198ZM209.893 110.289C210.152 110.441 210.152 110.582 209.893 110.723L209.541 110.934C209.43 111.006 209.299 111.045 209.166 111.045C209.033 111.045 208.902 111.006 208.791 110.934L207.3 110.078C207.042 109.925 207.042 109.784 207.3 109.644L207.664 109.432C207.776 109.36 207.906 109.322 208.04 109.322C208.173 109.322 208.303 109.36 208.415 109.432L209.893 110.289Z" fill="#F4A9FF"/>
<path d="M209.647 107.942L209.213 108.189C209.014 108.306 208.908 108.423 208.908 108.564C208.908 108.705 209.014 108.822 209.213 108.94L210.727 109.82C210.925 109.938 211.153 109.995 211.384 109.984C211.61 109.988 211.833 109.931 212.029 109.82L212.463 109.562C212.662 109.444 212.756 109.327 212.756 109.198C212.756 109.069 212.662 108.94 212.463 108.822L210.938 107.942C210.742 107.827 210.519 107.766 210.292 107.766C210.065 107.765 209.842 107.826 209.647 107.942ZM212.134 108.987C212.381 109.139 212.393 109.28 212.134 109.421L211.771 109.632C211.661 109.703 211.532 109.741 211.401 109.741C211.27 109.741 211.142 109.703 211.032 109.632L209.542 108.728C209.295 108.576 209.283 108.435 209.542 108.294L209.894 108.083C210.005 108.011 210.136 107.973 210.269 107.973C210.402 107.973 210.533 108.011 210.644 108.083L212.134 108.987Z" fill="#F4A9FF"/>
<path d="M211.888 106.616L211.454 106.863C211.255 106.98 211.161 107.109 211.161 107.238C211.161 107.367 211.255 107.496 211.454 107.614L212.979 108.494C213.175 108.609 213.398 108.67 213.625 108.67C213.852 108.671 214.075 108.61 214.27 108.494L214.704 108.236C214.903 108.13 215.009 108.001 215.009 107.872C215.009 107.743 214.903 107.614 214.704 107.496L213.179 106.616C212.983 106.501 212.76 106.44 212.533 106.44C212.306 106.44 212.083 106.501 211.888 106.616ZM214.375 107.672C214.634 107.813 214.634 107.954 214.375 108.095L214.012 108.306C213.902 108.377 213.773 108.415 213.642 108.415C213.511 108.415 213.383 108.377 213.273 108.306L211.782 107.449C211.524 107.297 211.524 107.156 211.782 107.015L212.123 106.769C212.236 106.699 212.366 106.663 212.498 106.663C212.631 106.663 212.761 106.699 212.874 106.769L214.375 107.672Z" fill="#F4A9FF"/>
<path d="M217.32 103.472L216.886 103.73C216.687 103.836 216.581 103.965 216.581 104.094C216.581 104.223 216.687 104.352 216.886 104.469L218.4 105.349C218.6 105.465 218.826 105.525 219.057 105.525C219.284 105.525 219.507 105.465 219.702 105.349L220.136 105.103C220.336 104.986 220.43 104.856 220.43 104.727C220.43 104.598 220.336 104.422 220.101 104.352L218.587 103.472C218.392 103.357 218.169 103.296 217.942 103.296C217.723 103.299 217.508 103.36 217.32 103.472ZM219.808 104.528C220.054 104.669 220.066 104.821 219.808 104.962L219.444 105.162C219.333 105.23 219.205 105.266 219.074 105.266C218.944 105.266 218.816 105.23 218.705 105.162L217.203 104.293C216.957 104.153 216.945 104 217.203 103.859L217.555 103.66C217.668 103.59 217.798 103.553 217.93 103.553C218.063 103.553 218.193 103.59 218.306 103.66L219.808 104.528Z" fill="#F4A9FF"/>
<path d="M219.55 102.182L219.115 102.44C218.916 102.545 218.81 102.674 218.81 102.803C218.81 102.932 218.916 103.061 219.115 103.179L220.641 104.059C220.836 104.174 221.059 104.235 221.286 104.235C221.513 104.236 221.736 104.175 221.931 104.059L222.365 103.812C222.565 103.695 222.671 103.566 222.671 103.437C222.671 103.308 222.565 103.179 222.365 103.061L220.84 102.182C220.645 102.066 220.422 102.005 220.195 102.005C219.968 102.005 219.745 102.066 219.55 102.182ZM222.037 103.237C222.283 103.378 222.295 103.531 222.037 103.672L221.673 103.883C221.561 103.949 221.434 103.984 221.304 103.984C221.174 103.984 221.046 103.949 220.934 103.883L219.444 103.015C219.186 102.874 219.174 102.721 219.444 102.592L219.808 102.381C219.92 102.309 220.05 102.27 220.183 102.27C220.316 102.27 220.447 102.309 220.559 102.381L222.037 103.237Z" fill="#F4A9FF"/>
<path d="M221.791 100.903L221.345 101.161C221.145 101.278 221.051 101.395 221.051 101.524C221.051 101.653 221.145 101.783 221.357 101.9L222.87 102.78C223.07 102.895 223.296 102.956 223.527 102.956C223.751 102.959 223.971 102.898 224.161 102.78L224.607 102.533C224.794 102.416 224.9 102.287 224.9 102.158C224.9 102.029 224.806 101.9 224.595 101.783L223.081 100.903C222.879 100.795 222.653 100.738 222.424 100.738C222.202 100.732 221.982 100.789 221.791 100.903ZM224.266 101.959C224.524 102.111 224.524 102.252 224.266 102.393L223.914 102.604C223.801 102.673 223.671 102.71 223.539 102.71C223.406 102.71 223.276 102.673 223.163 102.604L221.673 101.736C221.415 101.595 221.415 101.454 221.673 101.313L222.037 101.102C222.149 101.03 222.279 100.991 222.412 100.991C222.546 100.991 222.676 101.03 222.788 101.102L224.266 101.959Z" fill="#F4A9FF"/>
<path d="M224.02 99.6003L223.586 99.8584C223.386 99.9757 223.281 100.093 223.281 100.234C223.281 100.375 223.386 100.492 223.586 100.598L225.099 101.478C225.299 101.593 225.526 101.654 225.756 101.654C225.983 101.654 226.206 101.593 226.402 101.478L226.836 101.231C227.035 101.114 227.129 100.997 227.141 100.856C227.153 100.715 227.035 100.598 226.836 100.48L225.31 99.612C225.115 99.4966 224.892 99.4358 224.665 99.436C224.44 99.436 224.218 99.4925 224.02 99.6003ZM226.507 100.656C226.754 100.809 226.765 100.95 226.507 101.09L226.144 101.302C226.032 101.37 225.904 101.406 225.774 101.406C225.643 101.406 225.515 101.37 225.404 101.302L223.903 100.433C223.656 100.293 223.644 100.152 223.903 100.011L224.255 99.7998C224.366 99.7275 224.497 99.6891 224.63 99.6891C224.763 99.6891 224.894 99.7275 225.005 99.7998L226.507 100.656Z" fill="#F4A9FF"/>
<path d="M229.487 96.4675L229.041 96.7139C228.842 96.8312 228.748 96.9603 228.748 97.0893C228.748 97.2184 228.842 97.3474 229.053 97.4648L230.567 98.3447C230.767 98.46 230.993 98.5207 231.224 98.5207C231.446 98.5152 231.664 98.4547 231.857 98.3447L232.303 98.0866C232.491 97.9693 232.597 97.852 232.597 97.7229C232.597 97.5938 232.503 97.4648 232.291 97.3474L230.778 96.4675C230.578 96.3522 230.352 96.2915 230.121 96.2915C229.897 96.2886 229.677 96.3496 229.487 96.4675ZM231.963 97.5234C232.221 97.6642 232.221 97.805 231.963 97.9458L231.611 98.157C231.499 98.2292 231.369 98.2677 231.236 98.2677C231.102 98.2677 230.972 98.2292 230.86 98.157L229.37 97.3005C229.112 97.148 229.112 97.0072 229.37 96.8664L229.734 96.6552C229.847 96.5856 229.977 96.5488 230.109 96.5488C230.242 96.5488 230.372 96.5856 230.485 96.6552L231.963 97.5234Z" fill="#F4A9FF"/>
<path d="M231.693 95.177L231.259 95.4234C231.06 95.5407 230.954 95.6698 230.954 95.7988C230.954 95.9279 231.06 96.0569 231.259 96.1743L232.773 97.0542C232.972 97.1695 233.199 97.2302 233.43 97.2302C233.657 97.2304 233.879 97.1696 234.075 97.0542L234.509 96.7961C234.708 96.6905 234.802 96.5614 234.802 96.4324C234.802 96.3033 234.708 96.1743 234.509 96.0569L233.007 95.177C232.812 95.0616 232.589 95.0008 232.362 95.001C232.127 94.9952 231.895 95.0563 231.693 95.177ZM234.181 96.2095C234.427 96.3503 234.439 96.4911 234.181 96.6318L233.817 96.843C233.707 96.9143 233.578 96.9521 233.447 96.9521C233.316 96.9521 233.188 96.9143 233.078 96.843L231.576 95.9865C231.329 95.834 231.318 95.6932 231.576 95.5524L231.928 95.3412C232.041 95.2717 232.171 95.2348 232.303 95.2348C232.436 95.2348 232.566 95.2717 232.679 95.3412L234.181 96.2095Z" fill="#F4A9FF"/>
<path d="M233.922 93.8628L233.488 94.1092C233.289 94.2265 233.195 94.3556 233.195 94.4846C233.195 94.6137 233.289 94.7427 233.488 94.8601L235.014 95.74C235.209 95.8554 235.432 95.9162 235.659 95.916C235.886 95.9174 236.109 95.8565 236.304 95.74L236.738 95.4819C236.938 95.3763 237.043 95.2473 237.043 95.1182C237.043 94.9891 236.938 94.8601 236.738 94.7427L235.213 93.8628C235.018 93.7472 234.795 93.6862 234.568 93.6862C234.341 93.6862 234.118 93.7472 233.922 93.8628ZM236.41 94.9187C236.668 95.0595 236.668 95.2003 236.41 95.3529L236.046 95.5523C235.936 95.6235 235.808 95.6614 235.676 95.6614C235.545 95.6614 235.417 95.6235 235.307 95.5523L233.817 94.6958C233.559 94.5433 233.559 94.4025 233.817 94.2617L234.181 94.0622C234.292 93.99 234.423 93.9516 234.556 93.9516C234.689 93.9516 234.82 93.99 234.931 94.0622L236.41 94.9187Z" fill="#F4A9FF"/>
<path d="M236.163 92.5958L235.717 92.8422C235.518 92.9595 235.424 93.0886 235.424 93.2176C235.424 93.3467 235.518 93.4757 235.729 93.5931L237.243 94.473C237.442 94.5883 237.669 94.649 237.9 94.649C238.123 94.6519 238.343 94.5909 238.533 94.473L238.979 94.2266C239.179 94.1093 239.273 93.9802 239.273 93.8512C239.273 93.7221 239.179 93.5931 238.967 93.4757L237.454 92.5958C237.255 92.4789 237.028 92.4181 236.797 92.4198C236.573 92.4169 236.353 92.4779 236.163 92.5958ZM238.639 93.6517C238.897 93.7925 238.897 93.945 238.639 94.0858L238.287 94.2853C238.175 94.3575 238.045 94.396 237.912 94.396C237.778 94.396 237.648 94.3575 237.536 94.2853L236.046 93.4288C235.788 93.2763 235.788 93.1355 236.046 92.9947L236.398 92.7952C236.511 92.7257 236.641 92.6888 236.773 92.6888C236.906 92.6888 237.036 92.7257 237.149 92.7952L238.639 93.6517Z" fill="#F4A9FF"/>
<path d="M241.596 89.4513L241.162 89.7094C240.962 89.8268 240.857 89.9441 240.857 90.0731C240.857 90.2022 240.962 90.3313 241.162 90.4486L242.687 91.3286C242.882 91.444 243.105 91.5047 243.332 91.5046C243.559 91.5059 243.782 91.4451 243.977 91.3286L244.412 91.0822C244.611 90.9648 244.717 90.8475 244.717 90.7067C244.717 90.5659 244.611 90.4486 244.412 90.3313L242.886 89.4513C242.688 89.3435 242.466 89.287 242.241 89.287C242.016 89.287 241.794 89.3435 241.596 89.4513ZM244.083 90.5073C244.329 90.6598 244.341 90.8006 244.083 90.9414L243.719 91.1526C243.608 91.2211 243.48 91.2574 243.35 91.2574C243.219 91.2574 243.091 91.2211 242.98 91.1526L241.49 90.2843C241.232 90.1435 241.22 90.0028 241.49 89.862L241.854 89.6508C241.966 89.5785 242.096 89.5401 242.229 89.5401C242.362 89.5401 242.493 89.5785 242.605 89.6508L244.083 90.5073Z" fill="#F4A9FF"/>
<path d="M243.837 88.1606L243.391 88.4188C243.191 88.5361 243.097 88.6534 243.097 88.7942C243.097 88.935 243.191 89.0523 243.403 89.1579L244.916 90.0379C245.116 90.1532 245.342 90.2139 245.573 90.2139C245.797 90.2168 246.017 90.1557 246.207 90.0379L246.653 89.7915C246.84 89.6742 246.946 89.5568 246.946 89.416C246.946 89.2753 246.852 89.1579 246.641 89.0406L245.127 88.1724C244.928 88.0555 244.701 87.9947 244.47 87.9964C244.248 87.9963 244.03 88.0528 243.837 88.1606ZM246.312 89.2166C246.57 89.3691 246.57 89.5099 246.312 89.6507L245.96 89.8619C245.847 89.9315 245.717 89.9683 245.585 89.9683C245.452 89.9683 245.322 89.9315 245.209 89.8619L243.719 88.9937C243.461 88.8529 243.461 88.7121 243.719 88.5713L244.083 88.3601C244.195 88.2879 244.325 88.2494 244.458 88.2494C244.592 88.2494 244.722 88.2879 244.834 88.3601L246.312 89.2166Z" fill="#F4A9FF"/>
<path d="M246.066 86.8232L245.632 87.0813C245.432 87.1986 245.327 87.316 245.327 87.4568C245.327 87.5976 245.432 87.7149 245.632 87.8322L247.145 88.7004C247.345 88.8158 247.572 88.8765 247.802 88.8764C248.028 88.875 248.249 88.8186 248.448 88.7122L248.882 88.4541C249.081 88.3367 249.175 88.2194 249.187 88.0786C249.199 87.9378 249.081 87.8322 248.882 87.7032L247.356 86.8349C247.161 86.7195 246.938 86.6587 246.711 86.6589C246.486 86.6589 246.264 86.7154 246.066 86.8232ZM248.553 87.8792C248.8 88.0317 248.811 88.1725 248.553 88.3133L248.189 88.5245C248.078 88.593 247.95 88.6293 247.82 88.6293C247.689 88.6293 247.561 88.593 247.45 88.5245L245.913 87.6914C245.667 87.5506 245.655 87.4098 245.913 87.269L246.265 87.0579C246.377 86.9856 246.508 86.9472 246.641 86.9472C246.774 86.9472 246.904 86.9856 247.016 87.0579L248.553 87.8792Z" fill="#F4A9FF"/>
<path d="M248.94 85.4152C248.696 85.426 248.459 85.5075 248.26 85.6498L247.826 85.8962C247.626 86.0135 247.532 86.1309 247.532 86.2717C247.532 86.4125 247.626 86.5298 247.826 86.6471L249.351 87.5153C249.542 87.6409 249.768 87.7025 249.996 87.6913C250.222 87.6914 250.444 87.6349 250.642 87.5271L251.076 87.269C251.275 87.1516 251.381 87.0343 251.381 86.9052C251.381 86.7762 251.275 86.6471 251.076 86.5298L249.586 85.6498C249.397 85.5126 249.173 85.4313 248.94 85.4152ZM250.782 86.5884C251.041 86.741 251.041 86.8818 250.782 87.0226L250.419 87.2338C250.309 87.305 250.18 87.3429 250.049 87.3429C249.918 87.3429 249.79 87.305 249.68 87.2338L248.26 86.4125C248.002 86.2599 248.002 86.1191 248.26 85.9783L248.624 85.7671C248.736 85.6949 248.866 85.6565 248.999 85.6565C249.132 85.6565 249.263 85.6949 249.375 85.7671L250.782 86.5884Z" fill="#F4A9FF"/>
<path d="M247.45 86.1544C247.45 86.2952 247.556 86.4126 247.767 86.5416L249.339 87.4451C249.541 87.5665 249.772 87.6313 250.008 87.6328C250.237 87.6328 250.463 87.5764 250.665 87.4685L251.099 87.2104C251.299 87.0931 251.404 86.9757 251.393 86.835C251.381 86.6942 251.287 86.5768 251.076 86.4478L249.504 85.5443C249.303 85.4201 249.071 85.355 248.835 85.3566C248.605 85.3507 248.378 85.4075 248.178 85.5209L247.744 85.779C247.544 85.8963 247.45 86.0137 247.45 86.1544ZM248.096 86.3656C247.838 86.2131 247.826 86.0606 248.096 85.9198L248.459 85.7203C248.571 85.6481 248.702 85.6097 248.835 85.6097C248.968 85.6097 249.098 85.6481 249.21 85.7203L250.759 86.612C251.029 86.7646 251.041 86.9171 250.759 87.0579L250.395 87.2573C250.281 87.3292 250.149 87.3674 250.014 87.3674C249.879 87.3674 249.747 87.3292 249.633 87.2573L248.096 86.3656Z" fill="#F0F2FF"/>
<path d="M245.209 87.445C245.209 87.5858 245.327 87.7148 245.526 87.8322L247.11 88.7356C247.311 88.8598 247.543 88.9249 247.779 88.9233C248.005 88.932 248.229 88.875 248.424 88.7591L248.858 88.5009C249.058 88.3836 249.163 88.2663 249.163 88.1255C249.163 87.9847 249.046 87.8674 248.835 87.7383L247.263 86.8231C247.062 86.6989 246.83 86.6338 246.594 86.6354C246.354 86.6347 246.119 86.6997 245.913 86.8231L245.467 87.0813C245.303 87.1868 245.209 87.3159 245.209 87.445ZM245.855 87.6562C245.597 87.5036 245.585 87.3628 245.855 87.2103L246.218 87.0109C246.333 86.939 246.465 86.9008 246.6 86.9008C246.735 86.9008 246.867 86.939 246.981 87.0109L248.53 87.9025C248.788 88.0551 248.8 88.2076 248.53 88.3484L248.178 88.5596C248.061 88.6312 247.927 88.6691 247.791 88.6691C247.654 88.6691 247.52 88.6312 247.403 88.5596L245.855 87.6562Z" fill="#F0F2FF"/>
<path d="M242.968 88.7356C242.968 88.8764 243.086 89.0055 243.297 89.1228L244.869 90.0379C245.073 90.1532 245.304 90.2138 245.538 90.2139C245.764 90.2227 245.988 90.1656 246.183 90.0497L246.629 89.7916C246.828 89.6742 246.922 89.5569 246.922 89.4161C246.922 89.2753 246.805 89.158 246.594 89.0289L245.022 88.1255C244.818 88.0066 244.588 87.942 244.353 87.9378C244.126 87.9364 243.903 87.9973 243.708 88.1138L243.262 88.3601C243.062 88.4775 242.968 88.6065 242.968 88.7356ZM243.625 88.9468C243.356 88.7943 243.344 88.6535 243.625 88.5127L243.989 88.3015C244.103 88.2296 244.236 88.1914 244.37 88.1914C244.505 88.1914 244.638 88.2296 244.752 88.3015L246.265 89.1697C246.523 89.3222 246.535 89.463 246.265 89.6038L245.913 89.815C245.799 89.8869 245.667 89.9251 245.532 89.9251C245.397 89.9251 245.265 89.8869 245.151 89.815L243.625 88.9468Z" fill="#F0F2FF"/>
<path d="M240.739 90.0263C240.739 90.167 240.845 90.2961 241.056 90.4134L242.628 91.3286C242.834 91.4422 243.062 91.5064 243.297 91.5163C243.524 91.5177 243.747 91.4568 243.942 91.3403L244.388 91.0822C244.588 90.9766 244.681 90.8476 244.681 90.7185C244.681 90.5894 244.576 90.4486 244.353 90.3313L242.781 89.4161C242.575 89.3026 242.346 89.2383 242.112 89.2284C241.885 89.2271 241.662 89.2879 241.467 89.4044L241.021 89.6508C240.821 89.7681 240.727 89.8972 240.739 90.0263ZM241.385 90.2374C241.115 90.0849 241.115 89.9441 241.385 89.8033L241.736 89.5921C241.851 89.5202 241.983 89.4821 242.118 89.4821C242.253 89.4821 242.385 89.5202 242.499 89.5921L244.048 90.4838C244.306 90.6364 244.318 90.7772 244.048 90.9179L243.684 91.1291C243.57 91.201 243.438 91.2392 243.303 91.2392C243.168 91.2392 243.036 91.201 242.922 91.1291L241.385 90.2374Z" fill="#F0F2FF"/>
<path d="M235.283 93.1824C235.283 93.3075 235.389 93.4366 235.6 93.5696L237.172 94.473C237.373 94.5972 237.605 94.6623 237.841 94.6607C238.072 94.6625 238.299 94.6016 238.498 94.4847L238.932 94.2383C239.132 94.121 239.226 93.992 239.226 93.8629C239.226 93.7338 239.12 93.593 238.909 93.4757L237.325 92.5606C237.124 92.4486 236.898 92.3898 236.668 92.3898C236.438 92.3898 236.212 92.4486 236.011 92.5606L235.577 92.8187C235.354 92.9243 235.272 93.0416 235.283 93.1824ZM235.929 93.3936C235.671 93.2411 235.659 93.0885 235.929 92.9477L236.292 92.7365C236.404 92.6643 236.535 92.6259 236.668 92.6259C236.801 92.6259 236.931 92.6643 237.043 92.7365L238.592 93.6282C238.862 93.7808 238.874 93.9216 238.592 94.0624L238.228 94.2735C238.114 94.3454 237.982 94.3836 237.847 94.3836C237.712 94.3836 237.58 94.3454 237.466 94.2735L235.929 93.3936Z" fill="#F0F2FF"/>
<path d="M233.007 94.4729C233.007 94.6137 233.113 94.7311 233.324 94.8601L234.896 95.7635C235.098 95.885 235.329 95.9498 235.565 95.9513C235.794 95.9513 236.02 95.8949 236.222 95.787L236.656 95.5289C236.856 95.4116 236.961 95.2942 236.949 95.1534C236.938 95.0126 236.844 94.8953 236.633 94.7663L235.096 93.8628C234.895 93.7386 234.663 93.6735 234.427 93.6751C234.197 93.6692 233.97 93.726 233.77 93.8394L233.336 94.0975C233.136 94.2148 233.007 94.3321 233.007 94.4729ZM233.653 94.6841C233.394 94.5316 233.383 94.3791 233.653 94.2383L234.016 94.0388C234.128 93.9666 234.258 93.9282 234.392 93.9282C234.525 93.9282 234.655 93.9666 234.767 94.0388L236.316 94.9305C236.586 95.083 236.597 95.2356 236.316 95.3764L235.952 95.5758C235.838 95.6477 235.706 95.6859 235.571 95.6859C235.436 95.6859 235.304 95.6477 235.19 95.5758L233.653 94.6841Z" fill="#F0F2FF"/>
<path d="M230.801 95.7636C230.801 95.9044 230.919 96.0334 231.118 96.1508L232.702 97.0542C232.902 97.1695 233.128 97.2303 233.359 97.2303C233.59 97.2303 233.816 97.1695 234.016 97.0542L234.45 96.7961C234.65 96.6788 234.755 96.5614 234.744 96.4206C234.732 96.2798 234.638 96.1625 234.427 96.0334L232.855 95.13C232.654 95.0058 232.422 94.9407 232.186 94.9423C231.957 94.9423 231.731 94.9987 231.529 95.1066L231.095 95.3647C230.895 95.5055 230.801 95.6345 230.801 95.7636ZM231.447 95.9748C231.189 95.8223 231.177 95.6815 231.447 95.5289L231.81 95.3295C231.925 95.2576 232.057 95.2194 232.192 95.2194C232.327 95.2194 232.459 95.2576 232.573 95.3295L234.122 96.2212C234.38 96.3737 234.392 96.5262 234.122 96.667L233.77 96.8782C233.653 96.9498 233.519 96.9877 233.383 96.9877C233.246 96.9877 233.112 96.9498 232.995 96.8782L231.447 95.9748Z" fill="#F0F2FF"/>
<path d="M228.56 97.0542C228.56 97.195 228.666 97.3241 228.877 97.4414L230.461 98.3566C230.665 98.4718 230.896 98.5324 231.13 98.5325C231.356 98.5413 231.581 98.4842 231.775 98.3683L232.221 98.1102C232.409 98.0046 232.514 97.8755 232.514 97.7347C232.514 97.5939 232.397 97.4766 232.186 97.3475L230.661 96.4441C230.458 96.3252 230.227 96.2606 229.992 96.2564C229.765 96.255 229.542 96.3159 229.347 96.4324L228.901 96.6788C228.654 96.7961 228.56 96.9251 228.56 97.0542ZM229.218 97.2654C228.948 97.1129 228.936 96.9721 229.218 96.8313L229.581 96.6201C229.695 96.5482 229.828 96.51 229.963 96.51C230.097 96.51 230.23 96.5482 230.344 96.6201L231.893 97.5235C232.151 97.676 232.162 97.8168 231.893 97.9576L231.541 98.1688C231.426 98.2407 231.294 98.2789 231.159 98.2789C231.024 98.2789 230.892 98.2407 230.778 98.1688L229.218 97.2654Z" fill="#F0F2FF"/>
<path d="M223.116 100.21C223.116 100.339 223.222 100.468 223.433 100.586L225.005 101.501C225.209 101.62 225.439 101.684 225.674 101.689C225.901 101.69 226.125 101.629 226.319 101.513L226.765 101.266C226.965 101.149 227.059 101.02 227.059 100.891C227.059 100.762 226.953 100.621 226.73 100.504L225.158 99.5885C224.954 99.4732 224.724 99.4126 224.489 99.4125C224.263 99.4038 224.039 99.4608 223.844 99.5767L223.41 99.8349C223.21 99.9405 223.105 100.07 223.116 100.21ZM223.762 100.41C223.492 100.269 223.492 100.116 223.762 99.9757L224.114 99.7645C224.228 99.6926 224.36 99.6544 224.495 99.6544C224.63 99.6544 224.762 99.6926 224.876 99.7645L226.425 100.656C226.683 100.809 226.695 100.949 226.425 101.09L226.061 101.301C225.947 101.373 225.815 101.412 225.68 101.412C225.545 101.412 225.413 101.373 225.299 101.301L223.762 100.41Z" fill="#F0F2FF"/>
<path d="M220.875 101.501C220.875 101.626 220.981 101.755 221.192 101.888L222.764 102.792C222.965 102.916 223.197 102.981 223.433 102.979C223.664 102.981 223.891 102.92 224.09 102.803L224.524 102.557C224.724 102.44 224.818 102.311 224.818 102.181C224.818 102.052 224.712 101.912 224.501 101.794L222.917 100.903C222.716 100.791 222.49 100.732 222.26 100.732C222.03 100.732 221.804 100.791 221.603 100.903L221.169 101.161C220.969 101.243 220.864 101.36 220.875 101.501ZM221.521 101.712C221.263 101.56 221.251 101.407 221.521 101.266L221.873 101.055C221.987 100.983 222.119 100.945 222.254 100.945C222.389 100.945 222.521 100.983 222.635 101.055L224.184 101.947C224.454 102.099 224.466 102.252 224.184 102.381L223.82 102.592C223.706 102.664 223.574 102.702 223.439 102.702C223.304 102.702 223.172 102.664 223.058 102.592L221.521 101.712Z" fill="#F0F2FF"/>
<path d="M218.635 102.792C218.635 102.932 218.74 103.05 218.951 103.179L220.524 104.082C220.724 104.206 220.956 104.271 221.192 104.27C221.421 104.27 221.647 104.213 221.849 104.106L222.283 103.847C222.483 103.73 222.577 103.613 222.577 103.472C222.577 103.331 222.471 103.214 222.26 103.085L220.688 102.181C220.487 102.057 220.255 101.992 220.019 101.994C219.79 101.994 219.564 102.05 219.362 102.158L218.928 102.416C218.728 102.533 218.635 102.651 218.635 102.792ZM219.28 103.003C219.022 102.85 219.01 102.698 219.28 102.557L219.644 102.357C219.755 102.285 219.886 102.247 220.019 102.247C220.152 102.247 220.283 102.285 220.394 102.357L221.943 103.249C222.213 103.402 222.225 103.554 221.943 103.695L221.579 103.894C221.465 103.966 221.333 104.004 221.198 104.004C221.063 104.004 220.931 103.966 220.817 103.894L219.28 103.003Z" fill="#F0F2FF"/>
<path d="M216.393 104.082C216.393 104.223 216.499 104.352 216.71 104.469L218.294 105.373C218.494 105.488 218.721 105.549 218.951 105.549C219.182 105.549 219.409 105.488 219.608 105.373L220.042 105.115C220.242 104.997 220.347 104.88 220.336 104.739C220.324 104.598 220.23 104.481 220.019 104.352L218.447 103.449C218.238 103.322 217.999 103.253 217.755 103.249C217.525 103.249 217.3 103.306 217.097 103.413L216.663 103.672C216.487 103.824 216.393 103.953 216.393 104.082ZM217.039 104.293C216.781 104.141 216.769 104 217.039 103.848L217.403 103.648C217.517 103.576 217.649 103.538 217.784 103.538C217.919 103.538 218.051 103.576 218.165 103.648L219.714 104.54C219.972 104.692 219.984 104.845 219.714 104.986L219.35 105.197C219.236 105.269 219.104 105.307 218.969 105.307C218.834 105.307 218.702 105.269 218.588 105.197L217.039 104.293Z" fill="#F0F2FF"/>
<path d="M210.938 107.227C210.938 107.367 211.055 107.496 211.266 107.614L212.838 108.529C213.044 108.642 213.273 108.707 213.507 108.717C213.734 108.718 213.957 108.657 214.152 108.541L214.598 108.283C214.798 108.177 214.892 108.048 214.892 107.919C214.892 107.79 214.774 107.649 214.563 107.532L212.991 106.616C212.786 106.503 212.557 106.439 212.322 106.429C212.095 106.427 211.872 106.488 211.677 106.605L211.231 106.851C211.032 106.968 210.938 107.098 210.938 107.227ZM211.595 107.438C211.325 107.285 211.313 107.144 211.595 107.004L211.888 106.769C212.002 106.697 212.134 106.659 212.269 106.659C212.404 106.659 212.536 106.697 212.651 106.769L214.235 107.708C214.493 107.86 214.504 108.001 214.235 108.142L213.883 108.353C213.768 108.425 213.636 108.463 213.501 108.463C213.366 108.463 213.234 108.425 213.12 108.353L211.595 107.438Z" fill="#F0F2FF"/>
<path d="M208.697 108.529C208.697 108.658 208.814 108.787 209.025 108.904L210.598 109.819C210.801 109.938 211.031 110.003 211.266 110.007C211.493 110.009 211.717 109.948 211.912 109.831L212.357 109.585C212.557 109.468 212.651 109.338 212.651 109.209C212.651 109.08 212.533 108.94 212.322 108.822L210.715 107.942C210.511 107.827 210.28 107.766 210.046 107.766C209.82 107.758 209.595 107.815 209.401 107.931L208.955 108.189C208.791 108.259 208.697 108.388 208.697 108.529ZM209.354 108.74C209.084 108.588 209.084 108.435 209.354 108.294L209.706 108.083C209.82 108.011 209.952 107.973 210.087 107.973C210.222 107.973 210.354 108.011 210.468 108.083L212.017 108.975C212.275 109.127 212.287 109.268 212.017 109.409L211.653 109.62C211.539 109.692 211.407 109.73 211.272 109.73C211.137 109.73 211.005 109.692 210.891 109.62L209.354 108.74Z" fill="#F0F2FF"/>
<path d="M206.467 109.82C206.467 109.945 206.573 110.074 206.784 110.207L208.368 111.11C208.569 111.234 208.801 111.299 209.037 111.298C209.264 111.299 209.487 111.238 209.682 111.122L210.128 110.876C210.328 110.758 210.421 110.629 210.421 110.5C210.421 110.371 210.316 110.23 210.105 110.113L208.521 109.198C208.317 109.081 208.087 109.02 207.852 109.022C207.626 109.013 207.401 109.07 207.207 109.186L206.773 109.444C206.561 109.561 206.456 109.679 206.467 109.82ZM207.113 110.031C206.855 109.878 206.843 109.726 207.113 109.585L207.465 109.374C207.579 109.302 207.711 109.264 207.846 109.264C207.981 109.264 208.113 109.302 208.227 109.374L209.776 110.265C210.046 110.418 210.046 110.57 209.776 110.7L209.412 110.911C209.298 110.983 209.166 111.021 209.031 111.021C208.896 111.021 208.764 110.983 208.65 110.911L207.113 110.031Z" fill="#F0F2FF"/>
<path d="M204.543 111.462L206.115 112.366C206.316 112.49 206.548 112.555 206.784 112.553C207.013 112.553 207.239 112.497 207.441 112.389L207.875 112.131C208.075 112.014 208.169 111.896 208.169 111.755C208.169 111.615 208.063 111.497 207.852 111.368L206.268 110.465C206.072 110.338 205.844 110.273 205.611 110.277C205.382 110.277 205.156 110.334 204.954 110.441L204.52 110.7C204.32 110.817 204.215 110.934 204.226 111.075C204.238 111.216 204.332 111.368 204.543 111.462ZM204.872 111.286C204.614 111.134 204.602 110.981 204.872 110.84L205.235 110.641C205.347 110.569 205.478 110.53 205.611 110.53C205.744 110.53 205.874 110.569 205.986 110.641L207.535 111.533C207.805 111.685 207.817 111.838 207.535 111.978L207.171 112.178C207.057 112.25 206.925 112.288 206.79 112.288C206.655 112.288 206.523 112.25 206.409 112.178L204.872 111.286Z" fill="#F0F2FF"/>
<path d="M197.809 106.464L197.386 106.71C197.211 106.81 197.013 106.862 196.811 106.863C196.606 106.855 196.405 106.799 196.225 106.699L194.946 105.959C194.758 105.854 194.664 105.737 194.664 105.619C194.664 105.502 194.746 105.396 194.934 105.291L195.356 105.044C195.528 104.937 195.729 104.884 195.931 104.892C196.139 104.888 196.343 104.945 196.518 105.056L196.706 105.162C196.706 105.162 196.706 105.162 196.706 105.232L196.471 105.373C196.453 105.387 196.43 105.395 196.407 105.395C196.383 105.395 196.361 105.387 196.342 105.373L196.178 105.279C196.094 105.231 195.999 105.205 195.902 105.205C195.805 105.205 195.71 105.231 195.626 105.279L195.31 105.467C195.134 105.572 195.134 105.678 195.31 105.783L196.553 106.499C196.635 106.554 196.731 106.584 196.829 106.584C196.927 106.584 197.023 106.554 197.105 106.499L197.421 106.311C197.597 106.218 197.597 106.112 197.421 105.995L197.245 105.901C197.245 105.901 197.245 105.901 197.245 105.83L197.48 105.69C197.5 105.678 197.522 105.672 197.545 105.672C197.567 105.672 197.59 105.678 197.609 105.69L197.797 105.795C197.985 105.901 198.079 106.018 198.079 106.135C198.079 106.253 197.961 106.358 197.809 106.464Z" fill="#F0F2FF"/>
<path d="M199.099 105.69L198.876 105.83C198.857 105.842 198.834 105.848 198.812 105.848C198.789 105.848 198.767 105.842 198.747 105.83L196.401 104.481C196.401 104.481 196.401 104.481 196.401 104.411L197.269 103.906C197.449 103.808 197.65 103.755 197.856 103.754C198.061 103.763 198.262 103.819 198.442 103.918L198.759 104.106C199.052 104.282 199.123 104.446 198.97 104.634L200.284 104.915C200.366 104.915 200.366 104.915 200.284 104.986L200.155 105.126C200.098 105.144 200.037 105.144 199.979 105.126L198.7 104.845L198.325 105.068L199.158 105.549C199.158 105.549 199.146 105.666 199.099 105.69ZM197.926 104.915L198.395 104.645C198.571 104.54 198.571 104.434 198.395 104.317L198.078 104.141C197.997 104.086 197.901 104.056 197.803 104.056C197.705 104.056 197.608 104.086 197.527 104.141L197.058 104.411L197.867 104.88L197.926 104.915Z" fill="#F0F2FF"/>
<path d="M202.056 103.988L200.883 104.669C200.863 104.68 200.841 104.686 200.818 104.686C200.796 104.686 200.773 104.68 200.754 104.669L198.407 103.331C198.407 103.331 198.407 103.331 198.407 103.249L199.58 102.569C199.597 102.555 199.618 102.548 199.639 102.548C199.66 102.548 199.681 102.555 199.698 102.569L199.897 102.674C199.897 102.674 199.897 102.674 199.897 102.745L199.064 103.237L199.709 103.601H199.792L200.507 103.191C200.527 103.179 200.549 103.173 200.572 103.173C200.594 103.173 200.617 103.179 200.636 103.191L200.836 103.308C200.836 103.308 200.836 103.308 200.836 103.378L200.132 103.789L200.812 104.188H200.906L201.739 103.695C201.759 103.684 201.781 103.678 201.804 103.678C201.826 103.678 201.849 103.684 201.868 103.695L202.056 103.812C202.056 103.812 202.091 103.965 202.056 103.988Z" fill="#F0F2FF"/>
<path d="M202.502 103.648L200.155 102.299C200.155 102.299 200.155 102.299 200.155 102.228L201.059 101.7C201.239 101.603 201.44 101.551 201.645 101.548C201.852 101.55 202.054 101.607 202.232 101.712L203.499 102.451C203.687 102.557 203.781 102.674 203.781 102.792C203.781 102.909 203.699 103.014 203.523 103.12L202.607 103.648C202.591 103.655 202.573 103.659 202.555 103.659C202.536 103.659 202.518 103.655 202.502 103.648ZM202.643 103.273L203.171 102.968C203.347 102.862 203.335 102.756 203.171 102.651L201.927 101.935C201.846 101.884 201.753 101.857 201.657 101.857C201.562 101.857 201.468 101.884 201.387 101.935L200.859 102.24L202.584 103.237C202.594 103.245 202.605 103.251 202.618 103.253C202.63 103.255 202.643 103.254 202.654 103.249L202.643 103.273Z" fill="#F0F2FF"/>
<path d="M202.619 100.903L204.966 102.252C204.966 102.252 204.966 102.252 204.966 102.322L204.743 102.451C204.723 102.463 204.701 102.469 204.678 102.469C204.656 102.469 204.633 102.463 204.614 102.451L202.267 101.114V101.032L202.502 100.903C202.52 100.893 202.54 100.888 202.56 100.888C202.581 100.888 202.601 100.893 202.619 100.903Z" fill="#F0F2FF"/>
<path d="M206.221 101.583L205.986 101.724C205.967 101.735 205.945 101.741 205.922 101.741C205.899 101.741 205.877 101.735 205.857 101.724L203.828 100.551C203.815 100.545 203.801 100.542 203.787 100.542C203.772 100.542 203.758 100.545 203.745 100.551L203.288 100.82C203.266 100.832 203.242 100.838 203.217 100.838C203.193 100.838 203.169 100.832 203.147 100.82L202.959 100.703C202.959 100.703 202.959 100.703 202.959 100.633L204.332 99.8349C204.352 99.8236 204.374 99.8176 204.397 99.8176C204.419 99.8176 204.442 99.8236 204.461 99.8349L204.661 99.9522C204.661 99.9522 204.661 99.9522 204.661 100.023L204.203 100.292L206.221 101.466C206.221 101.466 206.256 101.56 206.221 101.583Z" fill="#F0F2FF"/>
<path d="M209.014 99.9756L208.579 100.222C208.404 100.321 208.206 100.374 208.005 100.375C207.798 100.372 207.596 100.316 207.418 100.21L206.151 99.4711C205.963 99.3655 205.857 99.2482 205.857 99.1308C205.857 99.0135 205.951 98.9079 206.127 98.8023L206.561 98.5559C206.735 98.4523 206.934 98.3994 207.136 98.4034C207.343 98.4056 207.545 98.4622 207.723 98.5677L207.899 98.6733C207.899 98.6733 207.899 98.6733 207.899 98.7554L207.664 98.8845C207.645 98.8958 207.622 98.9018 207.6 98.9018C207.577 98.9018 207.555 98.8958 207.535 98.8845L207.359 98.7789C207.278 98.7278 207.185 98.7006 207.089 98.7006C206.994 98.7006 206.9 98.7278 206.82 98.7789L206.491 98.9549C206.315 99.0605 206.315 99.166 206.491 99.2716L207.664 99.9873C207.746 100.042 207.842 100.072 207.94 100.072C208.038 100.072 208.134 100.042 208.216 99.9873L208.544 99.8114C208.72 99.7058 208.709 99.6002 208.544 99.4828L208.38 99.389C208.38 99.389 208.38 99.389 208.38 99.3186L208.615 99.1778C208.636 99.1665 208.661 99.1606 208.685 99.1606C208.71 99.1606 208.734 99.1665 208.755 99.1778L208.931 99.2834C209.119 99.4007 209.213 99.5063 209.213 99.6236C209.213 99.741 209.19 99.87 209.014 99.9756Z" fill="#F0F2FF"/>
<path d="M210.175 99.3069L209.905 99.4594C209.89 99.47 209.871 99.4757 209.852 99.4757C209.834 99.4757 209.815 99.47 209.8 99.4594L208.122 97.7464C208.122 97.7464 208.122 97.7464 208.122 97.6643L208.486 97.4531C208.51 97.4424 208.536 97.4369 208.562 97.4369C208.588 97.4369 208.614 97.4424 208.638 97.4531L211.618 98.4269C211.618 98.4269 211.677 98.4269 211.618 98.4269L211.348 98.5794H211.278L210.644 98.38L209.835 98.8493L210.187 99.213C210.187 99.213 210.21 99.2834 210.175 99.3069ZM208.685 97.7464L209.588 98.6381L210.257 98.2509L208.708 97.7347L208.685 97.7464Z" fill="#F0F2FF"/>
<path d="M212.357 98.0397L212.135 98.1687C212.115 98.1801 212.093 98.186 212.07 98.186C212.047 98.186 212.025 98.1801 212.005 98.1687L209.659 96.8312C209.659 96.8312 209.659 96.8312 209.659 96.7608L210.527 96.2563C210.702 96.1569 210.9 96.1044 211.102 96.1038C211.313 96.1038 211.519 96.1606 211.7 96.268L212.017 96.4557C212.311 96.62 212.381 96.796 212.217 96.972L213.542 97.2653C213.613 97.2653 213.625 97.2653 213.542 97.3357L213.32 97.4648C213.259 97.4883 213.192 97.4883 213.132 97.4648L211.888 97.2184L211.513 97.4296L212.346 97.9224C212.346 97.9224 212.404 98.0162 212.357 98.0397ZM211.184 97.2536L211.653 96.9837C211.829 96.8781 211.829 96.7725 211.653 96.6669L211.337 96.4792C211.254 96.4271 211.159 96.3994 211.061 96.3994C210.963 96.3994 210.868 96.4271 210.785 96.4792L210.316 96.7491L211.125 97.2066C211.125 97.2066 211.184 97.277 211.219 97.2536H211.184Z" fill="#F0F2FF"/>
<path d="M214 97.019L211.653 95.6697C211.653 95.6697 211.653 95.6697 211.653 95.5993L212.557 95.0713C212.732 94.972 212.93 94.9194 213.132 94.9188C213.342 94.9189 213.549 94.9756 213.73 95.0831L214.997 95.8222C215.185 95.9278 215.279 96.0334 215.279 96.1625C215.279 96.2916 215.197 96.3854 215.021 96.491L214.106 97.019C214.089 97.0264 214.071 97.0303 214.053 97.0303C214.035 97.0303 214.017 97.0264 214 97.019ZM214.141 96.6318L214.669 96.3385C214.845 96.2329 214.833 96.1273 214.669 96.0217L213.425 95.306C213.345 95.252 213.251 95.2232 213.155 95.2232C213.059 95.2232 212.965 95.252 212.885 95.306L212.357 95.5993L214.082 96.5966L214.141 96.6318Z" fill="#F0F2FF"/>
<path d="M179.623 46.9315C175.692 49.2076 173.252 54.0768 173.228 61.0109V70.6788L181.441 65.8683V56.177C181.441 49.2546 183.905 44.4441 187.836 42.0975L179.623 46.9315Z" fill="#7621D8"/>
<path d="M224.923 76.0876C223.116 65.704 216.581 51.7537 203.511 43.6228C197.41 40.1029 191.86 39.7979 187.871 42.1093L179.623 46.9315C183.612 44.5849 189.091 44.9369 195.192 48.4567C205.775 54.5578 214.575 68.2735 216.581 80.9567L213.718 82.6228C216.7 85.9289 219.474 89.4163 222.025 93.065C222.025 93.065 227.223 77.214 227.81 74.4333L224.923 76.0876Z" fill="url(#paint1_linear_62_482)"/>
<path d="M160.885 70.8782C158.968 70.3336 156.937 70.3336 155.019 70.8782C152.332 71.6526 150.983 73.084 150.959 74.5271C150.959 75.0551 150.959 75.5948 150.959 76.1345C150.959 77.5659 152.356 78.9973 155.042 79.7482C156.942 80.2818 158.951 80.2818 160.85 79.7482C163.525 78.9856 164.875 77.5425 164.898 76.1111C164.898 75.5714 164.898 75.0316 164.898 74.5037C164.957 73.0488 163.56 71.6291 160.885 70.8782Z" fill="url(#paint2_linear_62_482)"/>
<path style="mix-blend-mode:multiply" opacity="0.2" d="M151.675 76.2636V77.8006C151.465 77.5397 151.299 77.2465 151.182 76.9323V75.4423C151.301 75.7407 151.468 76.018 151.675 76.2636ZM155.195 78.2699V79.7834C155.352 79.8335 155.513 79.8727 155.676 79.9007V78.3755L155.195 78.2699ZM157.225 78.5515V80.1354H157.718V78.6101L157.225 78.5515ZM156.204 78.4576V80.0181H156.697V78.528C156.579 78.5163 156.415 78.4811 156.251 78.4576H156.204ZM152.156 76.8267V78.3285C152.307 78.4657 152.468 78.5912 152.637 78.704V77.167C152.487 77.0613 152.342 76.9477 152.203 76.8267H152.156ZM154.186 78V79.5136L154.679 79.6778V78.1525L154.186 78ZM153.224 77.5072V79.0208L153.717 79.2554V77.7302L153.224 77.5072ZM158.292 78.5749V80.1471H158.785V78.6101L158.292 78.5749ZM163.338 77.12V78.6101C163.505 78.4898 163.665 78.3605 163.819 78.2229V76.7681C163.678 76.8854 163.49 77.0027 163.326 77.12H163.338ZM159.301 78.5163V80.065L159.782 79.9946V78.4341C159.62 78.4729 159.456 78.5003 159.29 78.5163H159.301ZM164.347 76.1697V77.7067C164.554 77.4332 164.717 77.1282 164.828 76.8033V75.3484C164.709 75.6542 164.543 75.9393 164.335 76.1932L164.347 76.1697ZM162.329 77.6598V79.185C162.493 79.1029 162.657 79.0325 162.81 78.9386V77.4368C162.61 77.5424 162.481 77.6128 162.317 77.6832L162.329 77.6598ZM161.319 78.0587V79.584L161.801 79.4197V77.9296L161.319 78.0587ZM160.31 78.3285V79.8655L160.792 79.7482V78.2229L160.31 78.3285Z" fill="url(#paint3_linear_62_482)"/>
<path d="M162.915 71.6995C165.637 73.2599 165.649 75.806 162.915 77.3899C161.386 78.165 159.696 78.569 157.981 78.569C156.267 78.569 154.577 78.165 153.048 77.3899C150.314 75.8294 150.302 73.2834 153.048 71.6995C154.577 70.9243 156.267 70.5204 157.981 70.5204C159.696 70.5204 161.386 70.9243 162.915 71.6995Z" fill="#FFCE45"/>
<path d="M162.469 71.9576C164.957 73.3773 164.968 75.7004 162.469 77.1435C161.077 77.8496 159.537 78.2176 157.976 78.2176C156.414 78.2176 154.875 77.8496 153.482 77.1435C151.006 75.7239 150.995 73.4008 153.482 71.9576C154.874 71.2497 156.414 70.8807 157.976 70.8807C159.537 70.8807 161.077 71.2497 162.469 71.9576Z" fill="#FFCE45"/>
<path opacity="0.6" d="M153.611 72.3331C154.965 71.6448 156.463 71.286 157.982 71.286C159.5 71.286 160.998 71.6448 162.352 72.3331C164.112 73.3304 164.593 74.797 163.795 76.0641C164.828 74.7149 164.394 73.084 162.469 71.9928C161.079 71.2869 159.541 70.9189 157.982 70.9189C156.422 70.9189 154.884 71.2869 153.494 71.9928C151.581 73.1075 151.147 74.7383 152.203 76.0876C151.394 74.8205 151.863 73.3539 153.611 72.3331Z" fill="#E0890B"/>
<path d="M160.85 68.5551C158.951 68.0215 156.942 68.0215 155.042 68.5551C152.367 69.3177 151.018 70.7609 150.995 72.1923C150.995 72.732 150.995 73.2717 150.995 73.7997C150.995 75.2428 152.391 76.6625 155.078 77.4134C156.977 77.947 158.986 77.947 160.885 77.4134C163.56 76.639 164.91 75.2076 164.933 73.7645C164.933 73.2365 164.933 72.6968 164.933 72.1571C164.957 70.7374 163.537 69.306 160.85 68.5551Z" fill="url(#paint4_linear_62_482)"/>
<path style="mix-blend-mode:multiply" opacity="0.2" d="M151.652 73.9171V75.4424C151.439 75.1831 151.272 74.8895 151.159 74.5741V73.1193C151.283 73.4077 151.449 73.6765 151.652 73.9171ZM155.171 75.9117V77.4369L155.664 77.5543V76.0525L155.171 75.9117ZM157.189 76.205V77.7772H157.682V76.2637L157.189 76.205ZM156.18 76.0994V77.6599L156.673 77.7303V76.2637L156.18 76.0994ZM152.18 74.5037V76.0055L152.672 76.3927V74.8557C152.5 74.7508 152.335 74.6331 152.18 74.5037ZM154.209 75.677V77.1906L154.702 77.3548V75.7943L154.209 75.677ZM153.224 75.1842V76.6978C153.383 76.7853 153.548 76.8636 153.717 76.9324V75.4189L153.224 75.1842ZM158.292 76.2637V77.8241H158.785V76.2637H158.292ZM163.338 74.7971V76.3341C163.514 76.205 163.666 76.0759 163.819 75.9469V74.4451C163.654 74.5725 163.481 74.69 163.302 74.7971H163.338ZM159.266 76.2637V77.8124L159.759 77.7303V76.1229L159.266 76.2637ZM164.311 73.9171V75.4424C164.527 75.1719 164.693 74.8663 164.804 74.5389V73.0254C164.692 73.3486 164.525 73.6502 164.311 73.9171ZM162.293 75.4072V76.9207L162.774 76.686V75.0904L162.293 75.4072ZM161.284 75.7943V77.3196L161.765 77.1554V75.6066L161.284 75.7943ZM160.264 76.029V77.5777L160.756 77.4487V75.9234L160.264 76.029Z" fill="url(#paint5_linear_62_482)"/>
<path d="M162.88 69.3764C165.614 70.9369 165.625 73.4946 162.88 75.0786C161.351 75.8537 159.661 76.2576 157.946 76.2576C156.232 76.2576 154.542 75.8537 153.013 75.0786C150.279 73.5181 150.267 70.9721 153.013 69.3881C154.54 68.6093 156.23 68.2024 157.945 68.2003C159.66 68.1983 161.35 68.6012 162.88 69.3764Z" fill="#FFCE45"/>
<path d="M162.446 69.6346C164.933 71.0543 164.945 73.3774 162.446 74.8205C161.054 75.5293 159.514 75.8988 157.952 75.8988C156.39 75.8988 154.85 75.5293 153.458 74.8205C150.971 73.4008 150.971 71.0777 153.458 69.6346C154.852 68.9312 156.391 68.5648 157.952 68.5648C159.513 68.5648 161.052 68.9312 162.446 69.6346Z" fill="#FFCE45"/>
<path opacity="0.6" d="M153.588 70.01C154.942 69.3217 156.439 68.9629 157.958 68.9629C159.477 68.9629 160.974 69.3217 162.328 70.01C164.088 71.019 164.569 72.4856 163.772 73.7528C164.804 72.4035 164.358 70.7726 162.446 69.6698C161.052 68.9664 159.513 68.6 157.952 68.6C156.391 68.6 154.852 68.9664 153.458 69.6698C151.558 70.7844 151.112 72.4152 152.168 73.7645C151.37 72.4974 151.839 71.0308 153.588 70.01Z" fill="#E0890B"/>
<path d="M160.862 66.7248C158.944 66.1801 156.913 66.1801 154.995 66.7248C152.32 67.4991 150.971 68.9305 150.948 70.3737C150.948 70.9134 150.948 71.4414 150.948 71.9811C150.948 73.4242 152.344 74.8439 155.031 75.5948C156.948 76.1394 158.98 76.1394 160.897 75.5948C163.572 74.8204 164.921 73.389 164.945 71.9459C164.945 71.4062 164.945 70.8782 164.945 70.3385C164.957 68.8953 163.549 67.4757 160.862 66.7248Z" fill="url(#paint6_linear_62_482)"/>
<path style="mix-blend-mode:multiply" opacity="0.2" d="M151.663 72.122V73.6472C151.451 73.388 151.284 73.0943 151.171 72.779V71.2889C151.292 71.5897 151.458 71.8705 151.663 72.122ZM155.183 74.1165V75.6536L155.664 75.7709V74.2221L155.183 74.1165ZM157.201 74.4099V75.9821H157.694V74.4333L157.201 74.4099ZM156.192 74.3043V75.8647L156.685 75.9351V74.3747L156.192 74.3043ZM152.144 72.6734V74.1752C152.301 74.3096 152.466 74.435 152.637 74.5507V73.0254C152.482 72.9161 152.334 72.7987 152.191 72.6734H152.144ZM154.174 73.8467V75.325L154.667 75.4893V73.9171L154.174 73.8467ZM153.224 73.3539V74.8674C153.384 74.955 153.548 75.0333 153.717 75.1021V73.5886L153.224 73.3539ZM158.292 74.4333V75.9938H158.785V74.3981L158.292 74.4333ZM163.338 72.9667V74.5037C163.505 74.3834 163.665 74.2541 163.819 74.1165V72.6147C163.657 72.7418 163.489 72.8593 163.314 72.9667H163.338ZM159.301 74.3629V75.9234L159.794 75.8413V74.2925C159.607 74.316 159.442 74.3512 159.278 74.3629H159.301ZM164.347 72.0164V73.5534C164.554 73.2799 164.717 72.9748 164.828 72.6499V71.1951C164.711 71.5043 164.54 71.7903 164.323 72.0398L164.347 72.0164ZM162.329 73.5182V75.0904L162.81 74.8557V73.307L162.329 73.5182ZM161.32 73.9054V75.4306L161.801 75.2664V73.7763L161.32 73.9054ZM160.31 74.1752V75.7239L160.792 75.5949V74.0696L160.31 74.1752Z" fill="url(#paint7_linear_62_482)"/>
<path d="M162.903 67.546C165.625 69.1065 165.637 71.6643 162.903 73.2482C161.374 74.0233 159.684 74.4273 157.97 74.4273C156.255 74.4273 154.565 74.0233 153.036 73.2482C150.302 71.6877 150.291 69.1417 153.036 67.5578C154.564 66.7808 156.254 66.3748 157.968 66.3728C159.683 66.3708 161.373 66.7727 162.903 67.546Z" fill="#FFCE45"/>
<path d="M162.458 67.8042C164.957 69.2239 164.957 71.5704 162.481 72.9901C161.089 73.6989 159.549 74.0684 157.987 74.0684C156.425 74.0684 154.886 73.6989 153.494 72.9901C151.006 71.5704 151.006 69.2473 153.494 67.8042C154.883 67.1002 156.418 66.7333 157.976 66.7333C159.533 66.7333 161.068 67.1002 162.458 67.8042Z" fill="#FFCE45"/>
<path opacity="0.6" d="M153.599 68.1797C154.953 67.4913 156.451 67.1325 157.97 67.1325C159.489 67.1325 160.986 67.4913 162.34 68.1797C164.1 69.1887 164.581 70.6553 163.783 71.9224C164.816 70.5732 164.382 68.9423 162.458 67.8394C161.067 67.1334 159.529 66.7655 157.97 66.7655C156.41 66.7655 154.873 67.1334 153.482 67.8394C151.569 68.954 151.135 70.5849 152.191 71.9342C151.382 70.667 151.851 69.2239 153.599 68.1797Z" fill="#E0890B"/>
<path d="M160.885 64.8944C158.968 64.3498 156.937 64.3498 155.019 64.8944C152.332 65.6688 150.983 67.1002 150.959 68.5434C150.959 69.0831 150.959 69.6111 150.959 70.1508C150.959 71.5939 152.356 73.0136 155.042 73.7645C156.942 74.2981 158.951 74.2981 160.85 73.7645C163.596 72.9901 164.957 71.5704 164.957 70.1156C164.957 69.5759 164.957 69.0479 164.957 68.5082C164.957 67.065 163.56 65.704 160.885 64.8944Z" fill="url(#paint8_linear_62_482)"/>
<path style="mix-blend-mode:multiply" opacity="0.2" d="M151.675 70.2916V71.8169C151.463 71.5577 151.296 71.264 151.182 70.9487V69.4586C151.304 69.7594 151.47 70.0402 151.675 70.2916ZM155.195 72.2862V73.8232L155.676 73.9406V72.3918L155.195 72.2862ZM157.225 72.5795V74.1517H157.718V72.603L157.225 72.5795ZM156.204 72.474V74.0344L156.697 74.1048V72.5443C156.579 72.5326 156.415 72.4974 156.251 72.474H156.204ZM152.156 70.8431V72.3449C152.307 72.482 152.468 72.6075 152.637 72.7203V71.1951C152.486 71.0855 152.341 70.968 152.203 70.8431H152.156ZM154.186 72.0164V73.5299L154.679 73.6942V72.1689L154.186 72.0164ZM153.224 71.5705V73.0841C153.384 73.1716 153.548 73.2499 153.717 73.3187V71.7934L153.224 71.5705ZM158.292 72.6499V74.2104H158.785V72.5678L158.292 72.6499ZM163.338 71.1833V72.7203C163.505 72.6 163.665 72.4707 163.819 72.3332V70.7844C163.678 70.9017 163.49 71.0191 163.326 71.1364L163.338 71.1833ZM159.301 72.5795V74.1283L159.782 74.0579V72.4622L159.301 72.5795ZM164.347 70.233V71.77C164.554 71.4965 164.717 71.1915 164.828 70.8665V69.3647C164.709 69.6706 164.543 69.9557 164.335 70.2095L164.347 70.233ZM162.329 71.7348V73.2483L162.81 73.0137V71.4767L162.329 71.7348ZM161.319 72.122V73.6472L161.801 73.483V71.946L161.319 72.122ZM160.31 72.3918V73.9171L160.792 73.788V72.2628L160.31 72.3918Z" fill="url(#paint9_linear_62_482)"/>
<path d="M162.915 65.7041C165.637 67.2646 165.649 69.8223 162.915 71.4063C161.386 72.1814 159.696 72.5854 157.981 72.5854C156.267 72.5854 154.577 72.1814 153.048 71.4063C150.314 69.8458 150.302 67.2998 153.048 65.7158C154.576 64.9389 156.266 64.5329 157.98 64.5309C159.694 64.5289 161.385 64.9308 162.915 65.7041Z" fill="#FFCE45"/>
<path d="M162.469 65.9738C164.957 67.3935 164.968 69.7166 162.469 71.1598C161.077 71.8686 159.538 72.2381 157.976 72.2381C156.414 72.2381 154.874 71.8686 153.482 71.1598C151.006 69.7401 150.995 67.417 153.482 65.9738C154.874 65.266 156.414 64.897 157.976 64.897C159.537 64.897 161.077 65.266 162.469 65.9738Z" fill="#FFCE45"/>
<path opacity="0.6" d="M153.611 66.3493C154.965 65.661 156.463 65.3022 157.982 65.3022C159.5 65.3022 160.998 65.661 162.352 66.3493C164.112 67.3466 164.593 68.825 163.795 70.0921C164.828 68.7311 164.394 67.112 162.469 66.0091C161.079 65.3031 159.541 64.9352 157.982 64.9352C156.422 64.9352 154.884 65.3031 153.494 66.0091C151.581 67.1237 151.147 68.7546 152.203 70.1038C151.394 68.8367 151.863 67.3701 153.611 66.3493Z" fill="#E0890B"/>
<path d="M161.437 63.0876C159.519 62.5429 157.488 62.5429 155.57 63.0876C152.895 63.8619 151.546 65.2933 151.523 66.7365C151.523 67.2645 151.523 67.8042 151.523 68.3439C151.523 69.7753 152.919 71.2067 155.606 71.9459C157.504 72.4856 159.515 72.4856 161.413 71.9459C164.1 71.1832 165.449 69.7401 165.473 68.3087C165.473 67.769 165.473 67.2293 165.473 66.7013C165.52 65.2581 164.159 63.8385 161.437 63.0876Z" fill="url(#paint10_linear_62_482)"/>
<path style="mix-blend-mode:multiply" opacity="0.2" d="M152.273 68.4729V70.0099C152.059 69.752 151.892 69.458 151.781 69.1417V67.6516C151.9 67.9501 152.066 68.2274 152.273 68.4729ZM155.793 70.4792V72.0045L156.286 72.1218V70.5731L155.793 70.4792ZM157.811 70.7608V72.3447H158.304V70.796L157.811 70.7608ZM156.802 70.6669V72.2157C156.961 72.2514 157.121 72.275 157.283 72.2861V70.7373C157.178 70.7256 157.014 70.6904 156.849 70.6669H156.802ZM152.754 69.0361V70.5379C152.911 70.6723 153.076 70.7977 153.247 70.9133V69.3763C153.091 69.2734 152.942 69.1597 152.801 69.0361H152.754ZM154.773 70.2094V71.6877L155.265 71.852V70.3267L154.773 70.2094ZM153.764 69.7518V71.2653L154.256 71.5V69.9747C154.139 69.8691 153.963 69.7987 153.81 69.7166L153.764 69.7518ZM158.82 70.8195V72.3917H159.313V70.7608L158.82 70.8195ZM163.877 69.3529V70.8899C164.054 70.7769 164.219 70.6473 164.37 70.5027V68.9774C164.228 69.0988 164.079 69.2124 163.924 69.3177L163.877 69.3529ZM159.841 70.7608V72.2743L160.334 72.2039V70.6435C160.187 70.6806 160.038 70.7081 159.888 70.7256L159.841 70.7608ZM164.886 68.4142V69.9512C165.101 69.6808 165.268 69.3752 165.379 69.0478V67.5577C165.287 67.8613 165.144 68.1469 164.957 68.4025L164.886 68.4142ZM162.868 69.9043V71.4296C163.037 71.3569 163.202 71.2746 163.361 71.1832V69.6697L162.868 69.9043ZM161.859 70.3032V71.8285L162.352 71.6642V70.139L161.859 70.3032ZM160.85 70.5731V72.1101L161.343 71.9928V70.3971L160.85 70.5731Z" fill="url(#paint11_linear_62_482)"/>
<path d="M163.502 63.9089C166.236 65.4694 166.247 68.0154 163.502 69.5994C161.975 70.3744 160.286 70.7783 158.574 70.7783C156.862 70.7783 155.173 70.3744 153.646 69.5994C150.912 68.0389 150.901 65.4929 153.646 63.9089C155.173 63.1339 156.862 62.73 158.574 62.73C160.286 62.73 161.975 63.1339 163.502 63.9089Z" fill="#FFCE45"/>
<path d="M163.068 64.167C165.555 65.5867 165.567 67.9098 163.068 69.353C161.675 70.059 160.135 70.427 158.574 70.427C157.013 70.427 155.473 70.059 154.08 69.353C151.593 67.9333 151.581 65.6102 154.08 64.167C155.473 63.461 157.013 63.093 158.574 63.093C160.135 63.093 161.675 63.461 163.068 64.167Z" fill="#FFCE45"/>
<path opacity="0.6" d="M154.209 64.5307C155.563 63.8424 157.061 63.4836 158.58 63.4836C160.099 63.4836 161.596 63.8424 162.95 64.5307C164.71 65.528 165.18 66.9946 164.393 68.2618C165.426 66.9125 164.98 65.2816 163.068 64.1905C161.675 63.4844 160.135 63.1165 158.574 63.1165C157.013 63.1165 155.473 63.4844 154.08 64.1905C152.18 65.3638 151.734 66.936 152.79 68.2852C152.051 67.0298 152.461 65.5632 154.209 64.5307Z" fill="#E0890B"/>
<path d="M161.437 61.1165C159.519 60.5718 157.488 60.5718 155.57 61.1165C152.895 61.8791 151.546 63.3223 151.523 64.7537C151.523 65.2934 151.523 65.8331 151.523 66.3728C151.523 67.8042 152.919 69.2239 155.606 69.9748C157.523 70.5194 159.554 70.5194 161.472 69.9748C164.159 69.2004 165.508 67.769 165.532 66.3376C165.532 65.7979 165.532 65.2582 165.532 64.7185C165.461 63.2871 164.1 61.8557 161.437 61.1165Z" fill="url(#paint12_linear_62_482)"/>
<path style="mix-blend-mode:multiply" opacity="0.2" d="M152.215 66.5018V68.0506C151.999 67.7959 151.829 67.5062 151.71 67.1941V65.704C151.836 65.9945 152.006 66.2637 152.215 66.5018ZM155.735 68.5082V70.0334L156.227 70.1508V68.602L155.735 68.5082ZM157.753 68.7898V70.3972H158.245V68.8132L157.753 68.7898ZM156.744 68.6959V70.2446L157.236 70.315V68.7663L156.744 68.6959ZM152.696 67.065V68.5668C152.853 68.7013 153.017 68.8266 153.189 68.9423V67.4053C153.06 67.2879 152.884 67.1824 152.743 67.065H152.696ZM154.714 68.2383V69.7518L155.207 69.9044V68.3791C155.089 68.297 154.925 68.2618 154.761 68.2031L154.714 68.2383ZM153.705 67.769V69.2239L154.186 69.4703V67.945C154.037 67.8839 153.892 67.8133 153.752 67.7338L153.705 67.769ZM158.762 68.8484V70.3972H159.255V68.778L158.762 68.8484ZM163.819 67.3818V68.9188C163.992 68.8021 164.157 68.6727 164.311 68.5316V66.9946C164.171 67.1226 164.022 67.2402 163.866 67.3466L163.819 67.3818ZM159.782 68.7898V70.3385L160.275 70.2681V68.6724L159.782 68.7898ZM164.828 66.4432V67.9685C165.045 67.7038 165.212 67.4016 165.32 67.0768V65.575C165.214 65.8807 165.064 66.1693 164.875 66.4315L164.828 66.4432ZM162.81 67.9333V69.4585L163.302 69.2121V67.6869C163.159 67.7753 163.01 67.8537 162.857 67.9215L162.81 67.9333ZM161.801 68.3204V69.8574C161.965 69.7988 162.141 69.7518 162.293 69.6814V68.1679C162.176 68.2266 162.012 68.2618 161.847 68.3087L161.801 68.3204ZM160.792 68.5903V70.139L161.284 70.0217V68.473C161.167 68.5199 161.003 68.5434 160.838 68.5786L160.792 68.5903Z" fill="url(#paint13_linear_62_482)"/>
<path d="M158.543 68.8207C162.392 68.8046 165.504 66.9898 165.495 64.7672C165.486 62.5446 162.358 60.756 158.509 60.7721C154.66 60.7882 151.547 62.603 151.556 64.8256C151.566 67.0482 154.694 68.8369 158.543 68.8207Z" fill="#FFCE45"/>
<path d="M163.009 62.1841C165.496 63.6038 165.508 65.9269 163.009 67.3701C161.616 68.0761 160.077 68.4441 158.515 68.4441C156.954 68.4441 155.414 68.0761 154.022 67.3701C151.534 65.9504 151.523 63.6273 154.022 62.1841C155.414 61.4753 156.953 61.1058 158.515 61.1058C160.077 61.1058 161.617 61.4753 163.009 62.1841Z" fill="#FFCE45"/>
<path opacity="0.6" d="M154.151 62.5595C155.506 61.8739 157.003 61.5167 158.521 61.5167C160.04 61.5167 161.537 61.8739 162.892 62.5595C164.64 63.5686 165.121 65.0352 164.335 66.3023C165.367 64.953 164.921 63.3222 163.009 62.231C161.617 61.5222 160.077 61.1527 158.515 61.1527C156.953 61.1527 155.414 61.5222 154.022 62.231C152.121 63.3456 151.675 64.9765 152.731 66.314C151.933 65.0586 152.391 63.5803 154.151 62.5595Z" fill="#E0890B"/>
<path d="M174.683 71.8051C172.784 71.2715 170.775 71.2715 168.875 71.8051C166.189 72.5795 164.839 74.0109 164.816 75.454C164.816 75.982 164.816 76.5217 164.816 77.0614C164.816 78.4928 166.212 79.9242 168.899 80.6634C170.797 81.2031 172.808 81.2031 174.707 80.6634C177.382 79.9008 178.731 78.4576 178.755 77.0262C178.755 76.4865 178.755 75.9468 178.755 75.4188C178.719 73.9757 177.358 72.556 174.683 71.8051Z" fill="url(#paint14_linear_62_482)"/>
<path style="mix-blend-mode:multiply" opacity="0.2" d="M165.473 77.1906V78.7276C165.263 78.4667 165.096 78.1735 164.98 77.8593V76.3693C165.102 76.6663 165.268 76.9433 165.473 77.1906ZM168.993 79.1969V80.7222L169.474 80.8395V79.2908L168.993 79.1969ZM171.023 79.4785V81.0624H171.515V79.5137L171.023 79.4785ZM170.002 79.3846V80.9568C170.164 80.9919 170.329 81.0154 170.495 81.0272V79.455C170.377 79.4433 170.213 79.4081 170.049 79.3846H170.002ZM165.954 77.7537V79.2555C166.105 79.3927 166.265 79.5182 166.435 79.631V78.094C166.284 77.9883 166.139 77.8748 166.001 77.7537H165.954ZM167.984 78.927V80.4406L168.477 80.6048V79.0796L167.984 78.927ZM166.963 78.4694V79.983L167.456 80.2176V78.6102L166.963 78.4694ZM172.032 79.5371V81.0741H172.524V79.4785L172.032 79.5371ZM177.077 78.0705V79.6075C177.249 79.4945 177.41 79.3648 177.558 79.2204V77.6951C177.419 77.8161 177.274 77.9297 177.124 78.0353L177.077 78.0705ZM173.041 79.4785V80.9568L173.533 80.8864V79.3611C173.387 79.3979 173.238 79.4253 173.088 79.4433L173.041 79.4785ZM178.086 77.1319V78.6102C178.293 78.3367 178.456 78.0317 178.567 77.7068V76.2637C178.467 76.5699 178.321 76.8589 178.133 77.1202L178.086 77.1319ZM176.115 78.6102V80.1355C176.279 80.0534 176.443 79.983 176.596 79.8891V78.3756C176.441 78.465 176.28 78.5435 176.115 78.6102ZM175.106 79.0092V80.5344L175.587 80.3702V78.8566L175.106 79.0092ZM174.097 79.279V80.816L174.578 80.6987V79.1617L174.097 79.279Z" fill="url(#paint15_linear_62_482)"/>
<path d="M176.69 72.6263C179.412 74.1868 179.423 76.7328 176.69 78.3168C175.16 79.0919 173.47 79.4959 171.756 79.4959C170.041 79.4959 168.351 79.0919 166.822 78.3168C164.088 76.7563 164.077 74.2103 166.822 72.6263C168.351 71.8512 170.041 71.4473 171.756 71.4473C173.47 71.4473 175.16 71.8512 176.69 72.6263Z" fill="#FFCE45"/>
<path d="M176.267 72.8845C178.754 74.3042 178.766 76.6273 176.267 78.0704C174.874 78.7765 173.335 79.1444 171.773 79.1444C170.212 79.1444 168.672 78.7765 167.28 78.0704C164.804 76.6507 164.792 74.3276 167.28 72.8845C168.672 72.1766 170.212 71.8076 171.773 71.8076C173.335 71.8076 174.875 72.1766 176.267 72.8845Z" fill="#FFCE45"/>
<path opacity="0.6" d="M167.409 73.26C168.764 72.5744 170.261 72.2171 171.779 72.2171C173.298 72.2171 174.795 72.5744 176.15 73.26C177.91 74.269 178.391 75.7356 177.593 77.0027C178.625 75.6535 178.191 74.0226 176.267 72.9314C174.877 72.2255 173.339 71.8575 171.779 71.8575C170.22 71.8575 168.682 72.2255 167.292 72.9314C165.379 74.1047 164.945 75.6769 166.001 77.0145C165.191 75.7473 165.661 74.2807 167.409 73.26Z" fill="#E0890B"/>
<path d="M174.05 69.482C172.15 68.9484 170.141 68.9484 168.242 69.482C165.555 70.2564 164.206 71.6878 164.182 73.1309C164.182 73.6706 164.182 74.1986 164.182 74.7383C164.182 76.1814 165.578 77.6011 168.265 78.352C170.183 78.8967 172.214 78.8967 174.132 78.352C176.807 77.5777 178.156 76.1462 178.18 74.7031C178.18 74.1634 178.18 73.6354 178.18 73.0957C178.097 71.6526 176.69 70.2329 174.05 69.482Z" fill="url(#paint16_linear_62_482)"/>
<path style="mix-blend-mode:multiply" opacity="0.2" d="M164.839 74.8791V76.4044C164.627 76.1451 164.46 75.8515 164.347 75.5361V74.0461C164.468 74.3468 164.634 74.6277 164.839 74.8791ZM168.359 76.8737V78.4107L168.852 78.528V76.9793L168.359 76.8737ZM170.389 77.167V78.7392H170.882V77.1905L170.389 77.167ZM169.368 77.0614V78.6101L169.861 78.6805V77.1318C169.744 77.1201 169.579 77.0849 169.415 77.0614H169.368ZM165.32 75.4305V76.9323C165.475 77.0695 165.64 77.195 165.813 77.3078V75.7825C165.658 75.6733 165.51 75.5558 165.367 75.4305H165.32ZM167.35 76.6038V78.1174L167.843 78.2816V76.7563L167.35 76.6038ZM166.341 76.1462V77.6598C166.501 77.7473 166.665 77.8256 166.834 77.8944V76.3457L166.341 76.1462ZM171.398 77.2257V78.7861H171.891V77.1553L171.398 77.2257ZM176.443 75.759V77.2961C176.61 77.1757 176.771 77.0464 176.924 76.9089V75.3719C176.786 75.4968 176.641 75.6143 176.49 75.7239L176.443 75.759ZM172.407 77.1553V78.7157L172.888 78.6336V77.0497L172.407 77.1553ZM177.452 74.8087V76.3457C177.66 76.0722 177.822 75.7672 177.933 75.4423V73.917C177.836 74.2314 177.689 74.5285 177.499 74.797L177.452 74.8087ZM175.516 76.2636V77.7771L176.009 77.5424V76.0641L175.516 76.2636ZM174.507 76.6507V78.176L175 78.0118V76.5334L174.507 76.6507ZM173.498 76.9206V78.4693L173.979 78.3403V76.8502L173.498 76.9206Z" fill="url(#paint17_linear_62_482)"/>
<path d="M176.079 70.3034C178.801 71.8638 178.813 74.4216 176.079 76.0055C174.55 76.7807 172.86 77.1846 171.146 77.1846C169.431 77.1846 167.741 76.7807 166.212 76.0055C163.478 74.445 163.478 71.899 166.212 70.3151C167.74 69.5381 169.43 69.1322 171.144 69.1301C172.859 69.1281 174.549 69.53 176.079 70.3034Z" fill="#FFCE45"/>
<path d="M171.165 76.8517C174.671 76.837 177.506 75.1809 177.497 73.1527C177.489 71.1246 174.64 69.4923 171.135 69.507C167.629 69.5217 164.794 71.1777 164.803 73.2059C164.811 75.2341 167.66 76.8664 171.165 76.8517Z" fill="#FFCE45"/>
<path opacity="0.6" d="M166.775 70.9369C168.129 70.2485 169.627 69.8897 171.146 69.8897C172.665 69.8897 174.162 70.2485 175.516 70.9369C177.276 71.9459 177.757 73.4125 176.959 74.6796C177.992 73.3304 177.558 71.6995 175.634 70.5966C174.243 69.8906 172.705 69.5227 171.146 69.5227C169.586 69.5227 168.049 69.8906 166.658 70.5966C164.746 71.7112 164.311 73.3421 165.367 74.6914C164.558 73.4242 165.027 71.9576 166.775 70.9369Z" fill="#E0890B"/>
<path d="M174.061 67.6516C172.144 67.107 170.112 67.107 168.195 67.6516C165.508 68.426 164.159 69.8574 164.135 71.3006C164.135 71.8403 164.135 72.3683 164.135 72.908C164.135 74.3511 165.532 75.7708 168.218 76.5217C170.118 77.0553 172.127 77.0553 174.026 76.5217C176.701 75.7473 178.051 74.3159 178.074 72.8728C178.074 72.3331 178.074 71.8051 178.074 71.2654C178.109 69.8222 176.748 68.4026 174.061 67.6516Z" fill="url(#paint18_linear_62_482)"/>
<path style="mix-blend-mode:multiply" opacity="0.2" d="M164.863 73.0487V74.574C164.65 74.3147 164.484 74.0211 164.37 73.7058V72.2157C164.492 72.5161 164.658 72.7968 164.863 73.0487ZM168.477 75.0902V76.6272L168.969 76.7446V75.1489L168.477 75.0902ZM170.506 75.3836V76.9558H170.999V75.3601L170.506 75.3836ZM169.497 75.278V76.8384L169.99 76.9088V75.3014C169.755 75.2897 169.65 75.2545 169.439 75.231L169.497 75.278ZM165.438 73.6471V75.0902C165.592 75.2274 165.757 75.3529 165.931 75.4657V73.917C165.741 73.8225 165.556 73.7167 165.379 73.6002L165.438 73.6471ZM167.468 74.8204V76.2635L167.96 76.4278V74.9025L167.468 74.8204ZM166.459 74.3628V75.7942L166.951 76.0289V74.5036L166.459 74.3628ZM171.515 75.4422V77.0027H172.008V75.3249L171.515 75.4422ZM176.502 73.917V75.454L176.995 75.0668V73.5415C176.854 73.6588 176.69 73.7762 176.502 73.917ZM172.466 75.2897V76.8384C172.628 76.8273 172.788 76.8038 172.947 76.768V75.2193L172.466 75.2897ZM177.511 72.9431V74.5036C177.718 74.2301 177.881 73.9251 177.992 73.6002V72.1218C177.877 72.4269 177.715 72.712 177.511 72.9666V72.9431ZM175.516 74.4684V75.9819C175.686 75.9116 175.851 75.8293 176.009 75.7355V74.2337L175.516 74.4684ZM174.507 74.8556V76.3809L175 76.2166V74.7031L174.507 74.8556ZM173.498 75.1254V76.6742L173.991 76.5451V75.0198L173.498 75.1254Z" fill="url(#paint19_linear_62_482)"/>
<path d="M176.091 68.473C178.813 70.0335 178.825 72.5913 176.091 74.1752C174.562 74.9503 172.872 75.3543 171.157 75.3543C169.443 75.3543 167.753 74.9503 166.224 74.1752C163.502 72.6147 163.49 70.0687 166.224 68.4848C167.752 67.7078 169.442 67.3019 171.156 67.2998C172.87 67.2978 174.561 67.6997 176.091 68.473Z" fill="#FFCE45"/>
<path d="M175.645 68.7311C178.133 70.1508 178.144 72.4739 175.645 73.917C174.255 74.6258 172.718 74.9952 171.157 74.9952C169.597 74.9952 168.059 74.6258 166.67 73.917C164.182 72.4974 164.171 70.1743 166.67 68.7311C168.06 68.0252 169.598 67.6572 171.157 67.6572C172.717 67.6572 174.255 68.0252 175.645 68.7311Z" fill="#FFCE45"/>
<path opacity="0.6" d="M166.787 69.1065C168.141 68.4182 169.639 68.0594 171.157 68.0594C172.676 68.0594 174.174 68.4182 175.528 69.1065C177.288 70.1038 177.769 71.5822 176.971 72.8493C178.004 71.4883 177.569 69.8692 175.645 68.7663C174.255 68.0603 172.717 67.6924 171.157 67.6924C169.598 67.6924 168.06 68.0603 166.67 68.7663C164.757 69.8809 164.323 71.5118 165.379 72.861C164.569 71.5704 165.039 70.1273 166.787 69.1065Z" fill="#E0890B"/>
<path d="M167.209 77.2608C165.293 76.7099 163.26 76.7099 161.343 77.2608C158.656 78.0235 157.307 79.4666 157.283 80.898C157.283 81.4377 157.283 81.9774 157.283 82.5054C157.283 83.9486 158.68 85.3682 161.366 86.1191C163.266 86.6527 165.275 86.6527 167.174 86.1191C169.849 85.3448 171.199 83.9134 171.222 82.4702C171.222 81.9422 171.222 81.4025 171.222 80.8628C171.257 79.4314 169.896 78 167.209 77.2608Z" fill="url(#paint20_linear_62_482)"/>
<path style="mix-blend-mode:multiply" opacity="0.2" d="M158.011 82.6463V84.1715C157.798 83.9123 157.632 83.6186 157.518 83.3033V81.8132C157.64 82.1136 157.806 82.3943 158.011 82.6463ZM161.531 84.6408V86.1778L162.023 86.2952V84.7464L161.531 84.6408ZM163.56 84.9342V86.5064H164.053V84.9576L163.56 84.9342ZM162.61 84.8286V86.389L163.103 86.4594V84.9107L162.61 84.8286ZM158.551 83.1977V84.6995C158.708 84.837 158.872 84.9663 159.043 85.0867V83.5497C158.864 83.4426 158.692 83.3251 158.527 83.1977H158.551ZM160.58 84.371V85.8728L161.061 86.0371V84.4766L160.58 84.371ZM159.571 83.9017V85.4152L160.064 85.6499V84.1129L159.571 83.9017ZM164.628 84.9811V86.5416H165.109V84.9224L164.628 84.9811ZM169.65 83.491V85.028L170.143 84.6408V83.139C169.987 83.2684 169.823 83.3861 169.65 83.491ZM165.614 84.899V86.4477L166.095 86.3656V84.8168L165.614 84.899ZM170.659 82.5524V84.0777C170.873 83.8084 171.036 83.5022 171.14 83.1742V81.7194C171.022 82.0269 170.86 82.3155 170.659 82.5759V82.5524ZM168.641 84.0425V85.6499L169.134 85.4035V83.8313L168.641 84.0425ZM167.632 84.4296V85.9549L168.125 85.7907V84.3006L167.632 84.4296ZM166.623 84.6995V86.2482L167.116 86.1192V84.5939L166.623 84.6995Z" fill="url(#paint21_linear_62_482)"/>
<path d="M169.239 78.0704C171.961 79.6426 171.973 82.1887 169.239 83.7726C167.71 84.5478 166.02 84.9517 164.305 84.9517C162.591 84.9517 160.901 84.5478 159.372 83.7726C156.65 82.2121 156.638 79.6661 159.372 78.0822C160.9 77.3052 162.59 76.8993 164.304 76.8972C166.018 76.8952 167.709 77.2971 169.239 78.0704Z" fill="#FFCE45"/>
<path d="M164.334 84.6122C167.84 84.5975 170.675 82.9414 170.666 80.9132C170.658 78.8851 167.809 77.2528 164.303 77.2675C160.798 77.2822 157.963 78.9382 157.971 80.9664C157.98 82.9946 160.829 84.6269 164.334 84.6122Z" fill="#FFCE45"/>
<path opacity="0.6" d="M159.935 78.7041C161.289 78.0157 162.787 77.6569 164.306 77.6569C165.824 77.6569 167.322 78.0157 168.676 78.7041C170.436 79.7131 170.917 81.1797 170.119 82.4468C171.152 81.0976 170.718 79.4667 168.793 78.3638C167.403 77.6578 165.865 77.2899 164.306 77.2899C162.746 77.2899 161.208 77.6578 159.818 78.3638C157.905 79.4667 157.471 81.1093 158.527 82.4468C157.718 81.2032 158.187 79.7835 159.935 78.7041Z" fill="#E0890B"/>
<path d="M166.951 75.4188C165.053 74.8791 163.042 74.8791 161.143 75.4188C158.468 76.1815 157.119 77.6129 157.096 79.056C157.096 79.5957 157.096 80.1237 157.096 80.6634C157.096 82.1066 158.492 83.5262 161.179 84.2771C163.078 84.8107 165.087 84.8107 166.986 84.2771C169.673 83.5028 171.023 82.0714 171.046 80.6282C171.046 80.0885 171.046 79.5605 171.046 79.0208C170.999 77.6011 169.65 76.1697 166.951 75.4188Z" fill="url(#paint22_linear_62_482)"/>
<path style="mix-blend-mode:multiply" opacity="0.2" d="M157.753 80.8159V82.3412C157.537 82.0823 157.366 81.7887 157.248 81.473V79.9829C157.373 80.2844 157.543 80.5653 157.753 80.8159ZM161.273 82.8105V84.3475L161.765 84.4649V82.9161C161.636 82.8809 161.437 82.8575 161.319 82.8105H161.273ZM163.291 83.1038V84.676H163.783V83.1273L163.291 83.1038ZM162.282 82.9982V84.5587L162.763 84.6291V83.0804L162.282 82.9982ZM158.234 81.3674V82.8692L158.727 83.2564V81.7194C158.57 81.6126 158.421 81.4949 158.281 81.3674H158.234ZM160.252 82.5407V84.0542L160.745 84.2185V82.6932L160.252 82.5407ZM159.243 82.0831V83.5966L159.724 83.8313V82.2825L159.243 82.0831ZM164.3 83.1625V84.723H164.792V83.0921L164.3 83.1625ZM169.356 81.6959V83.2329C169.527 83.1125 169.692 82.9832 169.849 82.8457V81.3087C169.709 81.4367 169.56 81.5543 169.403 81.6607L169.356 81.6959ZM165.32 83.1038V84.6526L165.813 84.5704V82.9865L165.32 83.1038ZM170.365 80.7573V82.2943C170.581 82.0239 170.747 81.7182 170.858 81.3908V79.889C170.759 80.1941 170.608 80.4799 170.412 80.7338L170.365 80.7573ZM168.347 82.2591V83.7726C168.516 83.7038 168.681 83.6255 168.84 83.538V82.001L168.347 82.2591ZM167.338 82.6463V84.1715L167.831 84.0073V82.4703L167.338 82.6463ZM166.329 82.9161V84.4766L166.822 84.3475V82.8223L166.329 82.9161Z" fill="url(#paint23_linear_62_482)"/>
<path d="M168.981 76.2636C171.715 77.824 171.727 80.3818 168.981 81.9657C167.454 82.7408 165.766 83.1447 164.053 83.1447C162.341 83.1447 160.652 82.7408 159.125 81.9657C156.392 80.4053 156.38 77.8592 159.125 76.2753C160.652 75.4984 162.339 75.0925 164.052 75.0905C165.764 75.0884 167.453 75.4903 168.981 76.2636Z" fill="#FFCE45"/>
<path d="M163.901 82.8927C167.406 82.8927 170.248 81.2486 170.248 79.2204C170.248 77.1922 167.406 75.548 163.901 75.548C160.395 75.548 157.553 77.1922 157.553 79.2204C157.553 81.2486 160.395 82.8927 163.901 82.8927Z" fill="#FFCE45"/>
<path opacity="0.6" d="M159.689 76.8737C161.043 76.1854 162.54 75.8266 164.059 75.8266C165.578 75.8266 167.076 76.1854 168.43 76.8737C170.19 77.8828 170.659 79.3494 169.873 80.6165C170.905 79.2672 170.459 77.6364 168.547 76.5335C167.154 75.8274 165.615 75.4595 164.053 75.4595C162.492 75.4595 160.952 75.8274 159.56 76.5335C157.659 77.6481 157.213 79.279 158.269 80.6283C157.471 79.3611 157.917 77.8945 159.689 76.8737Z" fill="#E0890B"/>
</g>
<defs>
<filter id="filter0_f_62_482" x="30.0289" y="-91.5162" width="333.213" height="333.213" filterUnits="userSpaceOnUse" color-interpolation-filters="sRGB">
<feFlood flood-opacity="0" result="BackgroundImageFix"/>
<feBlend mode="normal" in="SourceGraphic" in2="BackgroundImageFix" result="shape"/>
<feGaussianBlur stdDeviation="51.0379" result="effect1_foregroundBlur_62_482"/>
</filter>
<linearGradient id="paint0_linear_62_482" x1="188.864" y1="99.6024" x2="268.102" y2="99.6024" gradientUnits="userSpaceOnUse">
<stop stop-color="#5917FF"/>
<stop offset="0.16" stop-color="#6D22F8"/>
<stop offset="0.48" stop-color="#A13DE7"/>
<stop offset="0.95" stop-color="#4BF2EA"/>
<stop offset="1" stop-color="#42E8E0"/>
</linearGradient>
<linearGradient id="paint1_linear_62_482" x1="163.15" y1="30.3412" x2="230.356" y2="81.6255" gradientUnits="userSpaceOnUse">
<stop stop-color="#7626F5"/>
<stop offset="0.25" stop-color="#8328F6"/>
<stop offset="0.73" stop-color="#42E8E0" stop-opacity="0.56"/>
<stop offset="1" stop-color="#42E8E0"/>
</linearGradient>
<linearGradient id="paint2_linear_62_482" x1="151.018" y1="75.325" x2="164.98" y2="75.325" gradientUnits="userSpaceOnUse">
<stop stop-color="#D88000"/>
<stop offset="1" stop-color="#FFAC33"/>
</linearGradient>
<linearGradient id="paint3_linear_62_482" x1="151.182" y1="77.7419" x2="164.828" y2="77.7419" gradientUnits="userSpaceOnUse">
<stop stop-color="#D88F25"/>
<stop offset="1" stop-color="#EBA136"/>
</linearGradient>
<linearGradient id="paint4_linear_62_482" x1="150.983" y1="73.0019" x2="164.945" y2="73.0019" gradientUnits="userSpaceOnUse">
<stop stop-color="#D88000"/>
<stop offset="1" stop-color="#FFAC33"/>
</linearGradient>
<linearGradient id="paint5_linear_62_482" x1="151.159" y1="75.4306" x2="164.804" y2="75.4306" gradientUnits="userSpaceOnUse">
<stop stop-color="#D88F25"/>
<stop offset="1" stop-color="#EBA136"/>
</linearGradient>
<linearGradient id="paint6_linear_62_482" x1="151.006" y1="71.1715" x2="164.968" y2="71.1715" gradientUnits="userSpaceOnUse">
<stop stop-color="#D88000"/>
<stop offset="1" stop-color="#FFAC33"/>
</linearGradient>
<linearGradient id="paint7_linear_62_482" x1="151.171" y1="73.6003" x2="164.816" y2="73.6003" gradientUnits="userSpaceOnUse">
<stop stop-color="#D88F25"/>
<stop offset="1" stop-color="#EBA136"/>
</linearGradient>
<linearGradient id="paint8_linear_62_482" x1="151.018" y1="69.3412" x2="164.98" y2="69.3412" gradientUnits="userSpaceOnUse">
<stop stop-color="#D88000"/>
<stop offset="1" stop-color="#FFAC33"/>
</linearGradient>
<linearGradient id="paint9_linear_62_482" x1="151.182" y1="71.77" x2="164.828" y2="71.77" gradientUnits="userSpaceOnUse">
<stop stop-color="#D88F25"/>
<stop offset="1" stop-color="#EBA136"/>
</linearGradient>
<linearGradient id="paint10_linear_62_482" x1="151.605" y1="67.5343" x2="165.567" y2="67.5343" gradientUnits="userSpaceOnUse">
<stop stop-color="#D88000"/>
<stop offset="1" stop-color="#FFAC33"/>
</linearGradient>
<linearGradient id="paint11_linear_62_482" x1="151.781" y1="69.9512" x2="165.426" y2="69.9512" gradientUnits="userSpaceOnUse">
<stop stop-color="#D88F25"/>
<stop offset="1" stop-color="#EBA136"/>
</linearGradient>
<linearGradient id="paint12_linear_62_482" x1="151.546" y1="65.5515" x2="165.508" y2="65.5515" gradientUnits="userSpaceOnUse">
<stop stop-color="#D88000"/>
<stop offset="1" stop-color="#FFAC33"/>
</linearGradient>
<linearGradient id="paint13_linear_62_482" x1="151.722" y1="67.9802" x2="165.367" y2="67.9802" gradientUnits="userSpaceOnUse">
<stop stop-color="#D88F25"/>
<stop offset="1" stop-color="#EBA136"/>
</linearGradient>
<linearGradient id="paint14_linear_62_482" x1="164.816" y1="76.2519" x2="178.778" y2="76.2519" gradientUnits="userSpaceOnUse">
<stop stop-color="#D88000"/>
<stop offset="1" stop-color="#FFAC33"/>
</linearGradient>
<linearGradient id="paint15_linear_62_482" x1="164.98" y1="78.6689" x2="178.625" y2="78.6689" gradientUnits="userSpaceOnUse">
<stop stop-color="#D88F25"/>
<stop offset="1" stop-color="#EBA136"/>
</linearGradient>
<linearGradient id="paint16_linear_62_482" x1="164.182" y1="73.9287" x2="178.144" y2="73.9287" gradientUnits="userSpaceOnUse">
<stop stop-color="#D88000"/>
<stop offset="1" stop-color="#FFAC33"/>
</linearGradient>
<linearGradient id="paint17_linear_62_482" x1="164.347" y1="76.3574" x2="177.992" y2="76.3574" gradientUnits="userSpaceOnUse">
<stop stop-color="#D88F25"/>
<stop offset="1" stop-color="#EBA136"/>
</linearGradient>
<linearGradient id="paint18_linear_62_482" x1="164.194" y1="72.0984" x2="178.156" y2="72.0984" gradientUnits="userSpaceOnUse">
<stop stop-color="#D88000"/>
<stop offset="1" stop-color="#FFAC33"/>
</linearGradient>
<linearGradient id="paint19_linear_62_482" x1="164.358" y1="74.5271" x2="178.004" y2="74.5271" gradientUnits="userSpaceOnUse">
<stop stop-color="#D88F25"/>
<stop offset="1" stop-color="#EBA136"/>
</linearGradient>
<linearGradient id="paint20_linear_62_482" x1="157.342" y1="81.6959" x2="171.304" y2="81.6959" gradientUnits="userSpaceOnUse">
<stop stop-color="#D88000"/>
<stop offset="1" stop-color="#FFAC33"/>
</linearGradient>
<linearGradient id="paint21_linear_62_482" x1="157.506" y1="84.1246" x2="171.152" y2="84.1246" gradientUnits="userSpaceOnUse">
<stop stop-color="#D88F25"/>
<stop offset="1" stop-color="#EBA136"/>
</linearGradient>
<linearGradient id="paint22_linear_62_482" x1="157.084" y1="79.8656" x2="171.046" y2="79.8656" gradientUnits="userSpaceOnUse">
<stop stop-color="#D88000"/>
<stop offset="1" stop-color="#FFAC33"/>
</linearGradient>
<linearGradient id="paint23_linear_62_482" x1="157.26" y1="82.2943" x2="170.905" y2="82.2943" gradientUnits="userSpaceOnUse">
<stop stop-color="#D88F25"/>
<stop offset="1" stop-color="#EBA136"/>
</linearGradient>
<clipPath id="clip0_62_482">
<rect width="131.208" height="83.3619" fill="white" transform="translate(137.971 39.8917)"/>
</clipPath>
</defs>
</svg>
