<svg width="405" height="201" viewBox="0 0 405 201" fill="none" xmlns="http://www.w3.org/2000/svg">
<mask id="mask0_62_248" style="mask-type:alpha" maskUnits="userSpaceOnUse" x="0" y="0" width="405" height="201">
<rect x="0.981934" y="0.245361" width="403.61" height="200.632" rx="17.5993" fill="white"/>
</mask>
<g mask="url(#mask0_62_248)">
<g filter="url(#filter0_f_62_248)">
<circle cx="200.44" cy="69.4692" r="64.5307" fill="#00ECFB" fill-opacity="0.3"/>
</g>
</g>
<g clip-path="url(#clip0_62_248)">
<path d="M213.409 29.3852L184.21 46.2877C183.945 46.435 183.726 46.6512 183.574 46.9134C183.422 47.1756 183.344 47.4742 183.347 47.7774V120.061C183.347 121.382 184.006 123.424 186.594 122.896L213.6 107.471C215.855 106.193 217.66 104.246 218.764 101.897C219.194 100.969 219.477 99.9802 219.603 98.9654L219.675 31.2473C219.675 28.4602 215.865 27.9556 213.409 29.3852Z" fill="url(#paint0_linear_62_248)"/>
<path d="M218.453 28.5803C217.824 28.2861 217.127 28.1665 216.436 28.2342C215.744 28.3018 215.084 28.5541 214.523 28.9648L188.248 44.1734C186.634 45.2218 185.293 46.6403 184.334 48.3114C183.376 49.9826 182.828 51.8584 182.736 53.784V123.761C182.663 124.45 182.773 125.146 183.055 125.779C183.337 126.412 183.781 126.959 184.342 127.365L181.945 125.971C181.381 125.568 180.935 125.022 180.653 124.388C180.371 123.755 180.263 123.057 180.34 122.367V52.3784C180.435 50.4536 180.984 48.5788 181.942 46.9081C182.9 45.2374 184.24 43.8185 185.851 42.7679L212.151 27.5712C212.714 27.1663 213.374 26.9176 214.064 26.8501C214.754 26.7826 215.45 26.8988 216.081 27.1868L218.453 28.5803Z" fill="url(#paint1_linear_62_248)"/>
<path d="M214.523 28.9648L188.248 44.1735C186.634 45.2219 185.293 46.6403 184.334 48.3115C183.376 49.9826 182.828 51.8585 182.736 53.784V123.761C182.736 127.268 185.228 128.686 188.271 126.932L214.523 111.663C216.135 110.614 217.474 109.196 218.431 107.524C219.387 105.853 219.933 103.978 220.023 102.053L220.058 32.1243C220.058 28.6164 217.566 27.259 214.523 28.9648ZM219.316 99.5181C219.316 100.037 219.179 100.546 218.921 100.995C218.662 101.445 218.29 101.818 217.842 102.077L210.078 106.546L193.867 115.916L185.132 120.962C184.987 121.046 184.822 121.09 184.654 121.09C184.486 121.09 184.321 121.046 184.175 120.962C184.03 120.878 183.909 120.758 183.824 120.612C183.74 120.466 183.695 120.301 183.695 120.133V54.8892C183.696 52.7329 184.263 50.6149 185.337 48.747C186.412 46.8791 187.956 45.3269 189.817 44.2456L193.615 42.0592C193.711 41.9992 193.817 41.9597 193.929 41.9432C194.04 41.9266 194.154 41.9334 194.262 41.9631L196.898 42.6598C197.094 42.7036 197.298 42.6737 197.473 42.5757L205.525 37.9146C205.646 37.8438 205.755 37.7547 205.848 37.6503L209.838 32.761C209.937 32.6382 210.059 32.5361 210.198 32.4606L215.505 29.3853C215.891 29.1591 216.33 29.039 216.777 29.0371C217.224 29.0353 217.664 29.1518 218.051 29.3748C218.439 29.5978 218.761 29.9195 218.985 30.3074C219.21 30.6952 219.328 31.1355 219.328 31.5837L219.316 99.5181Z" fill="#353131"/>
<path d="M204.483 111.351C204.182 111.359 203.889 111.446 203.632 111.603L200.684 113.309C200.246 113.571 199.876 113.932 199.603 114.365C199.331 114.797 199.163 115.287 199.115 115.796V117.358C199.101 117.498 199.118 117.641 199.162 117.775C199.206 117.909 199.278 118.033 199.373 118.138C199.468 118.243 199.583 118.327 199.712 118.385C199.841 118.443 199.98 118.474 200.121 118.475C200.423 118.46 200.715 118.369 200.972 118.21L203.919 116.505C204.358 116.244 204.728 115.883 204.999 115.45C205.27 115.018 205.434 114.527 205.477 114.018V112.552C205.505 112.406 205.501 112.255 205.464 112.11C205.427 111.965 205.359 111.83 205.263 111.716C205.168 111.601 205.049 111.508 204.914 111.445C204.779 111.382 204.631 111.35 204.483 111.351Z" fill="#262424"/>
<path d="M203.608 116.348C204.05 116.088 204.423 115.726 204.696 115.291C204.97 114.856 205.135 114.362 205.177 113.85V112.276C205.184 112.117 205.157 111.959 205.097 111.811C205.037 111.664 204.946 111.532 204.83 111.423C204.72 111.376 204.602 111.352 204.483 111.351C204.181 111.364 203.888 111.455 203.632 111.615L200.66 113.333C200.22 113.595 199.848 113.959 199.576 114.393C199.303 114.827 199.137 115.321 199.091 115.832V117.358C199.088 117.518 199.118 117.677 199.177 117.825C199.237 117.974 199.326 118.109 199.438 118.222C199.546 118.235 199.654 118.235 199.762 118.222C200.067 118.208 200.363 118.117 200.624 117.958L203.608 116.348Z" fill="#353131"/>
<path d="M204.482 37.2058L199.75 39.9448C199.45 40.125 199.199 40.0169 199.199 39.7165C199.221 39.5405 199.282 39.3716 199.377 39.2221C199.473 39.0725 199.6 38.946 199.75 38.8516L204.482 36.1126C204.782 35.9444 205.022 36.0405 205.022 36.3408C205.008 36.5178 204.951 36.6888 204.858 36.8394C204.764 36.99 204.635 37.1156 204.482 37.2058Z" fill="#191414"/>
<path d="M181.718 65.7011C181.83 65.8267 181.923 65.9684 181.993 66.1215C182.063 66.2848 182.1 66.4604 182.101 66.6381V72.4525C182.11 72.5368 182.097 72.6221 182.063 72.7C182.03 72.7778 181.977 72.8457 181.909 72.897L181.406 73.1853C181.478 73.1372 181.534 73.0702 181.57 72.9918C181.606 72.9134 181.62 72.8265 181.61 72.7408V66.9024C181.604 66.7239 181.564 66.5483 181.49 66.3858C181.422 66.2338 181.334 66.0923 181.226 65.9654C181.128 65.8567 181.01 65.7671 180.879 65.7011L180.687 65.593C180.614 65.5508 180.532 65.5286 180.448 65.5286C180.363 65.5286 180.281 65.5508 180.208 65.593L180.699 65.3046C180.774 65.2614 180.859 65.2386 180.945 65.2386C181.031 65.2386 181.116 65.2614 181.19 65.3046L181.37 65.4128C181.503 65.4859 181.621 65.5838 181.718 65.7011Z" fill="#F6F4F7"/>
<path d="M181.562 66.9023V72.7167C181.562 73.1612 181.25 73.3294 180.879 73.1131L180.687 73.005C180.485 72.875 180.317 72.6979 180.198 72.4886C180.079 72.2794 180.013 72.0444 180.004 71.8037V65.9773C180.004 65.5448 180.316 65.3646 180.687 65.5809L180.879 65.701C181.079 65.8332 181.245 66.0109 181.364 66.2196C181.483 66.4284 181.55 66.6623 181.562 66.9023Z" fill="#CBC6CF"/>
<path d="M181.718 56.7753C181.824 56.9049 181.917 57.0459 181.993 57.1957C182.061 57.3596 182.098 57.5348 182.101 57.7123V63.5267C182.111 63.6111 182.099 63.6968 182.065 63.7749C182.031 63.853 181.978 63.9207 181.909 63.9711L181.406 64.2595C181.478 64.2143 181.535 64.1497 181.571 64.073C181.607 63.9964 181.62 63.911 181.61 63.827V58.0006C181.602 57.8225 181.561 57.6474 181.49 57.484C181.425 57.3343 181.336 57.1963 181.226 57.0756C181.142 56.9713 181.041 56.882 180.927 56.8113L180.735 56.7032C180.662 56.661 180.58 56.6388 180.495 56.6388C180.411 56.6388 180.329 56.661 180.256 56.7032L180.747 56.4149C180.822 56.3716 180.906 56.3489 180.993 56.3489C181.079 56.3489 181.164 56.3716 181.238 56.4149L181.418 56.523C181.528 56.5938 181.629 56.6786 181.718 56.7753Z" fill="#F6F4F7"/>
<path d="M181.562 58.0006V63.827C181.562 64.2595 181.25 64.4397 180.879 64.2114L180.687 64.1033C180.485 63.9733 180.317 63.7961 180.198 63.5869C180.079 63.3777 180.013 63.1427 180.004 62.902V57.0996C180.004 56.6672 180.316 56.487 180.687 56.7032L180.879 56.8113C181.077 56.9423 181.243 57.1181 181.361 57.3246C181.48 57.5312 181.549 57.7627 181.562 58.0006Z" fill="#CBC6CF"/>
<path d="M197.473 40.0168C197.277 40.1517 197.114 40.3303 196.997 40.5387C196.881 40.7471 196.814 40.9796 196.802 41.2182C196.802 41.6506 197.102 41.8308 197.485 41.6026C197.686 41.4711 197.853 41.2936 197.972 41.0847C198.09 40.8758 198.158 40.6415 198.168 40.4013C198.168 39.9808 197.857 39.8006 197.473 40.0168Z" fill="#191414"/>
<path opacity="0.1" d="M196.982 41.0861C196.994 40.91 197.048 40.7393 197.14 40.5887C197.231 40.4381 197.358 40.312 197.509 40.2212C197.785 40.065 198.012 40.2212 198 40.5335C197.985 40.7071 197.929 40.8746 197.838 41.0227C197.746 41.1708 197.621 41.2953 197.473 41.3865C197.425 41.4304 197.365 41.4575 197.3 41.4638C197.235 41.4701 197.171 41.4552 197.115 41.4213C197.06 41.3874 197.017 41.3364 196.993 41.276C196.969 41.2155 196.965 41.1489 196.982 41.0861Z" fill="#CFD5D5"/>
<path opacity="0.1" d="M197.222 40.9779C197.228 40.8823 197.257 40.7896 197.308 40.7079C197.358 40.6263 197.427 40.5581 197.509 40.5094C197.665 40.4253 197.785 40.5094 197.773 40.6776C197.766 40.773 197.736 40.8653 197.686 40.9468C197.636 41.0283 197.567 41.0966 197.485 41.1461C197.294 41.2302 197.222 41.1461 197.222 40.9779Z" fill="#CFD5D5"/>
<g style="mix-blend-mode:screen" opacity="0.2">
<path d="M197.401 40.8818C197.403 40.8482 197.413 40.8155 197.43 40.7864C197.446 40.7572 197.469 40.7323 197.497 40.7136C197.557 40.7136 197.605 40.7136 197.605 40.7737C197.603 40.8086 197.592 40.8425 197.573 40.8719C197.554 40.9014 197.528 40.9255 197.497 40.9419C197.437 40.9779 197.389 40.9419 197.401 40.8818Z" fill="#CFD5D5"/>
</g>
<path opacity="0.7" d="M191.339 59.5863V121.13L228.05 99.8784V38.347L191.339 59.5863Z" fill="#CFE9FF"/>
<path d="M228.05 38.5753L191.339 59.8266V53.0391L228.05 31.7878V38.5753Z" fill="#07DBB4"/>
<path opacity="0.5" d="M228.05 58.5292L218.896 55.5259L199.283 83.8649V107.939L228.05 91.2891V58.5292Z" fill="#455CBA"/>
<path d="M221.352 64.8841L201.739 79.0596V103.086L240.08 80.8977V56.8713L221.352 64.8841Z" fill="#FFC522"/>
<path d="M201.739 79.0596L203.177 79.6723L222.73 79.3239L239.157 59.1418L240.068 56.8713L221.352 50.7206L201.739 79.0596Z" fill="#07DBB4"/>
<path opacity="0.7" d="M201.739 79.0597V103.134L203.177 101.176V79.6724L201.739 79.0597Z" fill="#EB9A1E"/>
<path opacity="0.3" d="M239.145 80.3571L203.177 101.176L201.739 103.134L240.068 80.9457L239.145 80.3571Z" fill="#EB9A1E"/>
<path opacity="0.1" d="M239.145 59.1298V80.3571L240.068 80.9457V56.8713L239.145 59.1298Z" fill="#EB9A1E"/>
<path opacity="0.7" d="M239.229 80.285L222.874 79.1798L222.754 79.324L239.157 80.4292L240.02 80.9938H240.092V80.8977L239.229 80.285Z" fill="#EB9A1E"/>
<path opacity="0.7" d="M203.117 101.128L201.739 103.002V103.134L201.906 103.038L203.284 101.224L222.73 79.3239H222.515L203.117 101.128Z" fill="#EB9A1E"/>
<path d="M236.305 72.0319L205.92 89.6192V65.4247L236.305 47.8374V72.0319Z" fill="#FFFAEB"/>
<path d="M231.022 63.8509L211.036 75.4196C209.994 76.0202 209.155 75.6599 209.155 74.6267V70.6984C209.216 70.0908 209.417 69.5058 209.744 68.9905C210.071 68.4751 210.513 68.0438 211.036 67.7312L231.022 56.1505C232.064 55.5498 232.903 55.9102 232.903 56.9554V60.8957C232.841 61.5012 232.638 62.0838 232.312 62.5969C231.985 63.11 231.543 63.5394 231.022 63.8509Z" fill="#07DBB4"/>
<path d="M192.645 56.4389V56.6191C192.63 56.7145 192.644 56.8121 192.685 56.8997C192.725 56.9872 192.79 57.0609 192.872 57.1116C192.98 57.1349 193.091 57.1351 193.198 57.1123C193.305 57.0896 193.407 57.0443 193.495 56.9795L194.154 56.5951C194.402 56.4505 194.611 56.2487 194.765 56.0064C194.916 55.7874 194.995 55.5274 194.993 55.2616V54.9973C195.006 54.864 194.967 54.7309 194.885 54.6249C194.853 54.5836 194.811 54.5516 194.762 54.5326C194.714 54.5136 194.661 54.5081 194.61 54.5168C194.483 54.5197 194.357 54.544 194.238 54.5889C194.094 54.6242 193.954 54.6725 193.819 54.733L193.448 54.8652C193.184 54.9373 193.052 54.8772 193.052 54.685V54.4567C193.051 54.2824 193.099 54.1113 193.19 53.9628C193.281 53.8142 193.412 53.694 193.567 53.6158L194.047 53.3395C194.394 53.1353 194.562 53.2194 194.562 53.5678V53.6759H194.634L194.897 53.5197C194.921 53.5076 194.941 53.4885 194.954 53.4649C194.967 53.4413 194.972 53.4143 194.969 53.3876V53.2434C194.969 52.9791 194.897 52.7629 194.742 52.7629C194.636 52.7365 194.527 52.7346 194.421 52.7576C194.315 52.7805 194.215 52.8275 194.13 52.895L193.495 53.2554C193.244 53.3996 193.031 53.6013 192.872 53.8441C192.729 54.0662 192.65 54.3242 192.645 54.5889V54.8772C192.645 55.1054 192.717 55.2977 192.848 55.2977C193.007 55.3576 193.181 55.3576 193.34 55.2977L193.903 55.0814C194.358 54.9132 194.586 54.9613 194.586 55.2376V55.4298C194.588 55.6013 194.54 55.7696 194.449 55.9146C194.357 56.0595 194.226 56.1749 194.071 56.2467L193.567 56.535C193.232 56.7392 193.064 56.6551 193.064 56.3188V56.1626H192.98L192.729 56.3068C192.703 56.3183 192.682 56.337 192.667 56.3604C192.652 56.3839 192.645 56.4111 192.645 56.4389Z" fill="#FFFAEB"/>
<path d="M196.599 55.1775L197.797 54.4808C197.817 54.4986 197.842 54.5092 197.869 54.5109C197.896 54.5125 197.922 54.5052 197.944 54.4899C197.966 54.4747 197.983 54.4526 197.991 54.4269C197.999 54.4013 197.998 54.3737 197.989 54.3486V54.1444H197.905L196.706 54.8171C196.383 55.0093 196.227 54.9373 196.227 54.6009V54.2525V54.1684L197.845 53.2314C197.867 53.2172 197.885 53.1977 197.898 53.1746C197.91 53.1515 197.917 53.1256 197.917 53.0993V52.3664C197.917 52.1022 197.845 51.934 197.701 51.8739C197.594 51.8507 197.483 51.8504 197.375 51.8732C197.268 51.896 197.167 51.9413 197.078 52.0061L196.599 52.2824C196.348 52.4265 196.134 52.6282 195.976 52.871C195.834 53.0978 195.759 53.3602 195.76 53.6278V54.8291C195.76 55.0934 195.832 55.2616 195.976 55.3217C196.084 55.3457 196.196 55.3452 196.303 55.3203C196.411 55.2953 196.512 55.2466 196.599 55.1775Z" fill="#FFFAEB"/>
<path d="M200.301 52.9551V52.7509C200.301 52.6908 200.229 52.7148 200.229 52.7148L199.438 53.1593C199.127 53.3515 198.971 53.2674 198.971 52.9431V51.7418C198.97 51.5812 199.013 51.4235 199.096 51.2858C199.178 51.1481 199.297 51.0357 199.438 50.9609L200.229 50.5164C200.25 50.5042 200.268 50.4867 200.281 50.4657C200.293 50.4447 200.3 50.4208 200.301 50.3963V50.1801H200.229L199.402 50.6606C199.152 50.8006 198.938 50.9982 198.779 51.2372C198.63 51.4613 198.551 51.7247 198.552 51.994V53.1954C198.552 53.4717 198.636 53.6158 198.779 53.6879C198.923 53.76 199.139 53.7119 199.402 53.5558L200.229 53.0752C200.251 53.064 200.269 53.0467 200.282 53.0255C200.295 53.0043 200.301 52.9799 200.301 52.9551Z" fill="#FFFAEB"/>
<path d="M201.679 52.2343L202.002 52.0541C202.273 51.9185 202.489 51.6937 202.613 51.4174V51.6457H202.697L202.961 51.4895C202.983 51.4782 203.001 51.461 203.014 51.4398C203.027 51.4185 203.033 51.3941 203.033 51.3694V48.6063H202.961L202.697 48.7625C202.674 48.7732 202.654 48.7899 202.639 48.8111C202.624 48.8322 202.615 48.8569 202.613 48.8826V50.8047C202.618 50.9707 202.572 51.1341 202.482 51.2733C202.377 51.4235 202.242 51.5504 202.086 51.6457L201.751 51.7898C201.439 51.982 201.271 51.8979 201.271 51.5736V49.5914H201.2L200.936 49.7476C200.914 49.7588 200.896 49.7761 200.883 49.7973C200.87 49.8185 200.864 49.8429 200.864 49.8677V51.8619C200.864 52.1262 200.936 52.2944 201.08 52.3664C201.183 52.3928 201.291 52.3946 201.395 52.3716C201.499 52.3487 201.596 52.3016 201.679 52.2343Z" fill="#FFFAEB"/>
<path d="M241.505 44.0774C241.371 45.3098 240.952 46.494 240.282 47.5364C239.613 48.5788 238.711 49.4509 237.647 50.0839C235.515 51.2852 233.789 50.5885 233.789 48.4501C233.912 47.2013 234.325 45.9987 234.995 44.9388C235.665 43.879 236.573 42.9914 237.647 42.3475C239.78 41.1461 241.505 41.8789 241.505 44.0774Z" fill="#DB3E3E"/>
<path d="M236.269 45.8793V45.1705C236.277 45.058 236.324 44.9517 236.401 44.8702L237.192 43.9211C237.284 43.7944 237.398 43.6846 237.528 43.5968L238.222 43.2003C238.342 43.1283 238.402 43.1523 238.402 43.2724V48.4861C238.418 48.5411 238.418 48.5993 238.402 48.6543C238.37 48.7059 238.325 48.7476 238.27 48.7744L237.528 49.2069C237.396 49.279 237.336 49.2069 237.336 49.1228V44.9062L236.497 45.8793C236.341 45.9994 236.269 45.9994 236.269 45.8793Z" fill="#FFFAEB"/>
<path d="M212.929 69.9777C213.205 70.3141 213.037 71.0469 212.546 71.6235C212.055 72.2001 211.42 72.3923 211.132 72.056C210.845 71.7196 211.012 70.9988 211.504 70.4222C211.995 69.8455 212.642 69.6533 212.929 69.9777ZM215.062 68.3679C214.571 68.9446 214.391 69.6774 214.679 70.0017C214.966 70.3261 215.601 70.1339 216.093 69.5692C216.584 69.0046 216.764 68.2598 216.476 67.9234C216.188 67.5871 215.553 67.7913 215.062 68.3679ZM218.657 66.3137C218.165 66.8783 217.998 67.6111 218.285 67.9475C218.573 68.2838 219.208 68.0796 219.699 67.515C220.19 66.9504 220.358 66.2056 220.082 65.8692C219.807 65.5328 219.112 65.701 218.609 66.3137H218.657ZM222.251 64.2474C221.76 64.824 221.58 65.5568 221.868 65.8932C222.155 66.2296 222.79 66.0254 223.281 65.4487C223.773 64.8721 223.952 64.1393 223.665 63.8149C223.377 63.4906 222.658 63.6828 222.167 64.2474H222.251ZM225.846 62.1932C225.342 62.7698 225.175 63.5026 225.462 63.839C225.75 64.1753 226.385 63.9711 226.876 63.3945C227.367 62.8178 227.547 62.085 227.259 61.7607C226.972 61.4363 226.217 61.6165 225.726 62.1932H225.846ZM229.44 60.1389C228.949 60.7155 228.769 61.4483 229.057 61.7727C229.344 62.0971 229.979 61.9169 230.482 61.3402C230.986 60.7636 231.141 60.0308 230.854 59.7064C230.566 59.3821 229.764 59.5623 229.272 60.1389H229.44Z" fill="#FFFAEB"/>
</g>
<defs>
<filter id="filter0_f_62_248" x="33.8339" y="-97.1373" width="333.213" height="333.213" filterUnits="userSpaceOnUse" color-interpolation-filters="sRGB">
<feFlood flood-opacity="0" result="BackgroundImageFix"/>
<feBlend mode="normal" in="SourceGraphic" in2="BackgroundImageFix" result="shape"/>
<feGaussianBlur stdDeviation="51.0379" result="effect1_foregroundBlur_62_248"/>
</filter>
<linearGradient id="paint0_linear_62_248" x1="179.429" y1="43.753" x2="222.272" y2="105.659" gradientUnits="userSpaceOnUse">
<stop stop-color="#5917FF"/>
<stop offset="0.16" stop-color="#6D22F8"/>
<stop offset="0.48" stop-color="#A13DE7"/>
<stop offset="0.95" stop-color="#42E8E0"/>
<stop offset="1" stop-color="#42E8E0"/>
</linearGradient>
<linearGradient id="paint1_linear_62_248" x1="192.552" y1="61.7046" x2="197.364" y2="53.3544" gradientUnits="userSpaceOnUse">
<stop stop-color="#C0B9C8"/>
<stop offset="1" stop-color="#F6F4F7"/>
</linearGradient>
<clipPath id="clip0_62_248">
<rect width="62.1841" height="102.076" fill="white" transform="translate(179.321 26.0576)"/>
</clipPath>
</defs>
</svg>
