<svg width="324" height="183" viewBox="0 0 324 183" fill="none" xmlns="http://www.w3.org/2000/svg">
<mask id="mask0_62_403" style="mask-type:alpha" maskUnits="userSpaceOnUse" x="0" y="0" width="324" height="183">
<rect x="0.472839" y="0.245361" width="322.653" height="181.859" rx="17.5993" fill="white"/>
</mask>
<g mask="url(#mask0_62_403)">
<g filter="url(#filter0_f_62_403)">
<ellipse cx="170.013" cy="77.4159" rx="56.9043" ry="58.0274" fill="#FA49C8" fill-opacity="0.27"/>
</g>
</g>
<g style="mix-blend-mode:multiply" opacity="0.4">
<path d="M207.094 55.6093L146.73 90.3159C144.994 91.3201 145.158 92.1109 147.094 92.0983H193.172L199.46 87.5419C203.447 80.7135 207.358 73.9228 211.156 66.9815L211.344 54.0905C209.86 54.3849 208.428 54.8967 207.094 55.6093Z" fill="#50197C"/>
</g>
<path d="M191.16 36.166C190.78 36.0129 190.366 35.9591 189.959 36.0096C189.552 36.0601 189.165 36.2133 188.834 36.4547L128.595 71.0861C127.724 71.6104 126.987 72.3305 126.443 73.189C125.9 74.0476 125.564 75.0209 125.464 76.0316V117.529C125.426 117.865 125.491 118.204 125.65 118.502C125.81 118.8 126.056 119.043 126.357 119.198L127.3 119.638C127.669 119.752 128.06 119.78 128.441 119.719C128.823 119.658 129.186 119.51 129.501 119.286L189.739 84.6549C190.611 84.1341 191.348 83.4165 191.892 82.5599C192.436 81.7032 192.771 80.7312 192.87 79.7219V38.212C192.894 37.9156 192.844 37.6179 192.723 37.346C192.602 37.0742 192.415 36.8368 192.179 36.6556C191.839 36.4296 191.462 36.3418 191.16 36.166Z" fill="#E0DBE1"/>
<path d="M189.689 84.655L129.45 119.286C127.727 120.278 126.319 119.688 126.319 117.956V76.4459C126.421 75.4374 126.758 74.4666 127.301 73.6104C127.845 72.7541 128.58 72.036 129.45 71.5129L189.739 36.8816C191.462 35.8899 192.87 36.4799 192.87 38.2121V79.722C192.765 80.7359 192.423 81.7108 191.87 82.5678C191.317 83.4249 190.57 84.1399 189.689 84.655Z" fill="#07DBB4"/>
<path d="M178.534 53.8646C178.337 54.0025 178.111 54.0934 177.873 54.1304C177.636 54.1674 177.393 54.1495 177.163 54.078C176.973 53.9837 176.816 53.833 176.715 53.6465C176.614 53.46 176.572 53.2469 176.597 53.0362V50.2998C176.658 49.6739 176.865 49.0708 177.201 48.539C177.538 48.0072 177.994 47.5613 178.534 47.2371L187.173 42.279C187.37 42.1399 187.595 42.0472 187.833 42.0081C188.07 41.9689 188.314 41.9843 188.544 42.053C188.735 42.1473 188.891 42.298 188.992 42.4845C189.094 42.671 189.135 42.8842 189.11 43.0949V45.8438C189.046 46.4687 188.836 47.0699 188.498 47.5995C188.159 48.1291 187.702 48.5724 187.161 48.894L178.534 53.8646Z" fill="#F0F2FF"/>
<path opacity="0.4" d="M131.991 113.977C131.794 114.115 131.568 114.206 131.33 114.243C131.093 114.28 130.85 114.262 130.62 114.19C130.43 114.096 130.273 113.945 130.172 113.759C130.07 113.572 130.029 113.359 130.054 113.148V107.889C130.114 107.263 130.32 106.659 130.657 106.127C130.993 105.595 131.45 105.15 131.991 104.826L141.41 99.4163C141.606 99.2772 141.832 99.1846 142.069 99.1454C142.307 99.1063 142.55 99.1216 142.781 99.1904C142.971 99.2847 143.128 99.4353 143.229 99.6218C143.33 99.8083 143.371 100.022 143.347 100.232V105.504C143.285 106.128 143.077 106.729 142.741 107.259C142.405 107.788 141.949 108.232 141.41 108.554L131.991 113.977Z" fill="#3452A5"/>
<path d="M141.171 99.6673L131.752 105.09C131.306 105.354 130.928 105.718 130.648 106.154C130.369 106.59 130.195 107.085 130.142 107.6V112.86C130.142 113.751 130.859 114.115 131.739 113.537L141.158 108.127C141.604 107.863 141.981 107.498 142.261 107.062C142.54 106.626 142.714 106.132 142.768 105.617V100.345C142.768 99.4664 142.051 99.1526 141.171 99.6673Z" fill="#FFC440"/>
<g opacity="0.6">
<path d="M141.46 107.939L141.75 107.688V99.4414L141.473 99.5293V101.575L138.492 103.307C138.341 102.504 137.549 102.266 136.606 102.818C136.125 103.112 135.709 103.501 135.382 103.961C135.056 104.42 134.826 104.941 134.707 105.492L131.551 107.261V105.203L131.261 105.416V113.738L131.538 113.638V111.353L134.707 109.584C134.833 110.45 135.625 110.713 136.593 110.148C137.088 109.852 137.514 109.454 137.842 108.979C138.169 108.505 138.391 107.967 138.492 107.399L141.46 105.692V107.939ZM134.682 105.818V109.295L131.551 111.077V107.55L134.682 105.818ZM136.581 103.069C137.373 102.617 138.027 102.793 138.191 103.446L134.971 105.303C135.075 104.842 135.271 104.406 135.548 104.022C135.824 103.638 136.176 103.314 136.581 103.069ZM136.581 109.847C135.776 110.312 135.097 110.098 134.971 109.395L138.203 107.538C138.106 108.013 137.912 108.463 137.632 108.861C137.353 109.258 136.995 109.594 136.581 109.847ZM138.228 107.236L134.946 109.132V105.655L138.228 103.709V107.236ZM138.518 107.073V103.609L141.46 101.864V105.391L138.518 107.073Z" fill="#D88C1D"/>
</g>
<path d="M183.363 80.6257C183.423 79.5389 183.74 78.4816 184.286 77.5395C184.832 76.5975 185.593 75.7971 186.507 75.2032C188.23 74.2116 189.638 75.0149 189.638 77.0107C189.579 78.0964 189.265 79.153 188.721 80.095C188.177 81.037 187.419 81.838 186.507 82.4332C184.771 83.4374 183.363 82.6215 183.363 80.6257Z" fill="#F4AC1C"/>
<path d="M176.157 84.7804C176.224 83.6907 176.546 82.632 177.099 81.69C177.652 80.7479 178.419 79.949 179.339 79.3579C181.074 78.3663 182.483 79.1696 182.483 81.1654C182.423 82.2524 182.107 83.3101 181.561 84.2524C181.015 85.1946 180.253 85.9948 179.339 86.5879C177.566 87.5921 176.157 86.7762 176.157 84.7804Z" fill="#B53333"/>
<path d="M132.443 94.3578C132.594 94.0987 132.672 93.8039 132.67 93.5043V91.1947C132.67 90.8809 132.594 90.6926 132.443 90.6047C132.341 90.5652 132.23 90.5536 132.122 90.5713C132.013 90.5889 131.912 90.6351 131.827 90.7051L131.249 91.0315C130.99 91.1792 130.773 91.391 130.62 91.6466C130.469 91.9102 130.391 92.2091 130.394 92.5127V94.8222C130.394 95.1235 130.469 95.3243 130.62 95.4122C130.771 95.5001 130.985 95.4122 131.249 95.3118L131.827 94.9854C132.083 94.8326 132.295 94.6164 132.443 94.3578ZM132.255 93.7302C132.263 93.9043 132.221 94.0771 132.134 94.2283C132.047 94.3794 131.919 94.5028 131.764 94.5838L131.299 94.8599C130.972 95.0482 130.821 94.9478 130.821 94.5586V92.2867C130.809 92.1134 130.847 91.9403 130.932 91.7887C131.017 91.637 131.145 91.5135 131.299 91.4332L131.764 91.157C132.091 90.9646 132.255 91.065 132.255 91.4583V93.7302Z" fill="#F0F2FF"/>
<path d="M135.386 92.6633C135.535 92.4035 135.613 92.1091 135.613 91.8097V89.5001C135.613 89.1863 135.537 88.9855 135.386 88.9102C135.235 88.8348 135.034 88.8474 134.77 88.998L134.191 89.3369C133.942 89.4833 133.732 89.6898 133.583 89.9376C133.434 90.1853 133.349 90.4665 133.336 90.7553V93.0775C133.336 93.3787 133.412 93.5796 133.575 93.6674C133.739 93.7553 133.927 93.6674 134.191 93.567L134.77 93.2406C135.02 93.1018 135.232 92.9035 135.386 92.6633ZM135.197 92.0105C135.204 92.1829 135.163 92.3536 135.078 92.5041C134.994 92.6546 134.87 92.7791 134.72 92.8641L134.242 93.1402C133.927 93.316 133.764 93.2155 133.764 92.839V90.5921C133.755 90.4194 133.795 90.2475 133.879 90.0964C133.964 89.9454 134.089 89.8213 134.242 89.7386L134.72 89.4625C135.034 89.2742 135.197 89.3746 135.197 89.7637V92.0105Z" fill="#F0F2FF"/>
<path d="M138.341 90.9687C138.491 90.7089 138.569 90.4146 138.568 90.1151V87.8056C138.568 87.4959 138.492 87.2951 138.341 87.2031C138.236 87.1672 138.124 87.1576 138.015 87.1751C137.905 87.1926 137.801 87.2367 137.713 87.3035L137.134 87.6424C136.901 87.7922 136.71 87.9998 136.581 88.2449C136.43 88.504 136.352 88.7988 136.354 89.0984V91.408C136.354 91.7218 136.43 91.9101 136.581 91.998C136.732 92.0858 136.933 91.998 137.197 91.9101L137.776 91.5712C138.01 91.4188 138.204 91.2121 138.341 90.9687ZM138.153 90.3285C138.162 90.5045 138.12 90.6793 138.034 90.8326C137.947 90.986 137.818 91.1115 137.662 91.1946L137.184 91.4582C136.87 91.6465 136.707 91.5461 136.707 91.157V88.885C136.7 88.7127 136.742 88.542 136.826 88.3915C136.91 88.241 137.034 88.1164 137.184 88.0315L137.662 87.7679C137.989 87.5796 138.153 87.68 138.153 88.0566V90.3285Z" fill="#F0F2FF"/>
<path d="M141.284 89.2741C141.433 89.0144 141.511 88.72 141.511 88.4206V86.0984C141.511 85.7972 141.435 85.5964 141.284 85.5085C141.133 85.4206 140.92 85.5085 140.655 85.6089L140.077 85.9353C139.821 86.0881 139.609 86.3043 139.461 86.5629C139.308 86.8212 139.23 87.1166 139.234 87.4164V89.726C139.234 90.0273 139.31 90.2281 139.461 90.316C139.562 90.3586 139.673 90.3729 139.781 90.3574C139.89 90.3419 139.992 90.2972 140.077 90.2281L140.655 89.8892C140.915 89.7415 141.131 89.5297 141.284 89.2741ZM141.096 88.634C141.105 88.8083 141.064 88.9817 140.977 89.1332C140.89 89.2847 140.761 89.4078 140.605 89.4875L140.14 89.7637C139.813 89.952 139.662 89.8515 139.662 89.4624V87.1905C139.651 87.0174 139.691 86.845 139.775 86.6936C139.86 86.5423 139.987 86.4185 140.14 86.3369L140.605 86.0608C140.932 85.8683 141.096 85.9687 141.096 86.362V88.634Z" fill="#F0F2FF"/>
<path d="M148.452 85.1319C148.607 84.8739 148.69 84.5791 148.691 84.2784V81.9688C148.691 81.655 148.603 81.4667 148.452 81.3789C148.302 81.291 148.1 81.3789 147.836 81.4793L147.258 81.8056C147 81.9502 146.786 82.163 146.642 82.4207C146.491 82.6844 146.413 82.9832 146.415 83.2868V85.5964C146.415 85.8976 146.491 86.0985 146.642 86.1863C146.792 86.2742 146.994 86.1863 147.258 86.0859L147.899 85.7345C148.131 85.5833 148.322 85.3761 148.452 85.1319ZM148.264 84.5043C148.273 84.6771 148.233 84.849 148.148 85.0001C148.064 85.1511 147.938 85.2752 147.786 85.3579L147.308 85.634C146.994 85.8098 146.83 85.7093 146.83 85.3328V83.0608C146.821 82.8881 146.861 82.7162 146.946 82.5651C147.03 82.4141 147.156 82.29 147.308 82.2073L147.786 81.9312C148.113 81.7429 148.264 81.8433 148.264 82.2324V84.5043Z" fill="#F0F2FF"/>
<path d="M151.408 83.4374C151.557 83.1777 151.635 82.8833 151.634 82.5839V80.2743C151.634 79.9647 151.559 79.7638 151.408 79.6718C151.303 79.636 151.19 79.6264 151.081 79.6439C150.971 79.6614 150.868 79.7055 150.779 79.7722L150.2 80.1111C149.942 80.2557 149.729 80.4685 149.584 80.7262C149.435 80.986 149.357 81.2803 149.358 81.5797V83.8893C149.358 84.2031 149.433 84.3914 149.584 84.4793C149.735 84.5671 149.936 84.4793 150.2 84.3914L150.779 84.0525C151.041 83.9082 151.258 83.6956 151.408 83.4374ZM151.219 82.7973C151.228 82.9732 151.187 83.148 151.1 83.3014C151.013 83.4547 150.884 83.5803 150.729 83.6634L150.251 83.9395C149.936 84.1153 149.773 84.0148 149.773 83.6257V81.3663C149.764 81.1919 149.804 81.0186 149.889 80.8656C149.973 80.7127 150.099 80.5862 150.251 80.5002L150.729 80.2366C151.056 80.0484 151.219 80.1488 151.219 80.5253V82.7973Z" fill="#F0F2FF"/>
<path d="M154.351 81.7428C154.5 81.483 154.578 81.1887 154.577 80.8893V78.5797C154.577 78.27 154.501 78.0692 154.351 77.9772C154.248 77.9376 154.137 77.9261 154.029 77.9437C153.92 77.9614 153.819 78.0076 153.734 78.0776L153.156 78.4165C152.894 78.5608 152.677 78.7734 152.527 79.0315C152.376 79.2906 152.298 79.5855 152.301 79.8851V82.1947C152.301 82.5085 152.376 82.6968 152.527 82.7846C152.63 82.827 152.743 82.8412 152.853 82.8257C152.964 82.8103 153.068 82.7658 153.156 82.6968L153.734 82.3579C153.99 82.2098 154.202 81.9978 154.351 81.7428ZM154.187 81.1026C154.196 81.2786 154.155 81.4534 154.068 81.6068C153.981 81.7601 153.852 81.8857 153.697 81.9687L153.231 82.2323C152.904 82.4206 152.753 82.3202 152.753 81.9311V79.6591C152.744 79.4864 152.784 79.3145 152.869 79.1634C152.953 79.0124 153.079 78.8883 153.231 78.8056L153.697 78.5295C154.024 78.3119 154.187 78.4123 154.187 78.8307V81.1026Z" fill="#F0F2FF"/>
<path d="M157.293 80.0358C157.444 79.7767 157.522 79.4818 157.52 79.1822V76.8726C157.52 76.5588 157.444 76.3705 157.293 76.2827C157.142 76.1948 156.941 76.2827 156.677 76.3831L156.099 76.7094C155.843 76.8575 155.631 77.0695 155.482 77.3245C155.322 77.5846 155.239 77.8851 155.243 78.1906V80.5002C155.243 80.8014 155.319 81.0023 155.482 81.0901C155.646 81.178 155.834 81.0901 156.099 80.9897L156.702 80.7136C156.958 80.5468 157.163 80.3121 157.293 80.0358ZM157.105 79.4081C157.112 79.5807 157.072 79.752 156.987 79.9028C156.903 80.0535 156.778 80.1778 156.627 80.2617L156.149 80.5378C155.834 80.7261 155.671 80.6257 155.671 80.2366V77.9647C155.662 77.7919 155.702 77.62 155.786 77.4689C155.871 77.3179 155.997 77.1938 156.149 77.1111L156.627 76.835C156.941 76.6467 157.105 76.7471 157.105 77.1362V79.4081Z" fill="#F0F2FF"/>
<path d="M164.474 75.9061C164.623 75.6463 164.701 75.3519 164.7 75.0525V72.7429C164.7 72.4291 164.625 72.2283 164.474 72.153C164.371 72.1106 164.258 72.0965 164.148 72.1119C164.037 72.1273 163.933 72.1718 163.845 72.2409L163.267 72.5798C163.009 72.7284 162.795 72.9426 162.647 73.2006C162.499 73.4586 162.422 73.7511 162.424 74.0484V76.358C162.424 76.6759 162.5 76.8768 162.651 76.9605C162.754 76.9963 162.864 77.0059 162.971 76.9884C163.079 76.9709 163.181 76.9267 163.267 76.86L163.845 76.5211C164.107 76.3769 164.324 76.1642 164.474 75.9061ZM164.248 75.2659C164.257 75.4419 164.215 75.6167 164.128 75.77C164.042 75.9234 163.913 76.0489 163.757 76.132L163.292 76.4082C162.965 76.5839 162.802 76.4835 162.802 76.0944V73.835C162.793 73.6591 162.834 73.4842 162.921 73.3309C163.008 73.1775 163.136 73.052 163.292 72.9689L163.757 72.7053C164.084 72.5128 164.248 72.6132 164.248 73.0065V75.2659Z" fill="#F0F2FF"/>
<path d="M167.417 74.2116C167.566 73.9518 167.644 73.6574 167.643 73.358V71.0484C167.643 70.7388 167.568 70.538 167.417 70.4459C167.314 70.4064 167.203 70.3948 167.095 70.4125C166.987 70.4301 166.885 70.4763 166.801 70.5463L166.222 70.8852C165.961 71.0295 165.743 71.2421 165.593 71.5003C165.443 71.7594 165.364 72.0542 165.367 72.3538V74.6634C165.367 74.9772 165.442 75.1655 165.593 75.2534C165.697 75.2957 165.809 75.3099 165.92 75.2945C166.03 75.279 166.135 75.2345 166.222 75.1655L166.801 74.8266C167.056 74.6786 167.269 74.4666 167.417 74.2116ZM167.228 73.5714C167.238 73.7445 167.2 73.917 167.118 74.0699C167.036 74.2227 166.913 74.3499 166.763 74.4375L166.285 74.7011C165.958 74.8894 165.807 74.7889 165.807 74.3998V72.1279C165.798 71.9551 165.838 71.7832 165.922 71.6322C166.007 71.4811 166.133 71.3571 166.285 71.2744L166.763 70.9982C167.077 70.8225 167.241 70.9229 167.241 71.2995L167.228 73.5714Z" fill="#F0F2FF"/>
<path d="M170.36 72.5045C170.514 72.2464 170.597 71.9517 170.598 71.651V69.3414C170.614 69.2308 170.6 69.1181 170.558 69.0147C170.516 68.9112 170.447 68.8204 170.36 68.7514C170.209 68.6636 170.007 68.7514 169.743 68.8518L169.165 69.1782C168.907 69.334 168.693 69.553 168.543 69.8144C168.394 70.0757 168.313 70.3709 168.31 70.6719V72.9815C168.295 73.0921 168.309 73.2047 168.351 73.3082C168.392 73.4117 168.461 73.5024 168.549 73.5714C168.7 73.6593 168.901 73.5714 169.165 73.471L169.743 73.1447C170.004 72.9917 170.217 72.7702 170.36 72.5045ZM170.171 71.8769C170.182 72.0499 170.142 72.2224 170.058 72.3737C169.973 72.5251 169.846 72.6489 169.693 72.7304L169.215 73.0066C168.901 73.1949 168.737 73.0945 168.737 72.7053V70.4334C168.73 70.2609 168.77 70.0896 168.855 69.9388C168.939 69.788 169.064 69.6637 169.215 69.5799L169.693 69.3037C170.02 69.1154 170.171 69.2158 170.171 69.605V71.8769Z" fill="#F0F2FF"/>
<path d="M173.315 70.8099C173.466 70.5508 173.544 70.256 173.541 69.9564V67.6468C173.541 67.333 173.466 67.1447 173.315 67.0568C173.164 66.969 172.95 67.0568 172.686 67.1573L172.108 67.4836C171.848 67.6333 171.633 67.8495 171.485 68.1099C171.336 68.3702 171.261 68.6654 171.265 68.9648V71.2744C171.265 71.5756 171.34 71.7764 171.491 71.8643C171.642 71.9522 171.843 71.8643 172.108 71.7639L172.686 71.4375C172.949 71.2888 173.166 71.0719 173.315 70.8099ZM173.126 70.1823C173.133 70.3562 173.09 70.5283 173.004 70.6792C172.917 70.8301 172.789 70.9537 172.636 71.0359L172.158 71.312C171.843 71.5003 171.68 71.3873 171.68 71.0108V68.7388C171.671 68.566 171.711 68.3942 171.795 68.2431C171.88 68.0921 172.006 67.968 172.158 67.8853L172.636 67.6091C172.963 67.425 173.126 67.5254 173.126 67.9104V70.1823Z" fill="#F0F2FF"/>
<path d="M180.483 66.6803C180.632 66.4205 180.71 66.1261 180.709 65.8267V63.5171C180.709 63.2075 180.634 63.0067 180.483 62.9146C180.38 62.8788 180.27 62.8692 180.162 62.8867C180.055 62.9042 179.953 62.9484 179.867 63.0151L179.288 63.354C179.029 63.5016 178.813 63.7135 178.66 63.969C178.509 64.2281 178.431 64.5229 178.433 64.8226V67.1322C178.433 67.446 178.509 67.6342 178.66 67.7221C178.763 67.7645 178.875 67.7786 178.986 67.7632C179.096 67.7478 179.201 67.7033 179.288 67.6342L179.867 67.2953C180.125 67.1508 180.338 66.938 180.483 66.6803ZM180.294 66.0401C180.303 66.2145 180.263 66.3879 180.179 66.5408C180.094 66.6938 179.969 66.8203 179.817 66.9062L179.339 67.1698C179.024 67.3581 178.861 67.2577 178.861 66.8686V64.5966C178.855 64.4243 178.896 64.2536 178.98 64.1031C179.064 63.9526 179.188 63.828 179.339 63.7431L179.817 63.4669C180.131 63.2912 180.294 63.3916 180.294 63.7682V66.0401Z" fill="#F0F2FF"/>
<path d="M183.426 64.9857C183.586 64.7255 183.669 64.4251 183.665 64.1196V61.81C183.665 61.5087 183.589 61.3079 183.426 61.22C183.262 61.1322 183.074 61.22 182.81 61.3205L182.231 61.6468C181.972 61.8005 181.758 62.0193 181.61 62.2814C181.462 62.5435 181.386 62.8397 181.389 63.1405V65.4501C181.389 65.7514 181.464 65.9522 181.615 66.0401C181.766 66.1279 181.967 66.1028 182.231 65.9396L182.81 65.6133C183.067 65.4618 183.279 65.2453 183.426 64.9857ZM183.25 64.3957C183.259 64.5701 183.218 64.7435 183.131 64.895C183.044 65.0464 182.915 65.1695 182.759 65.2493L182.281 65.5254C181.967 65.7137 181.804 65.6133 181.804 65.2242V62.902C181.796 62.7295 181.836 62.5582 181.921 62.4074C182.005 62.2566 182.13 62.1323 182.281 62.0485L182.759 61.7723C183.086 61.5882 183.25 61.6887 183.25 62.0736V64.3957Z" fill="#F0F2FF"/>
<path d="M186.381 63.2787C186.532 63.0196 186.61 62.7248 186.608 62.4251V60.1155C186.608 59.8017 186.532 59.6135 186.381 59.5256C186.23 59.4377 186.016 59.5256 185.752 59.626L185.174 59.9524C184.921 60.1043 184.71 60.3154 184.558 60.5674C184.407 60.8311 184.329 61.1299 184.331 61.4335V63.7431C184.331 64.0444 184.407 64.2452 184.558 64.3331C184.66 64.3726 184.771 64.3842 184.879 64.3665C184.988 64.3489 185.089 64.3026 185.174 64.2326L185.752 63.9063C186.015 63.7575 186.232 63.5407 186.381 63.2787ZM186.193 62.6511C186.199 62.8249 186.157 62.9971 186.07 63.148C185.983 63.2989 185.856 63.4225 185.702 63.5046L185.237 63.7808C184.91 63.9649 184.746 63.8644 184.746 63.4795V61.2076C184.737 61.0332 184.778 60.8598 184.865 60.7083C184.952 60.5569 185.081 60.4338 185.237 60.354L185.702 60.0779C186.029 59.8938 186.193 59.9942 186.193 60.3791V62.6511Z" fill="#F0F2FF"/>
<path d="M189.55 60.7306V58.421C189.55 58.1072 189.475 57.9064 189.324 57.8311C189.223 57.7885 189.112 57.7741 189.004 57.7896C188.895 57.8051 188.793 57.8498 188.708 57.919L188.129 58.2579C187.868 58.4021 187.65 58.6148 187.5 58.8729C187.351 59.1327 187.273 59.4271 187.274 59.7265V62.0361C187.274 62.354 187.35 62.5549 187.5 62.6386C187.651 62.7264 187.865 62.6386 188.129 62.5381L188.708 62.1992C188.966 62.0506 189.18 61.8364 189.328 61.5784C189.476 61.3204 189.552 61.0279 189.55 60.7306ZM189.135 60.944C189.144 61.1199 189.103 61.2948 189.016 61.4481C188.929 61.6015 188.8 61.727 188.645 61.8101L188.18 62.0863C187.853 62.262 187.702 62.1616 187.702 61.785V59.5131C187.692 59.3384 187.731 59.1645 187.816 59.0113C187.9 58.8581 188.026 58.7318 188.18 58.647L188.645 58.3834C188.972 58.1909 189.135 58.2913 189.135 58.6846V60.944Z" fill="#F0F2FF"/>
<path d="M130.293 79.132V75.8183C130.294 75.7895 130.305 75.7619 130.323 75.7394C130.341 75.7169 130.366 75.7006 130.394 75.6928L131.563 75.0275C131.638 74.9673 131.726 74.9266 131.821 74.909C131.915 74.8915 132.012 74.8977 132.104 74.9271C132.179 74.9885 132.237 75.0681 132.272 75.1582C132.307 75.2483 132.318 75.3459 132.305 75.4417V77.2492C132.304 77.5094 132.235 77.7649 132.104 77.9898C131.977 78.2126 131.789 78.3953 131.563 78.517L130.394 79.1948C130.394 79.1948 130.293 79.1948 130.293 79.132ZM130.809 78.4668L131.475 78.0902C131.582 78.0305 131.67 77.9427 131.729 77.8364C131.789 77.7302 131.819 77.6096 131.815 77.4877V75.6928C131.815 75.4292 131.701 75.3539 131.475 75.4794L130.809 75.8685C130.802 75.8822 130.798 75.8972 130.798 75.9124C130.798 75.9276 130.802 75.9427 130.809 75.9564V78.4668C130.809 78.4668 130.796 78.4919 130.834 78.4668H130.809Z" fill="#F0F2FF"/>
<path d="M134.531 76.7973L133.022 77.6634H132.946V74.312C132.943 74.2841 132.949 74.2559 132.963 74.2312C132.976 74.2065 132.997 74.1866 133.022 74.1739L134.531 73.2953H134.606V73.5714C134.609 73.5994 134.604 73.6276 134.59 73.6522C134.577 73.6769 134.556 73.6969 134.531 73.7095L133.462 74.3246C133.462 74.3246 133.462 74.3246 133.462 74.4124V75.3413L134.368 74.8266H134.456V75.1028C134.458 75.1322 134.45 75.1614 134.434 75.1863C134.418 75.2111 134.395 75.2302 134.368 75.2409L133.462 75.7681C133.462 75.7681 133.462 75.7681 133.462 75.8559V76.948L134.531 76.3204H134.606V76.5965C134.617 76.6142 134.623 76.6341 134.625 76.6545C134.627 76.675 134.624 76.6956 134.617 76.7149C134.609 76.7341 134.598 76.7515 134.583 76.7658C134.568 76.78 134.551 76.7908 134.531 76.7973Z" fill="#F0F2FF"/>
<path d="M135.21 76.3204V72.9941C135.211 72.9668 135.218 72.9401 135.231 72.9161C135.245 72.8922 135.263 72.8716 135.286 72.856L136.405 72.2158C136.482 72.1555 136.573 72.1149 136.669 72.0974C136.765 72.0799 136.865 72.0861 136.958 72.1154C137.084 72.1907 137.147 72.3539 137.147 72.63V72.8936C137.147 73.0518 137.111 73.208 137.044 73.3511C136.977 73.4943 136.879 73.6209 136.757 73.7221C136.802 73.6929 136.854 73.6774 136.908 73.6774C136.961 73.6774 137.014 73.6929 137.059 73.7221C137.107 73.7661 137.143 73.8211 137.165 73.8823C137.187 73.9436 137.194 74.0092 137.184 74.0735V74.4376C137.186 74.6925 137.121 74.9434 136.996 75.1656C136.858 75.3802 136.673 75.5605 136.455 75.6928L135.286 76.358C135.286 76.358 135.21 76.3831 135.21 76.3204ZM135.726 74.1112L136.329 73.7472C136.44 73.6909 136.534 73.6045 136.598 73.498C136.663 73.3915 136.696 73.2691 136.694 73.1447V72.8936C136.694 72.63 136.581 72.5673 136.342 72.7054L135.726 73.0694C135.708 73.0724 135.692 73.0816 135.68 73.0954C135.669 73.1092 135.663 73.1267 135.663 73.1447V74.0861C135.663 74.0861 135.688 74.1237 135.726 74.1112ZM135.726 75.6677L136.38 75.2785C136.488 75.2237 136.579 75.1392 136.642 75.0347C136.704 74.9302 136.735 74.8102 136.732 74.6886V74.3497C136.732 74.0861 136.606 74.0233 136.367 74.174L135.726 74.538C135.726 74.538 135.663 74.538 135.663 74.6258V75.6928C135.663 75.6928 135.688 75.6928 135.726 75.6928V75.6677Z" fill="#F0F2FF"/>
<path d="M138.304 71.2241V74.5379C138.304 74.5669 138.296 74.5954 138.28 74.6199C138.265 74.6444 138.242 74.6638 138.216 74.6759L137.926 74.8517C137.864 74.8517 137.838 74.8517 137.838 74.8517V71.4877C137.836 71.4583 137.844 71.4291 137.86 71.4042C137.876 71.3794 137.899 71.3602 137.926 71.3496L138.216 71.1739C138.216 71.1739 138.304 71.1613 138.304 71.2241Z" fill="#F0F2FF"/>
<path d="M139.851 73.7346L139.549 73.9103C139.486 73.9103 139.461 73.9103 139.461 73.9103V71.0233L138.87 71.3622H138.782V71.0861C138.783 71.0557 138.792 71.0262 138.807 71C138.822 70.9737 138.844 70.9516 138.87 70.9354L140.618 69.9313H140.706V70.2074C140.707 70.2383 140.699 70.2688 140.684 70.2955C140.668 70.3221 140.645 70.3438 140.618 70.358L139.976 70.6719C139.97 70.6855 139.966 70.7006 139.966 70.7158C139.966 70.731 139.97 70.746 139.976 70.7597V73.6467C139.966 73.6721 139.949 73.694 139.927 73.7096C139.904 73.7253 139.878 73.734 139.851 73.7346Z" fill="#F0F2FF"/>
<path d="M143.422 71.676L142.869 71.9898C142.795 72.0512 142.705 72.0917 142.61 72.1072C142.515 72.1226 142.418 72.1125 142.328 72.0777C142.202 72.0024 142.139 71.8392 142.139 71.5756V69.7556C142.136 69.5004 142.201 69.2491 142.328 69.0275C142.458 68.8036 142.644 68.6175 142.869 68.4878L143.422 68.174C143.648 68.0485 143.825 68.0108 143.963 68.0861C144.101 68.1614 144.151 68.3246 144.151 68.6008V68.8644C144.153 68.8937 144.146 68.923 144.13 68.9478C144.114 68.9727 144.091 68.9918 144.063 69.0024L143.774 69.1782H143.686V68.9397C143.686 68.6635 143.573 68.6008 143.347 68.7263L142.944 68.9648C142.837 69.0234 142.748 69.111 142.688 69.2175C142.628 69.324 142.599 69.4452 142.605 69.5673V71.3371C142.605 71.6007 142.718 71.676 142.944 71.538L143.347 71.2995C143.454 71.2441 143.543 71.159 143.603 71.0544C143.664 70.9498 143.692 70.83 143.686 70.7095V70.4208C143.683 70.3897 143.69 70.3585 143.706 70.3315C143.722 70.3045 143.746 70.2831 143.774 70.2702L144.063 70.0945C144.126 70.0945 144.151 70.0945 144.151 70.0945V70.3581C144.153 70.617 144.088 70.8721 143.963 71.0986C143.831 71.3315 143.646 71.5295 143.422 71.676Z" fill="#F0F2FF"/>
<path d="M144.906 70.8225L144.566 71.0233C144.566 71.0233 144.504 71.0233 144.566 70.948L145.384 67.1824C145.407 67.1225 145.446 67.0703 145.497 67.0318L145.975 66.7556C146.038 66.7556 146.076 66.7556 146.088 66.7556L146.906 69.605C146.918 69.6235 146.925 69.6454 146.925 69.6677C146.925 69.6901 146.918 69.7119 146.906 69.7305L146.579 69.9188C146.579 69.9188 146.579 69.9188 146.516 69.9188C146.453 69.9188 146.516 69.9188 146.516 69.856L146.34 69.2535L145.296 69.856L145.12 70.6719C145.104 70.716 145.075 70.7542 145.037 70.7812C144.999 70.8081 144.953 70.8226 144.906 70.8225ZM145.673 67.3958L145.258 69.4167L146.113 68.9271L145.698 67.4209L145.673 67.3958Z" fill="#F0F2FF"/>
<path d="M147.71 69.2032L147.409 69.3789H147.333V66.015C147.33 65.987 147.336 65.9588 147.349 65.9342C147.363 65.9095 147.384 65.8895 147.409 65.8769L148.515 65.2367C148.742 65.1112 148.93 65.0736 149.056 65.1489C149.131 65.2103 149.189 65.2898 149.224 65.38C149.259 65.4701 149.271 65.5677 149.257 65.6635V66.1279C149.262 66.3239 149.224 66.5186 149.146 66.6984C149.067 66.8783 148.951 67.0391 148.805 67.1698L149.333 68.1614C149.333 68.1614 149.333 68.2618 149.27 68.312L148.968 68.4752C148.893 68.4752 148.842 68.4752 148.83 68.4752L148.327 67.5087L147.899 67.7848C147.899 67.7848 147.836 67.7848 147.836 67.8727V69.0651C147.836 69.0997 147.824 69.133 147.8 69.1586C147.777 69.1841 147.745 69.2001 147.71 69.2032ZM147.836 67.3455L148.44 67.0066C148.548 66.9474 148.638 66.8601 148.7 66.754C148.762 66.6479 148.794 66.5269 148.792 66.4041V65.9522C148.792 65.6761 148.666 65.6133 148.44 65.7514L147.836 66.0903C147.83 66.104 147.826 66.119 147.826 66.1342C147.826 66.1494 147.83 66.1645 147.836 66.1781V67.3204C147.836 67.3204 147.799 67.3706 147.899 67.3455H147.836Z" fill="#F0F2FF"/>
<path d="M149.886 67.8602V64.5464C149.885 64.5156 149.893 64.485 149.908 64.4584C149.924 64.4317 149.947 64.41 149.974 64.3958L151.131 63.7305C151.357 63.605 151.546 63.5673 151.672 63.6426C151.798 63.718 151.873 63.8811 151.873 64.1573V65.9648C151.872 66.221 151.802 66.4723 151.672 66.6928C151.542 66.9168 151.356 67.1029 151.131 67.2326L149.974 67.8978C149.974 67.8978 149.886 67.9229 149.886 67.8602ZM150.402 67.1949L151.068 66.8058C151.177 66.7483 151.266 66.661 151.326 66.5542C151.387 66.4474 151.415 66.3256 151.408 66.2033V64.3958C151.408 64.1322 151.295 64.0694 151.068 64.1949L150.402 64.5841C150.394 64.5949 150.389 64.6081 150.389 64.6217C150.389 64.6353 150.394 64.6485 150.402 64.6594V67.1698C150.402 67.1698 150.414 67.2075 150.414 67.1949H150.402Z" fill="#F0F2FF"/>
<g style="mix-blend-mode:multiply" opacity="0.4">
<path d="M189.689 84.6549C190.56 84.1341 191.298 83.4165 191.842 82.5599C192.385 81.7032 192.721 80.7312 192.82 79.7219V63.1406L183.25 68.6384V60.1657C183.25 56.2118 186.482 51.1282 190.456 48.8688C191.195 48.4325 191.996 48.1108 192.833 47.9148V44.3124C192.006 44.5969 191.21 44.9627 190.456 45.4044C184.57 48.7935 179.779 56.3373 179.779 62.2117V70.6719L178.307 71.5128C177.892 71.7749 177.543 72.1284 177.286 72.5461C177.028 72.9638 176.87 73.4348 176.824 73.9229V92.0732L189.689 84.6549Z" fill="#50197C"/>
</g>
<path d="M189.399 68.1614L188.242 67.4961C187.804 67.2992 187.425 66.99 187.144 66.5998C186.864 66.2096 186.692 65.7524 186.645 65.2744V88.3201C186.672 88.7968 186.825 89.2579 187.088 89.6569C187.35 90.0558 187.714 90.3784 188.142 90.5921L189.286 91.2573C190.471 91.8572 191.781 92.1698 193.109 92.1698C194.438 92.1698 195.748 91.8572 196.932 91.2573V68.1991C195.761 68.7813 194.47 69.0813 193.161 69.0747C191.853 69.0682 190.565 68.7554 189.399 68.1614Z" fill="url(#paint0_linear_62_403)"/>
<path d="M215.897 57.2537L197.033 68.1615C195.875 68.7853 194.576 69.1009 193.26 69.0778V92.1611C194.544 92.1673 195.81 91.8569 196.945 91.2574L215.809 80.3119C216.242 80.1168 216.615 79.8108 216.891 79.425C217.167 79.0392 217.336 78.5873 217.381 78.1153V55.0696C217.342 55.5303 217.186 55.9734 216.926 56.356C216.666 56.7387 216.311 57.0478 215.897 57.2537Z" fill="url(#paint1_linear_62_403)"/>
<path d="M215.872 52.8478L214.715 52.1825C213.532 51.5818 212.224 51.2687 210.898 51.2687C209.571 51.2687 208.263 51.5818 207.081 52.1825L188.205 63.1405C186.105 64.3958 186.117 66.3413 188.205 67.5589L189.399 68.1614C190.582 68.7681 191.893 69.0847 193.222 69.0847C194.552 69.0847 195.863 68.7681 197.046 68.1614L215.909 57.2159C217.997 56.0486 217.984 54.0654 215.872 52.8478Z" fill="#F1EDF2"/>
<path d="M191.147 64.5338V54.3541C191.147 48.7433 195.474 41.8019 201.007 38.6639C204.264 36.7811 207.496 36.4924 209.885 37.8731C210.962 38.552 211.834 39.509 212.41 40.6427C212.986 41.7764 213.243 43.0444 213.155 44.3123V54.6679C213.155 56.6134 208.565 56.6762 208.565 54.6679V44.3123C208.565 43.5969 208.439 42.3166 207.584 41.8019C206.729 41.2873 205.069 41.5885 203.296 42.5927C199.196 44.94 195.687 50.3123 195.687 54.3541V64.584C195.687 66.5673 191.147 66.7681 191.147 64.5338Z" fill="url(#paint2_linear_62_403)"/>
<g style="mix-blend-mode:screen">
<path d="M203.648 38.8773C203.874 39.2539 204.755 38.8773 205.056 38.7894C206.653 38.4756 208.313 38.2371 209.848 39.756C210.627 40.5342 211.256 39.9317 210.904 39.4296C208.628 36.1284 202.868 37.6346 203.648 38.8773Z" fill="white"/>
</g>
<path d="M206.176 79.6215C203.107 81.3788 200.617 80.3245 200.617 77.2743C200.617 74.2241 203.132 70.2953 206.176 68.4878C209.219 66.6803 211.722 67.7849 211.722 70.835C211.722 73.8852 209.231 77.8517 206.176 79.6215ZM206.176 68.6886C203.233 70.3957 200.718 74.2116 200.718 77.1864C200.718 80.1613 203.233 81.178 206.176 79.4584C209.118 77.7387 211.571 73.9354 211.571 70.9606C211.571 67.9857 209.143 66.969 206.176 68.6886Z" fill="#EDA722"/>
<path d="M205.899 70.6719L206.892 70.1071C207.018 70.0317 207.119 70.1071 207.119 70.1949V71.0234C207.106 71.1669 207.049 71.303 206.955 71.4125L206.867 71.5003C206.83 71.5386 206.801 71.5838 206.782 71.6334C206.762 71.6829 206.753 71.7358 206.754 71.789V72.2409C206.752 72.266 206.752 72.2912 206.754 72.3162L206.993 72.5547C207 72.5706 207.004 72.5877 207.004 72.6049C207.004 72.6222 207 72.6393 206.993 72.6551V73.8225C207.008 73.8844 207.008 73.9488 206.993 74.0108L206.653 74.5631C206.637 74.629 206.637 74.698 206.653 74.7639V77.1363C206.65 77.2112 206.627 77.284 206.588 77.3477C206.548 77.4114 206.493 77.4639 206.427 77.5003L205.874 77.8266C205.748 77.8894 205.647 77.8266 205.647 77.7262V75.4166C205.631 75.3635 205.631 75.3066 205.647 75.2534L206.012 74.5505C206.022 74.4923 206.022 74.433 206.012 74.3748V73.2576C206.019 73.2418 206.023 73.2247 206.023 73.2074C206.023 73.1902 206.019 73.1731 206.012 73.1572L205.773 72.9438V72.8434L205.647 71.0861C205.65 71.0012 205.674 70.9184 205.718 70.8458C205.762 70.7732 205.825 70.7132 205.899 70.6719Z" fill="#D88223"/>
<path d="M218.538 81.0525L217.821 80.6257L218.5 81.0023L218.538 81.0525Z" fill="#505B60"/>
<path d="M218.387 81.2534L218.324 81.1404L217.066 79.0944L216.349 78.6802L217.557 80.7136V80.7764H217.657L217.846 80.8768L218.387 81.2534Z" fill="#D88223"/>
<path d="M221.77 59.6511C221.005 60.6643 220.048 61.5174 218.953 62.1615C218.203 62.6395 217.327 62.8841 216.438 62.8645V64.5465C216.435 64.5815 216.44 64.6168 216.453 64.6495C216.466 64.6822 216.487 64.7114 216.513 64.7347L217.293 65.2619C217.349 65.3057 217.393 65.3636 217.419 65.4298C217.446 65.496 217.454 65.568 217.444 65.6385C217.444 66.354 217.444 68.2995 217.444 68.6636C217.539 69.0139 217.656 69.3577 217.796 69.6928C217.859 69.8758 217.859 70.0747 217.796 70.2577C217.683 70.6719 217.494 71.4125 217.381 71.8518C217.342 71.9528 217.342 72.0646 217.381 72.1656C217.381 72.2911 217.532 72.4669 217.594 72.5673C217.657 72.6677 217.305 74.1488 217.356 74.3748C217.406 74.6007 217.72 75.4794 217.859 75.881C217.914 76.0352 217.914 76.2039 217.859 76.358C217.683 76.8978 217.305 78.0149 217.154 78.4542C217.138 78.5624 217.138 78.6724 217.154 78.7806C217.131 78.8669 217.131 78.9578 217.154 79.0442L218.324 81.1404C218.354 81.1836 218.392 81.2202 218.437 81.2477C218.482 81.2753 218.532 81.2931 218.584 81.3002C218.636 81.3073 218.689 81.3035 218.74 81.2889C218.79 81.2743 218.837 81.2494 218.877 81.2157C218.985 81.1462 219.083 81.0617 219.166 80.9646V65.2243L220.185 63.3163V78.9689L220.726 77.8517C220.818 77.6032 220.857 77.338 220.839 77.0735V63.8059C220.858 63.2598 221.018 62.7278 221.304 62.262L221.468 61.9984C221.636 61.7166 221.731 61.3973 221.745 61.0695L221.77 59.6511Z" fill="#FFC522"/>
<path d="M220.135 63.3164V78.9689L219.305 80.7137C219.257 80.8225 219.193 80.9239 219.116 81.0149V65.2243L220.135 63.3164Z" fill="#F4B728"/>
<path d="M218.689 65.2368V81.0274L217.431 78.9437C217.395 78.86 217.374 78.7709 217.368 78.6802C217.378 78.5695 217.399 78.4602 217.431 78.3538L218.148 76.2576C218.203 76.1035 218.203 75.9347 218.148 75.7806C217.997 75.3789 217.682 74.5254 217.632 74.2618C217.582 73.9982 217.972 72.6426 217.871 72.4668L217.657 72.0526C217.625 71.9548 217.625 71.8492 217.657 71.7514C217.783 71.2995 217.972 70.5715 218.085 70.1447C218.135 69.964 218.135 69.7731 218.085 69.5924C217.942 69.2587 217.824 68.9146 217.733 68.5631C217.733 68.3372 217.733 67.5464 217.733 66.7933L218.689 65.2368Z" fill="#F4B728"/>
<path d="M217.808 76.4083C217.864 76.2541 217.864 76.0854 217.808 75.9313C217.67 75.5296 217.356 74.6761 217.305 74.425C217.255 74.174 217.645 72.7933 217.544 72.6175C217.444 72.4418 217.393 72.3414 217.33 72.2159C217.292 72.1148 217.292 72.0031 217.33 71.902C217.444 71.4627 217.645 70.7221 217.745 70.3079C217.809 70.1249 217.809 69.9261 217.745 69.7431C217.606 69.4079 217.488 69.0641 217.393 68.7138C217.393 68.3498 217.393 66.4042 217.393 65.6887C217.404 65.6183 217.395 65.5462 217.369 65.4801C217.342 65.4139 217.299 65.3559 217.242 65.3122L216.463 64.785L215.809 64.3959L216.588 64.9231C216.645 64.9668 216.688 65.0248 216.715 65.0909C216.742 65.1571 216.75 65.2291 216.739 65.2996C216.739 66.0151 216.739 67.9607 216.739 68.3247C216.836 68.6744 216.954 69.0181 217.091 69.354C217.155 69.537 217.155 69.7358 217.091 69.9188C216.991 70.333 216.79 71.0736 216.676 71.5129C216.638 71.614 216.638 71.7257 216.676 71.8267C216.676 71.9523 216.827 72.128 216.89 72.2284C216.953 72.3288 216.601 73.81 216.651 74.0359C216.702 74.2619 217.016 75.1405 217.154 75.5422C217.21 75.6963 217.21 75.865 217.154 76.0191L216.45 78.1154C216.433 78.2235 216.433 78.3336 216.45 78.4417C216.428 78.5282 216.428 78.6188 216.45 78.7053L217.167 79.1195C217.144 79.0332 217.144 78.9423 217.167 78.8559C217.15 78.7478 217.15 78.6377 217.167 78.5296C217.255 78.0651 217.632 76.948 217.808 76.4083Z" fill="#D88223"/>
<path d="M216.437 64.5967V62.9147L215.721 62.5005V64.1825C215.715 64.2227 215.72 64.2637 215.735 64.3012C215.751 64.3388 215.776 64.3715 215.809 64.3959L216.526 64.8101C216.493 64.7857 216.468 64.753 216.452 64.7155C216.437 64.6779 216.432 64.6369 216.437 64.5967Z" fill="#D88223"/>
<path d="M220.286 52.7349C220.301 52.5711 220.273 52.406 220.205 52.2562C220.136 52.1065 220.03 51.9772 219.896 51.8814L219.179 51.4672C219.313 51.563 219.42 51.6923 219.488 51.842C219.556 51.9918 219.584 52.1568 219.569 52.3207C219.536 52.9561 219.297 53.5637 218.89 54.0529C218.703 54.2745 218.482 54.4652 218.236 54.6177C218.11 54.6912 217.975 54.7462 217.833 54.7809C217.65 54.8217 217.458 54.795 217.293 54.7056L218.009 55.1198C218.175 55.2092 218.367 55.2359 218.55 55.1951C218.692 55.1604 218.827 55.1054 218.953 55.032C219.202 54.8828 219.423 54.6917 219.607 54.4671C220.014 53.9779 220.252 53.3703 220.286 52.7349Z" fill="#D88223"/>
<path d="M221.933 49.4713C220.072 48.3919 217.456 49.8981 215.645 52.0445C212.652 55.6846 212.061 60.7432 214.501 62.1615L215.218 62.5758C211.445 59.0737 218.211 48.7684 222.612 49.8981L221.933 49.4713Z" fill="#D88223"/>
<path d="M218.94 50.2496C217.426 51.2309 216.165 52.5552 215.26 54.1147C214.356 55.6743 213.833 57.4249 213.734 59.2243C213.734 61.4712 214.828 62.8142 216.438 62.9147C217.327 62.9306 218.201 62.6862 218.953 62.2117C220.041 61.5636 220.994 60.7111 221.757 59.7013C223.212 57.8688 224.049 55.6234 224.147 53.2872C224.159 49.9357 221.833 48.5927 218.94 50.2496ZM218.94 51.9692C219.67 51.555 220.273 51.8939 220.273 52.7349C220.247 53.1953 220.113 53.6432 219.881 54.0423C219.65 54.4413 219.327 54.7804 218.94 55.0319C218.198 55.4587 217.607 55.1072 217.607 54.2662C217.633 53.8044 217.769 53.3554 218.003 52.9561C218.237 52.5568 218.562 52.2186 218.953 51.9692H218.94Z" fill="#FFC522"/>
<path d="M218.689 65.2368V81.0274L218.424 80.563V65.7263L218.689 65.2368Z" fill="#D88223"/>
<path d="M219.896 79.4709L220.147 78.9688L220.135 63.3163L219.896 63.7682V79.4709Z" fill="#D88223"/>
<defs>
<filter id="filter0_f_62_403" x="25.1118" y="-68.608" width="289.801" height="292.048" filterUnits="userSpaceOnUse" color-interpolation-filters="sRGB">
<feFlood flood-opacity="0" result="BackgroundImageFix"/>
<feBlend mode="normal" in="SourceGraphic" in2="BackgroundImageFix" result="shape"/>
<feGaussianBlur stdDeviation="43.9982" result="effect1_foregroundBlur_62_403"/>
</filter>
<linearGradient id="paint0_linear_62_403" x1="186.645" y1="78.7429" x2="196.341" y2="78.7429" gradientUnits="userSpaceOnUse">
<stop stop-color="#D88223"/>
<stop offset="0.42" stop-color="#E79C23"/>
<stop offset="1" stop-color="#FFC522"/>
</linearGradient>
<linearGradient id="paint1_linear_62_403" x1="191.588" y1="73.6091" x2="199.032" y2="73.6091" gradientUnits="userSpaceOnUse">
<stop stop-color="#F3B022"/>
<stop offset="1" stop-color="#FFC522"/>
</linearGradient>
<linearGradient id="paint2_linear_62_403" x1="199.611" y1="69.7681" x2="205.462" y2="33.3634" gradientUnits="userSpaceOnUse">
<stop stop-color="#C0B9C8"/>
<stop offset="1" stop-color="#E0DBE1"/>
</linearGradient>
</defs>
</svg>
