<svg width="51" height="51" viewBox="0 0 51 51" fill="none" xmlns="http://www.w3.org/2000/svg">
<g clip-path="url(#clip0_16_8512)">
<path d="M25.5 50.3477C39.3071 50.3477 50.5 39.1548 50.5 25.3477C50.5 11.5405 39.3071 0.347656 25.5 0.347656C11.6929 0.347656 0.5 11.5405 0.5 25.3477C0.5 39.1548 11.6929 50.3477 25.5 50.3477Z" fill="#3B5998"/>
<path d="M31.785 26.3264H27.324V42.6692H20.5653V26.3264H17.3509V20.5829H20.5653V16.8661C20.5653 14.2083 21.8279 10.0464 27.3842 10.0464L32.3906 10.0673V15.6424H28.7581C28.1623 15.6424 27.3245 15.9401 27.3245 17.208V20.5882H32.3755L31.785 26.3264Z" fill="white"/>
</g>
<defs>
<clipPath id="clip0_16_8512">
<rect width="50" height="50" fill="white" transform="translate(0.5 0.347656)"/>
</clipPath>
</defs>
</svg>
