<svg width="51" height="51" viewBox="0 0 51 51" fill="none" xmlns="http://www.w3.org/2000/svg">
<g clip-path="url(#clip0_16_8508)">
<path d="M25.5 50.3477C39.3071 50.3477 50.5 39.1548 50.5 25.3477C50.5 11.5405 39.3071 0.347656 25.5 0.347656C11.6929 0.347656 0.5 11.5405 0.5 25.3477C0.5 39.1548 11.6929 50.3477 25.5 50.3477Z" fill="#039BE5"/>
<path d="M11.9396 24.8059L36.0437 15.5122C37.1625 15.108 38.1396 15.7851 37.7771 17.4768L37.7792 17.4747L33.675 36.8101C33.3708 38.1809 32.5562 38.5143 31.4167 37.8684L25.1667 33.2622L22.1521 36.1664C21.8187 36.4997 21.5375 36.7809 20.8917 36.7809L21.3354 30.4205L32.9187 19.9559C33.4229 19.5122 32.8062 19.2622 32.1417 19.7039L17.8271 28.7164L11.6562 26.7914C10.3167 26.3664 10.2875 25.4518 11.9396 24.8059Z" fill="white"/>
</g>
<defs>
<clipPath id="clip0_16_8508">
<rect width="50" height="50" fill="white" transform="translate(0.5 0.347656)"/>
</clipPath>
</defs>
</svg>
